<svg xmlns="http://www.w3.org/2000/svg" width="24" height="19" viewBox="0 0 24 19">
  <path fill="#FFFEE7" fill-rule="evenodd" d="M24,10.0803571 L24,20.7142857 C24,21.3035744 23.7901807,21.8080336 23.3705357,22.2276786 C22.9508908,22.6473235 22.4464315,22.8571429 21.8571429,22.8571429 L2.14285714,22.8571429 C1.55356848,22.8571429 1.04910924,22.6473235 0.629464286,22.2276786 C0.20981933,21.8080336 0,21.3035744 0,20.7142857 L0,10.0803571 C0.392859107,10.5178593 0.843747455,10.9062483 1.35267857,11.2455357 C4.58483759,13.4419753 6.8035654,14.9821384 8.00892857,15.8660714 C8.51785969,16.2410733 8.93080199,16.5334811 9.24776786,16.7433036 C9.56473373,16.953126 9.98660451,17.1674096 10.5133929,17.3861607 C11.0401812,17.6049118 11.5312477,17.7142857 11.9866071,17.7142857 L12.0133929,17.7142857 C12.4687523,17.7142857 12.9598188,17.6049118 13.4866071,17.3861607 C14.0133955,17.1674096 14.4352663,16.953126 14.7522321,16.7433036 C15.069198,16.5334811 15.4821403,16.2410733 15.9910714,15.8660714 C17.5089362,14.7678517 19.7321282,13.2276885 22.6607143,11.2455357 C23.1696454,10.8973197 23.6160695,10.5089307 24,10.0803571 Z M24,6.14285714 C24,6.84821781 23.7812522,7.52231821 23.34375,8.16517857 C22.9062478,8.80803893 22.3616104,9.35714058 21.7098214,9.8125 C18.3526618,12.1428688 16.263397,13.5937471 15.4419643,14.1651786 C15.3526781,14.2276789 15.1629479,14.3638382 14.8727679,14.5736607 C14.5825878,14.7834832 14.3415188,14.9531244 14.1495536,15.0825893 C13.9575883,15.2120542 13.7254478,15.3571421 13.453125,15.5178571 C13.1808022,15.6785722 12.9241083,15.7991067 12.6830357,15.8794643 C12.4419631,15.9598218 12.218751,16 12.0133929,16 L11.9866071,16 C11.781249,16 11.5580369,15.9598218 11.3169643,15.8794643 C11.0758917,15.7991067 10.8191978,15.6785722 10.546875,15.5178571 C10.2745522,15.3571421 10.0424117,15.2120542 9.85044643,15.0825893 C9.65848118,14.9531244 9.41741217,14.7834832 9.12723214,14.5736607 C8.83705212,14.3638382 8.64732187,14.2276789 8.55803571,14.1651786 C7.74553165,13.5937471 6.57590049,12.7790231 5.04910714,11.7209821 C3.52231379,10.6629411 2.60714437,10.0267868 2.30357143,9.8125 C1.74999723,9.43749813 1.22768103,8.92187828 0.736607143,8.265625 C0.245533259,7.60937172 0,7.00000281 0,6.4375 C0,5.74106795 0.185266004,5.16071661 0.555803571,4.69642857 C0.926341138,4.23214054 1.45535371,4 2.14285714,4 L21.8571429,4 C22.4375029,4 22.93973,4.20981933 23.3638393,4.62946429 C23.7879485,5.04910924 24,5.55356848 24,6.14285714 Z" transform="translate(0 -4)"/>
</svg>
