<svg xmlns="http://www.w3.org/2000/svg" width="1200" height="579" viewBox="0 0 1200 579">
  <path fill="#352549" fill-rule="evenodd" d="M0,299.5 C32,245.222406 114.84718,207.657771 248.54154,186.806094 C245.853659,139.956954 231.733994,115.623581 221.067073,99.4571556 C215.733613,104.601018 213.600229,106.805531 202.933308,116.358419 C192.266387,112.684231 185.866235,111.214556 176.266006,109.010043 C199.02639,94.3260796 203.891971,89.4497005 218.193635,76.2980177 C213.657279,65.1562473 205.379192,49.5214085 193.359375,29.3935012 L231.76029,22.0451259 C236.204099,41.6349009 238.817911,53.0620795 239.601726,56.3266615 C255.294863,37.8805738 262.25143,21.1694284 271.98247,0 C299.716463,25.7193135 369.962652,84.0587723 396.629954,93.6116602 C393.66625,94.9727785 381.696265,99.4903604 371.029345,103.164548 C363.5625,98.7555229 354.586272,94.6903941 353.962271,94.3464977 C337.96189,131.823212 347.535823,170.639669 349.669207,180.927394 C703.092988,180.927394 986.536585,220.451596 1200,299.5 L1200,579 L0,579 L0,299.5 Z" transform="matrix(-1 0 0 1 1200 0)"/>
</svg>
