<svg xmlns="http://www.w3.org/2000/svg" width="26" height="26" viewBox="0 0 26 26">
  <path fill="#FFFEE7" fill-rule="evenodd" d="M26,13.3255867 C26,16.229006 25.1734024,18.8403091 23.5201823,21.1595743 C21.8669622,23.4788395 19.7313499,25.0837932 17.1132813,25.9744835 C16.8085922,26.0323206 16.5857212,25.9918353 16.4446615,25.8530264 C16.3036017,25.7142175 16.2330729,25.540709 16.2330729,25.3324956 L16.2330729,21.6714295 C16.2330729,20.549391 15.9396731,19.7281174 15.3528646,19.207584 C15.996097,19.1381796 16.5744332,19.0340745 17.0878906,18.8952656 C17.6013481,18.7564567 18.1317247,18.5308956 18.6790365,18.2185756 C19.2263482,17.9062556 19.6833749,17.5216451 20.0501302,17.0647325 C20.4168855,16.6078199 20.7159277,16.0005401 20.9472656,15.2428749 C21.1786036,14.4852098 21.2942708,13.6147754 21.2942708,12.6315458 C21.2942708,11.2318895 20.8485288,10.0404644 19.9570313,9.05723474 C20.3745681,8.00460066 20.3294296,6.8247428 19.8216146,5.51762576 C19.5056408,5.41351909 19.0486141,5.47713888 18.4505208,5.70848703 C17.8524276,5.93983518 17.3333355,6.19431432 16.8932292,6.4719321 L16.25,6.88835669 C15.2005156,6.5876041 14.1171931,6.43723005 13,6.43723005 C11.8828069,6.43723005 10.7994844,6.5876041 9.75,6.88835669 C9.56944354,6.76111521 9.32964559,6.60495755 9.03059896,6.41987903 C8.73155232,6.23480051 8.26041988,6.01213126 7.6171875,5.75186459 C6.97395512,5.49159792 6.48871691,5.41351909 6.16145833,5.51762576 C5.66492807,6.8247428 5.62543194,8.00460066 6.04296875,9.05723474 C5.15147124,10.0404644 4.70572917,11.2318895 4.70572917,12.6315458 C4.70572917,13.6147754 4.82139641,14.4823179 5.05273438,15.2341994 C5.28407234,15.9860809 5.58029333,16.5933607 5.94140625,17.056057 C6.30251917,17.5187533 6.75672469,17.9062556 7.30403646,18.2185756 C7.85134822,18.5308956 8.38172486,18.7564567 8.89518229,18.8952656 C9.40863972,19.0340745 9.98697595,19.1381796 10.6302083,19.207584 C10.1788172,19.6240107 9.90234426,20.2197232 9.80078125,20.9947395 C9.5638009,21.1104136 9.30989719,21.1971679 9.0390625,21.2550049 C8.76822781,21.3128419 8.44661645,21.34176 8.07421875,21.34176 C7.70182105,21.34176 7.3322501,21.2174123 6.96549479,20.968713 C6.59873949,20.7200137 6.28559158,20.3585377 6.02604167,19.884274 C5.81163087,19.5141169 5.5379791,19.2133688 5.20507813,18.9820207 C4.87217715,18.7506725 4.59288307,18.6118657 4.3671875,18.5655961 L4.02864583,18.513543 C3.79166548,18.513543 3.62803865,18.5395693 3.53776042,18.5916226 C3.44748219,18.643676 3.41927066,18.7101876 3.453125,18.7911594 C3.48697934,18.8721313 3.53776008,18.9531019 3.60546875,19.0340738 C3.67317742,19.1150456 3.74652738,19.184449 3.82552083,19.2422861 L3.94401042,19.3290412 C4.19227555,19.4447153 4.4377158,19.6644927 4.68033854,19.9883801 C4.92296128,20.3122675 5.10069388,20.607232 5.21354167,20.8732824 L5.3828125,21.2723559 C5.52951462,21.7119174 5.77777603,22.0676098 6.12760417,22.3394439 C6.4774323,22.611278 6.85546672,22.7847865 7.26171875,22.8599747 C7.66797078,22.9351628 8.06011096,22.9756481 8.43815104,22.9814318 C8.81619113,22.9872155 9.12933904,22.9669729 9.37760417,22.9207032 L9.76692708,22.8512991 C9.76692708,23.2908606 9.76974824,23.8056025 9.77539063,24.3955403 C9.78103301,24.9854781 9.78385417,25.2977934 9.78385417,25.3324956 C9.78385417,25.540709 9.71050421,25.7142175 9.56380208,25.8530264 C9.41709996,25.9918353 9.19140777,26.0323206 8.88671875,25.9744835 C6.2686501,25.0837932 4.13303778,23.4788395 2.47981771,21.1595743 C0.826597637,18.8403091 0,16.229006 0,13.3255867 C0,10.9079986 0.581157383,8.67841425 1.74348958,6.63676683 C2.90582178,4.59511942 4.48284594,2.97859848 6.47460938,1.78715551 C8.46637281,0.595712547 10.6414813,0 13,0 C15.3585187,0 17.5336272,0.595712547 19.5253906,1.78715551 C21.5171541,2.97859848 23.0941782,4.59511942 24.2565104,6.63676683 C25.4188426,8.67841425 26,10.9079986 26,13.3255867 Z"/>
</svg>
