<svg xmlns="http://www.w3.org/2000/svg" width="171" height="51" viewBox="0 0 171 51">
  <path fill="#FFFEE7" d="M600.276136,469.299505 C607.28439,469.299505 613.208525,471.715739 618.048544,476.548958 C622.88779,481.382178 625.307802,487.29877 625.307802,494.299505 C625.307802,501.300239 622.928986,507.155035 618.173659,511.862374 C613.125371,516.821474 607.159275,519.299505 600.276136,519.299505 C593.475782,519.299505 587.613825,516.84132 582.691798,511.924935 C577.76824,507.008555 575.307802,501.132389 575.307802,494.299505 C575.307802,487.465858 577.76824,481.549262 582.691798,476.548958 C587.488709,471.715731 593.350659,469.299505 600.276136,469.299505 Z M600.338698,473.798562 C594.664428,473.798562 589.867517,475.798224 585.945686,479.799078 C581.857155,483.924297 579.81289,488.757512 579.81289,494.299505 C579.81289,499.841497 581.836171,504.632747 585.88274,508.674805 C589.929313,512.716858 594.747582,514.737124 600.338698,514.737124 C605.928675,514.737124 610.788525,512.695497 614.919017,508.612247 C618.841228,504.820443 620.80119,500.04902 620.80119,494.299505 C620.80119,488.590428 618.799267,483.757208 614.794659,479.799078 C610.830482,475.798224 606.012598,473.798562 600.338698,473.798562 Z M607.034917,488.109778 L607.034917,498.336216 L604.182328,498.336216 L604.182328,510.445593 L596.432509,510.445593 L596.432509,498.336216 L593.580302,498.336216 L593.580302,488.109778 C593.580302,487.217897 594.303182,486.495397 595.194659,486.495397 L605.420559,486.495397 C606.310898,486.495397 607.034917,487.217905 607.034917,488.109778 Z M600.307419,485.149576 C598.375513,485.149576 596.809394,483.583433 596.809394,481.651498 C596.809394,479.719563 598.375513,478.15342 600.307419,478.15342 C602.239324,478.15342 603.805443,479.719563 603.805443,481.651498 C603.805443,483.583433 602.239324,485.149576 600.307419,485.149576 Z M659.673036,469.301919 C659.887359,469.296484 660.092177,469.301919 660.307802,469.301919 C674.107798,469.301919 685.307802,480.501381 685.307802,494.300711 C685.307802,508.100041 674.107798,519.299503 660.307802,519.299503 C646.507805,519.299503 635.307802,508.100041 635.307802,494.300711 C635.307802,480.716996 646.170712,469.644367 659.673036,469.301919 Z M659.648622,473.598587 C648.528829,473.951134 639.604676,483.096332 639.604677,494.300711 C639.604677,505.728286 648.879676,515.002835 660.307802,515.002836 C671.735928,515.002836 681.010925,505.728285 681.010927,494.300711 C681.010927,482.873137 671.735929,473.598586 660.307802,473.598587 C660.084596,473.598587 659.870132,473.591564 659.648622,473.598587 Z M649.460754,490.226335 C649.460787,484.085806 655.578537,480.926763 660.088076,480.851788 C660.139271,480.850951 660.183313,480.854606 660.23456,480.851788 C660.44616,480.840154 660.655073,480.851788 660.869326,480.851788 C668.085638,480.851788 673.296082,486.37016 673.296082,494.303287 C673.296082,501.732149 668.083841,507.767481 660.869326,507.754785 C654.496361,507.743681 650.003644,504.1651 648.930849,498.062871 L655.449404,498.062871 C655.981397,500.712149 657.364727,502.45839 661.01581,502.530428 C664.474998,502.600055 667.440591,499.419601 667.290224,494.303287 C667.146138,489.400879 665.41224,486.076145 661.01581,486.076145 C660.907688,486.076145 660.805112,486.084604 660.698427,486.076145 C657.999614,485.862152 655.663073,487.57037 655.283309,490.226335 L657.036318,490.226335 L652.177919,495.670408 L647.319521,490.226335 L649.460754,490.226335 Z M540.273832,469.265794 C547.132519,469.265794 553.304705,471.800585 558.106259,476.594047 C562.839085,481.32045 565.307802,487.48505 565.307802,494.265794 C565.307802,501.115174 562.839085,507.211138 558.174989,511.80027 C553.236766,516.663156 546.857602,519.265794 540.273832,519.265794 C533.689272,519.265794 527.448356,516.663945 522.646802,511.868905 C517.845247,507.074655 515.307802,500.910055 515.307802,494.266583 C515.307802,487.690957 517.913976,481.389875 522.714741,476.5262 C527.378837,471.800585 533.414355,469.265794 540.273832,469.265794 Z M540.341771,473.78629 C534.717838,473.78629 529.779615,475.84142 525.938687,479.745771 C522.02903,483.718759 519.83444,488.855399 519.83444,494.266583 C519.83444,499.609131 522.02903,504.745771 525.938687,508.650123 C529.848344,512.554475 534.924025,514.677451 540.341771,514.677451 C545.691578,514.677451 550.903927,512.554475 554.951042,508.581487 C558.79118,504.813618 560.780373,499.882096 560.780373,494.265794 C560.780373,488.718128 558.723241,483.649334 554.882313,479.813618 C550.973446,475.909266 545.966495,473.78629 540.341771,473.78629 Z M540.019455,490.112144 L536.692021,491.857229 C535.915461,490.196559 534.584329,489.836023 533.919158,489.836023 C531.451232,489.836023 530.563284,491.74757 530.563284,494.267372 C530.563284,496.787174 531.61713,498.697931 533.919158,498.697931 C535.2495,498.697931 536.303346,498.199336 536.996957,496.537876 L540.102404,498.116499 C538.772062,500.469839 536.359435,502.020851 533.530484,502.020851 C529.121554,502.020851 526.071405,499.22335 526.071405,494.266583 C526.071405,489.391863 529.315891,486.512315 533.392236,486.512315 C536.192747,486.512315 538.605375,487.537118 540.019455,490.112144 Z M554.461249,490.112144 L551.134604,491.857229 C550.358045,490.196559 549.026913,489.836023 548.361742,489.836023 C545.893816,489.836023 545.005868,491.74757 545.005868,494.267372 C545.005868,496.787174 546.059713,498.697931 548.361742,498.697931 C549.692874,498.697931 550.74593,498.199336 551.43954,496.537876 L554.544988,498.116499 C553.213856,500.469839 550.801229,502.020851 547.973067,502.020851 C543.563347,502.020851 540.513199,499.22335 540.513199,494.266583 C540.513199,489.391863 543.757685,486.512315 547.834029,486.512315 C550.634541,486.512315 553.047168,487.537118 554.461249,490.112144 Z" transform="translate(-515 -469)"/>
</svg>
