<svg xmlns="http://www.w3.org/2000/svg" width="26" height="26" viewBox="0 0 26 26">
  <path fill="#FFFEE7" fill-rule="evenodd" d="M23.734375,13.125 C24.3802116,13.125 24.9192687,13.3359354 25.3515625,13.7578125 C25.7838563,14.1796896 26,14.7083302 26,15.34375 C26,16.3541717 25.5156298,17.0312483 24.546875,17.375 L21.859375,18.296875 L22.734375,20.90625 C22.807292,21.1250011 22.84375,21.3697903 22.84375,21.640625 C22.84375,22.2552114 22.6250022,22.7864561 22.1875,23.234375 C21.7499978,23.6822939 21.2239614,23.90625 20.609375,23.90625 C20.1197892,23.90625 19.6744812,23.7656264 19.2734375,23.484375 C18.8723938,23.2031236 18.5937508,22.8281273 18.4375,22.359375 L17.578125,19.78125 L12.734375,21.4375 L13.59375,24 C13.6770838,24.2500013 13.71875,24.4947905 13.71875,24.734375 C13.71875,25.3489614 13.5000022,25.8802061 13.0625,26.328125 C12.6249978,26.7760439 12.0937531,27 11.46875,27 C10.9791642,27 10.5364603,26.8593764 10.140625,26.578125 C9.74478969,26.2968736 9.46875078,25.9218773 9.3125,25.453125 L8.453125,22.90625 L6.0625,23.734375 C5.76041516,23.8281255 5.50000109,23.875 5.28125,23.875 C4.64583016,23.875 4.11718961,23.6666687 3.6953125,23.25 C3.27343539,22.8333313 3.0625,22.3072948 3.0625,21.671875 C3.0625,21.1822892 3.20572773,20.7395853 3.4921875,20.34375 C3.77864727,19.9479147 4.15103938,19.6718758 4.609375,19.515625 L7.046875,18.6875 L5.40625,13.796875 L2.96875,14.640625 C2.69791531,14.7239588 2.44791781,14.765625 2.21875,14.765625 C1.59374688,14.765625 1.06771047,14.5546896 0.640625,14.1328125 C0.213539531,13.7109354 0,13.1875031 0,12.5625 C0,12.0729142 0.143227734,11.6302103 0.4296875,11.234375 C0.716147266,10.8385397 1.08853938,10.5625008 1.546875,10.40625 L4,9.578125 L3.171875,7.09375 C3.08854125,6.84374875 3.046875,6.59895953 3.046875,6.359375 C3.046875,5.73437187 3.26562281,5.20052305 3.703125,4.7578125 C4.14062719,4.31510195 4.67187188,4.09375 5.296875,4.09375 C5.78646078,4.09375 6.22916469,4.23437359 6.625,4.515625 C7.02083531,4.79687641 7.29687422,5.17187266 7.453125,5.640625 L8.296875,8.140625 L13.140625,6.5 L12.296875,4 C12.2135413,3.74999875 12.171875,3.50520953 12.171875,3.265625 C12.171875,2.65103859 12.393227,2.11979391 12.8359375,1.671875 C13.278648,1.22395609 13.8072886,1 14.421875,1 C14.9114608,1 15.3567688,1.14322773 15.7578125,1.4296875 C16.1588562,1.71614727 16.4374992,2.08853938 16.59375,2.546875 L17.421875,5.0625 L19.953125,4.203125 C20.1718761,4.14062469 20.3958322,4.109375 20.625,4.109375 C21.2500031,4.109375 21.783852,4.31510211 22.2265625,4.7265625 C22.669273,5.13802289 22.890625,5.65103859 22.890625,6.265625 C22.890625,6.73437734 22.7343766,7.15885227 22.421875,7.5390625 C22.1093734,7.91927273 21.7239606,8.18749922 21.265625,8.34375 L18.8125,9.1875 L20.453125,14.125 L23.015625,13.25 C23.2656263,13.1666663 23.5052072,13.125 23.734375,13.125 Z M11.328125,17.21875 L16.171875,15.578125 L14.53125,10.65625 L9.6875,12.328125 L11.328125,17.21875 Z" transform="translate(0 -1)"/>
</svg>
