<svg xmlns="http://www.w3.org/2000/svg" width="66" height="56" viewBox="0 0 66 56">
  <path fill="#FFFEE7" d="M64.8226599,50.3462065 C65.9465927,51.4723626 65.9465927,53.2933338 64.8226599,54.4183783 C63.6987272,55.542311 61.877756,55.542311 60.7515998,54.4172666 L47.2055754,40.8723539 C38.2541347,47.8104986 25.2983362,47.1935029 17.0839552,38.9791219 C8.17920608,30.0732611 8.17920608,15.5844227 17.0839552,6.67856185 C25.9887044,-2.22618728 40.4786544,-2.22618728 49.3834036,6.67856185 C57.5988962,14.8929428 58.215892,27.8498531 51.2766355,36.8001821 L64.8226599,50.3462065 Z M45.3112318,34.9069501 C51.9714505,28.2467314 51.9714505,17.4098407 45.3112318,10.7507336 C38.651013,4.08940321 27.8141223,4.09162662 21.1550153,10.7507336 C14.4947966,17.4109524 14.4947966,28.2478431 21.1550153,34.9069501 C27.815234,41.5682806 38.6521248,41.5671689 45.3112318,34.9069501 Z M3.96251276,48.210712 C3.61566111,48.210712 3.33439999,47.9305626 3.33439999,47.5859344 L3.33439999,35.2782593 L9.39096345,28.9748975 C10.1135711,31.8508758 11.3464508,34.6156837 13.1007197,37.1359167 L13.1007197,47.5848227 C13.1007197,47.9305626 12.8205703,48.210712 12.4737187,48.210712 L3.96251276,48.210712 Z M28.3077189,47.5848227 C28.3077189,47.9305626 28.0264578,48.210712 27.6796062,48.210712 L19.1684002,48.210712 C18.8226603,48.210712 18.5413992,47.9316743 18.5413992,47.5848227 L18.5413992,42.791155 C21.4451701,44.9967757 24.7613831,46.5275922 28.3077189,47.2913328 L28.3077189,47.5848227 Z M27.6796062,33.7029747 C28.0275695,33.7029747 28.3088306,33.9842358 28.3077189,34.3321992 L28.3077222,36.6823414 C26.5634553,36.0108722 24.9548196,35.0058918 23.5540726,33.7029747 L27.6796062,33.7029747 Z M42.0517156,48.210712 L33.539398,48.210712 C33.2825944,48.210712 33.0658121,48.0561852 32.9679821,47.8371795 C33.1869878,47.8438497 33.4048818,47.8683072 33.6272226,47.8683072 C36.7322119,47.8683072 39.8082969,47.2813275 42.6787167,46.1740703 L42.6787167,47.5848227 C42.6787167,47.9305626 42.3985673,48.210712 42.0517156,48.210712 Z M41.5180977,20.732724 C41.88496,20.732724 42.2518223,20.6426759 42.5764399,20.4736969 C42.6120144,20.4536863 42.6442539,20.4303405 42.6787167,20.4092181 L42.6787167,34.6112369 C40.1017868,36.59007 36.9656698,37.6773165 33.6527918,37.6773165 C33.4026584,37.6773165 33.1591952,37.6550824 32.9123969,37.6428537 L32.9123969,25.010561 L38.5064915,18.9084177 L40.0539835,20.2013295 C40.4630906,20.5437343 40.9844798,20.732724 41.5180977,20.732724 Z M25.5495813,30.4412351 C25.2071764,30.8169911 24.6702234,30.9459487 24.1899673,30.7702995 L20.3123437,29.3439833 C19.8354226,28.3634603 19.4685603,27.331799 19.2162035,26.2645631 L24.2677865,28.1233322 L36.5298818,14.7461979 L33.5049352,12.2170712 C33.4048818,12.1359168 33.3470732,12.0180762 33.3359562,11.8957888 C33.3326211,11.8335334 33.3370679,11.7723896 33.3559668,11.7112459 C33.4148872,11.5278148 33.5760842,11.3977454 33.7672973,11.3799581 L41.0878682,10.7251645 C41.348007,10.7018187 41.5792414,10.8952552 41.6025872,11.1565056 L42.2584926,18.4770765 C42.2729447,18.6694013 42.1728914,18.8517208 42.0039123,18.9406571 C41.8327099,19.0295934 41.625933,19.0062476 41.4780764,18.8839602 L38.4575766,16.3592804 L25.5495813,30.4412351 Z M8.63945154,23.5831331 C8.67280266,24.6859434 8.77730284,25.7865304 8.95517548,26.8793355 L2.16044056,33.949773 C1.91475397,34.2065766 1.58568958,34.3355343 1.25551349,34.3355343 C0.943124664,34.3355343 0.629624132,34.219917 0.386160954,33.9853475 C-0.114105852,33.5050914 -0.130781412,32.710223 0.350586425,32.2099562 L8.63945154,23.5831331 Z"/>
</svg>
