<svg xmlns="http://www.w3.org/2000/svg" width="43" height="91" viewBox="0 0 43 91">
  <path fill="#FFFEE7" fill-rule="evenodd" d="M28.9719626,80.6785717 L26.0116172,83.6389171 L24.7407567,82.3680566 C23.758129,81.385429 22.1440123,81.4063916 21.1355261,82.4148778 C20.1270399,83.4233641 20.1060773,85.0374808 21.0887049,86.0201084 L24.1387701,89.0701736 C25.1213977,90.0528012 26.7355144,90.0318387 27.7440007,89.0233524 L28.9719626,87.7953905 L28.9719626,89 C28.9719626,90.1045695 28.0765321,91 26.9719626,91 L16.0186916,91 C14.9141221,91 14.0186916,90.1045695 14.0186916,89 L14.0186916,71.5046729 C14.0186916,70.4001034 14.9141221,69.5046729 16.0186916,69.5046729 L26.9719626,69.5046729 C28.0765321,69.5046729 28.9719626,70.4001034 28.9719626,71.5046729 L28.9719626,80.6785717 Z M18.6292835,56.6748538 L4.07289294e-14,40.0100806 L0,36.6380342 C0,36.0172576 0.641585717,35.5140187 1.43302181,35.5140187 L41.5576324,35.5140187 C42.3490685,35.5140187 42.9906542,36.0172576 42.9906542,36.6380342 L42.9906542,40.0100806 L24.3613707,56.6748538 L24.3613707,62.6939474 C24.3613707,63.2044111 24.1398807,63.6996759 23.7333312,64.0982812 L21.4953271,66.2925527 C20.9400855,66.8369444 19.927333,66.9252078 19.233281,66.4896944 C18.8515184,66.2501407 18.6292835,65.8874591 18.6292835,65.5039861 L18.6292835,56.6748538 Z M4.20560748,15.8878505 C4.97983843,15.8878505 5.60747664,16.5154887 5.60747664,17.2897196 L5.60747664,33.1775701 C5.60747664,33.9518011 4.97983843,34.5794393 4.20560748,34.5794393 C3.43137652,34.5794393 2.80373832,33.9518011 2.80373832,33.1775701 L2.80373832,17.2897196 C2.80373832,16.5154887 3.43137652,15.8878505 4.20560748,15.8878505 Z M4.20560748,9.34579439 C4.97983843,9.34579439 5.60747664,9.97343259 5.60747664,10.7476636 L5.60747664,12.6168224 C5.60747664,13.3910534 4.97983843,14.0186916 4.20560748,14.0186916 C3.43137652,14.0186916 2.80373832,13.3910534 2.80373832,12.6168224 L2.80373832,10.7476636 C2.80373832,9.97343259 3.43137652,9.34579439 4.20560748,9.34579439 Z M11.682243,27.1028037 C12.4564739,27.1028037 13.0841121,27.7304419 13.0841121,28.5046729 L13.0841121,33.1775701 C13.0841121,33.9518011 12.4564739,34.5794393 11.682243,34.5794393 C10.908012,34.5794393 10.2803738,33.9518011 10.2803738,33.1775701 L10.2803738,28.5046729 C10.2803738,27.7304419 10.908012,27.1028037 11.682243,27.1028037 Z M39.7196262,14.953271 C40.4938571,14.953271 41.1214953,15.5809092 41.1214953,16.3551402 L41.1214953,17.2897196 C41.1214953,18.0639506 40.4938571,18.6915888 39.7196262,18.6915888 C38.9453952,18.6915888 38.317757,18.0639506 38.317757,17.2897196 L38.317757,16.3551402 C38.317757,15.5809092 38.9453952,14.953271 39.7196262,14.953271 Z M39.2523364,10.2803738 L40.1869159,10.2803738 C40.7030699,10.2803738 41.1214953,10.6987993 41.1214953,11.2149533 C41.1214953,11.7311072 40.7030699,12.1495327 40.1869159,12.1495327 L39.2523364,12.1495327 C38.7361825,12.1495327 38.317757,11.7311072 38.317757,11.2149533 C38.317757,10.6987993 38.7361825,10.2803738 39.2523364,10.2803738 Z M11.682243,22.4299065 C12.4564739,22.4299065 13.0841121,23.0575447 13.0841121,23.8317757 L13.0841121,24.7663551 C13.0841121,25.5405861 12.4564739,26.1682243 11.682243,26.1682243 C10.908012,26.1682243 10.2803738,25.5405861 10.2803738,24.7663551 L10.2803738,23.8317757 C10.2803738,23.0575447 10.908012,22.4299065 11.682243,22.4299065 Z M11.682243,9.34579439 C12.4564739,9.34579439 13.0841121,9.97343259 13.0841121,10.7476636 L13.0841121,19.1588785 C13.0841121,19.9331095 12.4564739,20.5607477 11.682243,20.5607477 C10.908012,20.5607477 10.2803738,19.9331095 10.2803738,19.1588785 L10.2803738,10.7476636 C10.2803738,9.97343259 10.908012,9.34579439 11.682243,9.34579439 Z M25.7009346,3.73831776 C26.4751655,3.73831776 27.1028037,4.36595596 27.1028037,5.14018692 L27.1028037,33.1775701 C27.1028037,33.9518011 26.4751655,34.5794393 25.7009346,34.5794393 C24.9267036,34.5794393 24.2990654,33.9518011 24.2990654,33.1775701 L24.2990654,5.14018692 C24.2990654,4.36595596 24.9267036,3.73831776 25.7009346,3.73831776 Z M18.2242991,5.60747664 C18.99853,5.60747664 19.6261682,6.23511484 19.6261682,7.00934579 L19.6261682,30.3738318 C19.6261682,31.1480627 18.99853,31.7757009 18.2242991,31.7757009 C17.4500681,31.7757009 16.8224299,31.1480627 16.8224299,30.3738318 L16.8224299,7.00934579 C16.8224299,6.23511484 17.4500681,5.60747664 18.2242991,5.60747664 Z M33.1775701,23.364486 C33.9518011,23.364486 34.5794393,23.9921242 34.5794393,24.7663551 L34.5794393,31.3084112 C34.5794393,32.0826422 33.9518011,32.7102804 33.1775701,32.7102804 C32.4033391,32.7102804 31.7757009,32.0826422 31.7757009,31.3084112 L31.7757009,24.7663551 C31.7757009,23.9921242 32.4033391,23.364486 33.1775701,23.364486 Z M33.1775701,0 C33.9518011,-1.4222392e-16 34.5794393,0.627638201 34.5794393,1.40186916 L34.5794393,21.0280374 C34.5794393,21.8022683 33.9518011,22.4299065 33.1775701,22.4299065 C32.4033391,22.4299065 31.7757009,21.8022683 31.7757009,21.0280374 L31.7757009,1.40186916 C31.7757009,0.627638201 32.4033391,1.4222392e-16 33.1775701,0 Z M39.7196262,23.364486 C40.4938571,23.364486 41.1214953,23.9921242 41.1214953,24.7663551 L41.1214953,33.1775701 C41.1214953,33.9518011 40.4938571,34.5794393 39.7196262,34.5794393 C38.9453952,34.5794393 38.317757,33.9518011 38.317757,33.1775701 L38.317757,24.7663551 C38.317757,23.9921242 38.9453952,23.364486 39.7196262,23.364486 Z M25.8778571,85.5111531 L32.0897902,79.2992199 C32.5798982,78.8091119 33.3726787,78.8072704 33.860515,79.2951067 C34.3483514,79.782943 34.3465098,80.5757235 33.8564018,81.0658315 L26.7570496,88.1651837 C26.2669416,88.6552917 25.4741611,88.6571332 24.9863248,88.1692969 L21.980665,85.1513596 C21.4928287,84.6635233 21.4946702,83.8707428 21.9847782,83.3806348 C22.4748862,82.8905268 23.2676667,82.8886853 23.755503,83.3765216 L25.8778571,85.5111531 Z"/>
</svg>
