<svg xmlns="http://www.w3.org/2000/svg" width="63" height="60" viewBox="0 0 63 60">
  <path fill="#FFFEE7" d="M20.2758763,23.125 C17.8260761,23.125 15.8402204,21.1667858 15.8402204,18.7505833 C15.8402204,16.3324364 17.8260761,14.375 20.2758763,14.375 C22.7248881,14.375 24.7107438,16.3324364 24.7107438,18.7505833 C24.7107438,21.1667858 22.7248881,23.125 20.2758763,23.125 Z M38.6506633,14.375 C41.0996026,14.375 43.0853994,16.3323068 43.0853994,18.7505833 C43.0853994,21.1667858 41.0996026,23.125 38.6506633,23.125 C36.2008043,23.125 34.214876,21.1667858 34.214876,18.7505833 C34.214876,16.3324364 36.2008043,14.375 38.6506633,14.375 Z M20.4365353,12.3626688 C19.1409882,12.3626688 17.6077225,12.8757894 16.4738292,13.9051903 L18.7171618,9.07970772 C19.0551418,8.35148084 19.7532391,8.125 20.5747647,8.125 L26.3859356,8.125 C26.5723008,8.125 27.0189081,8.2383668 27.3127422,8.43186131 C26.7685764,9.30429279 26.43819,10.3199178 26.43819,11.4157969 C26.43819,12.8478585 26.9932957,14.1432985 27.8787879,15.1512141 C27.1216149,15.2993366 26.4402493,15.6758357 25.9521989,16.25 C25.157444,13.9961871 22.9981559,12.3626688 20.4365353,12.3626688 Z M23.4441057,7.5 C21.3446037,7.5 19.6418733,5.82106618 19.6418733,3.7510799 C19.6418733,1.67791744 21.3446037,0 23.4441057,0 C25.5423198,0 27.2451791,1.67791744 27.2451791,3.7510799 C27.2451791,5.82106618 25.5423198,7.5 23.4441057,7.5 Z M46.2534435,15.7671454 C45.4711491,15.916363 44.7674299,16.2960969 44.2631398,16.875 C43.4514629,14.6278161 41.2585391,12.9995476 38.6501377,12.9634857 C38.7319037,12.6461912 38.7756452,12.3173008 38.7989119,11.981402 C38.8854642,11.9550245 39.3307232,11.875 39.3501343,11.875 L44.7787309,11.875 C44.7776672,11.9180705 44.7653026,11.9579553 44.7653026,12.0008984 C44.7653026,13.4445244 45.3388611,14.7509111 46.2534435,15.7671454 Z M42.7679883,11.25 C40.4936114,11.25 38.6501377,9.43171677 38.6501377,7.18743348 C38.6501377,4.94208585 40.4937462,3.125 42.7679883,3.125 C45.0434439,3.125 46.8870523,4.94208585 46.8870523,7.18743348 C46.8870523,7.47161091 46.8560424,7.74900321 46.8003593,8.01708258 C46.1971486,8.64583845 45.7448079,9.40417711 45.4576289,10.2420748 C44.7345579,10.8617838 43.8019676,11.25 42.7679883,11.25 Z M29.5770913,16.875 C30.4234266,16.875 29.0098143,16.875 33.1338237,16.8751308 C32.8834412,17.5287693 32.7289104,18.22833 32.7289104,18.9670096 C32.7289104,20.4492095 33.3014977,21.7903721 34.214876,22.8337603 C33.1338237,23.0451854 32.1949557,23.7226354 31.7342838,24.7229797 L29.8691599,28.75 L27.8086155,24.3019611 C27.7464846,24.1686429 27.6491726,24.062407 27.5717744,23.9399479 C27.0712749,23.1482813 26.2739275,22.6011403 25.3443526,22.4136575 L25.3677181,22.3625021 C26.0696122,21.5436223 26.5494013,20.5485113 26.7213236,19.4418003 L27.3865763,18.0046067 C27.7780811,17.1527571 28.5875095,16.875 29.5770913,16.875 Z M30.305965,43.125 C30.7569787,43.2255055 31.2246358,43.2410266 31.6804408,43.1473911 L31.6804408,51.4541067 C31.2931011,52.0692258 30.6440046,52.5 29.8684427,52.5 C28.9778893,52.5 28.2185927,51.9590514 27.8787879,51.187958 L27.8787879,43.5588275 C28.7113412,43.7313408 29.5873945,43.562517 30.305965,43.125 Z M32.9473956,16.25 C30.4984564,16.25 28.5125281,14.2917858 28.5123967,11.8754537 C28.5123967,9.45730677 30.498325,7.5 32.9472642,7.5 C35.3969918,7.5 37.3829201,9.45730677 37.3829201,11.8754537 C37.3829201,12.4534808 37.2630943,13.001563 37.0568153,13.5062186 C35.5530807,13.9223359 34.2959611,14.8924984 33.5199841,16.1934806 C33.3307856,16.2172032 33.1435578,16.25 32.9473956,16.25 Z M7.10938489,40.4005233 C7.43171807,41.249467 8.07255812,41.9237804 8.91051883,42.2986723 C9.32283614,42.4841764 9.76154176,42.5745337 10.2001154,42.5852782 L10.2001154,48.5959754 C10.2001154,49.716638 9.27414971,50.625 8.1321957,50.625 C6.9899778,50.625 6.06414402,49.716638 6.06414402,48.5959754 C6.06414402,35.4205198 6.07021333,28.0312923 6.07021333,27.5444247 L3.29152453,33.5174516 C2.89939428,34.360311 1.8823889,34.7450412 1.0082762,34.3533207 C0.141948059,33.9657425 -0.239231046,32.9628809 0.156197745,32.1131605 L5.90225175,19.7604993 C6.26020915,18.9919451 6.99710264,18.75 7.87240281,18.75 L14.0369754,18.75 C14.0572944,18.75 14.5011457,18.8323312 14.584005,18.8580921 C14.6676559,20.0689825 15.1195557,21.1729458 15.8402204,22.0743174 L15.8402204,22.3112139 C14.8415549,22.5602788 13.9864418,23.2206114 13.5538055,24.1557699 L9.61917684,32.6129732 L7.20332727,37.8064424 C6.81911351,38.6305314 6.78586424,39.5517091 7.10938489,40.4005233 Z M11.4049587,42.4709504 C12.1793004,42.1526524 12.8446962,41.5914662 13.2046972,40.8352064 L13.3057851,40.625 L13.3057851,50.625 C12.2448278,50.5305152 11.4049587,49.705204 11.4049587,48.6677788 L11.4049587,42.4709504 Z M11.088761,18.125 C8.81330541,18.125 6.96969697,16.3067168 6.96969697,14.0625665 C6.96969697,11.8170859 8.81330541,10 11.088761,10 C13.363138,10 15.2066116,11.8170859 15.2066116,14.0625665 C15.2066116,16.3067168 13.363138,18.125 11.088761,18.125 Z M24.8731252,38.4680579 C24.5258061,39.224109 24.4439521,40.199055 24.7790129,41.0916536 C24.9791003,41.6252752 25.3131066,42.0785131 25.730285,42.445738 L25.730285,57.1075011 C25.730285,58.3599931 24.7083628,59.375 23.4473374,59.375 C22.1861802,59.375 21.1643898,58.3599931 21.1643898,57.1075011 L21.1643898,43.5910082 L19.4981808,43.5910082 L19.4981808,57.1075011 C19.4981808,58.3599931 18.4762586,59.375 17.2151014,59.375 C15.9538124,59.375 14.932022,58.3599931 14.932022,57.1075011 C14.932022,38.4188327 14.9380852,38.6204464 14.9380852,33.5787961 L11.8704733,40.2541715 C11.4323371,41.2098725 10.299431,41.6212167 9.35026783,41.1890565 C8.39398695,40.7555872 7.9728543,39.634275 8.40914509,38.6856435 L14.7534195,24.8804765 C15.1460813,24.0200837 15.9601392,23.75 16.9273603,23.75 C27.3238668,23.75 8.83436385,23.75 23.7331013,23.75 C24.6975544,23.75 25.5154348,24.0229639 25.9080965,24.8804765 L28.5123967,30.5480455 L26.4220234,35.0982298 L25.7243535,33.5808908 L25.7243535,36.6156998 L24.8731252,38.4680579 Z M62.5555998,32.4356984 C62.9904965,33.3843333 62.5707141,34.5056497 61.6170695,34.9388588 C60.6706535,35.3711515 59.5408948,34.9600676 59.1040267,34.0042321 L56.0452931,27.3288322 C56.0452931,31.3693678 56.0513388,38.3600193 56.0513388,50.8573618 C56.0513388,52.1099894 55.0323742,53.125 53.7749985,53.125 C52.51736,53.125 51.4983955,52.1099894 51.4983955,50.8573618 L51.4983955,42.1600577 C51.6767438,41.9131455 51.8347208,41.6514396 51.9435435,41.3596224 C52.2656746,40.5010593 52.2324232,39.5693128 51.8499665,38.736017 L45.5249738,24.9318466 C45.1321342,24.0781275 44.2138439,23.2719318 43.0853994,23.04217 L43.1085309,22.9909809 C43.80313,22.1726098 44.2783752,21.1757968 44.448575,20.0686196 L45.1069,18.6303497 C45.4986881,17.7717867 46.3051329,17.5 47.2757318,17.5 C57.6269027,17.5 39.263461,17.5 54.0617754,17.5 C55.0152885,17.5 55.8338247,17.7668118 56.2295557,18.6303497 L62.5555998,32.4356984 Z M45.7214823,41.469856 C46.4539071,43.0537975 48.4073079,43.8386953 50.0550964,43.2879315 L50.0550964,50.8350868 C50.0550964,52.1000189 49.0166575,53.125 47.7355502,53.125 C46.7896521,53.125 45.9831678,52.5627345 45.6219775,51.7617077 L45.6219775,41.3827333 L45.6198347,41.25 L45.7214823,41.469856 Z M50.688114,16.25 C48.2393424,16.25 46.2534435,14.2916562 46.2534435,11.8754537 C46.2534435,9.45730677 48.2393424,7.5 50.688114,7.5 C53.1380681,7.5 55.1239669,9.45730677 55.1239669,11.8754537 C55.1239669,14.2916562 53.1379367,16.25 50.688114,16.25 Z M44.2019232,25.5052188 L50.5171601,39.3106984 C50.9515852,40.2594643 50.5325113,41.3806497 49.5806073,41.8138588 C49.3261976,41.9302453 49.0587985,41.985231 48.7954669,41.985231 C48.0768482,41.985231 47.3893255,41.5750636 47.0716743,40.8792321 L44.0191524,34.2065815 L44.0191524,41.4018585 C44.0191524,41.4125938 44.0250567,41.4217581 44.0250567,41.4318388 L44.0250567,57.7323618 C44.0250567,58.9849894 43.007943,60 41.7524269,60 C40.4971732,60 39.4799283,58.9849894 39.4799283,57.7323618 L39.4799283,44.2159502 L37.8213454,44.2159502 L37.8213454,57.7323618 C37.8213454,58.9849894 36.8042317,60 35.5487156,60 C34.2934619,60 33.2760858,58.9849894 33.2760858,57.7323618 L33.2760858,41.4318388 C33.2760858,41.4216272 33.2822525,41.4125938 33.2822525,41.4018585 L33.2822525,34.2037013 L30.2286809,40.8791012 C29.7925501,41.8349367 28.664698,42.2461515 27.7198792,41.8137279 C26.7679752,41.3805188 26.34877,40.2593333 26.7829327,39.3105675 L33.0981696,25.5052188 C33.4892965,24.6487504 34.2945116,24.375 35.2624228,24.375 C45.6110823,24.375 27.2060741,24.375 42.0368828,24.375 C42.9978401,24.375 43.8098778,24.6487504 44.2019232,25.5052188 Z"/>
</svg>
