<svg xmlns="http://www.w3.org/2000/svg" width="52" height="75" viewBox="0 0 52 75">
  <path fill="#FFFEE7" fill-rule="evenodd" d="M2,0 L40,0 L52,12 L52,73 C52,74.1045695 51.1045695,75 50,75 L2,75 C0.8954305,75 1.3527075e-16,74.1045695 0,73 L0,2 C-1.3527075e-16,0.8954305 0.8954305,2.02906125e-16 2,0 Z M39,2 L39,13 L50,13 L39,2 Z M9.80664062,18.1738281 C9.80664062,18.6855494 9.85839792,19.1787086 9.96191406,19.6533203 C10.0654302,20.1279321 10.2333973,20.5498028 10.4658203,20.9189453 C10.6982433,21.2880878 11.0009747,21.5830067 11.3740234,21.8037109 C11.7470722,22.0244152 12.2011692,22.1347656 12.7363281,22.1347656 C13.2714871,22.1347656 13.7255841,22.0244152 14.0986328,21.8037109 C14.4716816,21.5830067 14.7734363,21.2880878 15.0039062,20.9189453 C15.2343762,20.5498028 15.4023432,20.1279321 15.5078125,19.6533203 C15.6132818,19.1787086 15.6660156,18.6855494 15.6660156,18.1738281 C15.6660156,17.6621068 15.6132818,17.1679711 15.5078125,16.6914062 C15.4023432,16.2148414 15.232423,15.7949237 14.9980469,15.4316406 C14.7636707,15.0683576 14.4599628,14.7763683 14.0869141,14.5556641 C13.7138653,14.3349598 13.2636745,14.2246094 12.7363281,14.2246094 C12.2089817,14.2246094 11.7587909,14.3349598 11.3857422,14.5556641 C11.0126934,14.7763683 10.7109387,15.0683576 10.4804688,15.4316406 C10.2499988,15.7949237 10.0800787,16.2148414 9.97070312,16.6914062 C9.86132758,17.1679711 9.80664062,17.6621068 9.80664062,18.1738281 Z M11.0195312,18.1738281 C11.0195312,17.2753861 11.1660142,16.5742213 11.4589844,16.0703125 C11.7519546,15.5664037 12.1777316,15.3144531 12.7363281,15.3144531 C13.0722673,15.3144531 13.3486317,15.3964836 13.5654297,15.5605469 C13.7822276,15.7246102 13.9570306,15.9394518 14.0898438,16.2050781 L11.0898438,19.2167969 C11.0429685,18.8808577 11.0195312,18.5332049 11.0195312,18.1738281 Z M12.7363281,21.0390625 C12.4003889,21.0390625 12.1279307,20.9628914 11.9189453,20.8105469 C11.7099599,20.6582024 11.5390632,20.4550794 11.40625,20.2011719 L14.3828125,17.2128906 C14.4296877,17.5253922 14.453125,17.8457015 14.453125,18.1738281 C14.453125,18.5175798 14.4267581,18.8613264 14.3740234,19.2050781 C14.3212888,19.5488298 14.2314459,19.856444 14.1044922,20.1279297 C13.9775384,20.3994154 13.803712,20.6191398 13.5830078,20.7871094 C13.3623036,20.955079 13.0800798,21.0390625 12.7363281,21.0390625 Z M18.9574218,18.1738281 C18.9574218,18.6855494 19.0091791,19.1787086 19.1126952,19.6533203 C19.2162114,20.1279321 19.3841784,20.5498028 19.6166015,20.9189453 C19.8490245,21.2880878 20.1517559,21.5830067 20.5248046,21.8037109 C20.8978533,22.0244152 21.3519504,22.1347656 21.8871093,22.1347656 C22.4222682,22.1347656 22.8763652,22.0244152 23.249414,21.8037109 C23.6224627,21.5830067 23.9242175,21.2880878 24.1546874,20.9189453 C24.3851573,20.5498028 24.5531244,20.1279321 24.6585937,19.6533203 C24.7640629,19.1787086 24.8167968,18.6855494 24.8167968,18.1738281 C24.8167968,17.6621068 24.7640629,17.1679711 24.6585937,16.6914062 C24.5531244,16.2148414 24.3832042,15.7949237 24.148828,15.4316406 C23.9144519,15.0683576 23.610744,14.7763683 23.2376952,14.5556641 C22.8646465,14.3349598 22.4144557,14.2246094 21.8871093,14.2246094 C21.3597629,14.2246094 20.9095721,14.3349598 20.5365233,14.5556641 C20.1634746,14.7763683 19.8617198,15.0683576 19.6312499,15.4316406 C19.40078,15.7949237 19.2308598,16.2148414 19.1214843,16.6914062 C19.0121087,17.1679711 18.9574218,17.6621068 18.9574218,18.1738281 Z M20.1703124,18.1738281 C20.1703124,17.2753861 20.3167953,16.5742213 20.6097655,16.0703125 C20.9027357,15.5664037 21.3285127,15.3144531 21.8871093,15.3144531 C22.2230485,15.3144531 22.4994129,15.3964836 22.7162108,15.5605469 C22.9330088,15.7246102 23.1078117,15.9394518 23.2406249,16.2050781 L20.2406249,19.2167969 C20.1937497,18.8808577 20.1703124,18.5332049 20.1703124,18.1738281 Z M21.8871093,21.0390625 C21.5511701,21.0390625 21.2787119,20.9628914 21.0697265,20.8105469 C20.860741,20.6582024 20.6898443,20.4550794 20.5570312,20.2011719 L23.5335937,17.2128906 C23.5804689,17.5253922 23.6039062,17.8457015 23.6039062,18.1738281 C23.6039062,18.5175798 23.5775392,18.8613264 23.5248046,19.2050781 C23.47207,19.5488298 23.3822271,19.856444 23.2552733,20.1279297 C23.1283196,20.3994154 22.9544932,20.6191398 22.733789,20.7871094 C22.5130847,20.955079 22.230861,21.0390625 21.8871093,21.0390625 Z M32.8601561,22 L32.8601561,20.9101562 L31.6355467,20.9101562 L31.6355467,14.3535156 L30.4226561,14.3535156 C30.4226561,14.7324238 30.3611332,15.0576158 30.2380857,15.3291016 C30.1150383,15.6005873 29.9539071,15.826171 29.7546873,16.0058594 C29.5554676,16.1855478 29.3298839,16.3193355 29.0779295,16.4072266 C28.8259751,16.4951176 28.5671886,16.5390625 28.3015623,16.5390625 L28.3015623,17.7519531 C28.5476573,17.7519531 28.7869127,17.7255862 29.0193357,17.6728516 C29.2517588,17.6201169 29.4626942,17.5439458 29.6521482,17.4443359 C29.8416023,17.3447261 30.0037101,17.2207039 30.1384764,17.0722656 C30.2732427,16.9238274 30.3679683,16.7539072 30.4226561,16.5625 L30.4226561,20.9101562 L29.1921873,20.9101562 L29.1921873,22 L32.8601561,22 Z M37.2589841,18.1738281 C37.2589841,18.6855494 37.3107414,19.1787086 37.4142575,19.6533203 C37.5177737,20.1279321 37.6857407,20.5498028 37.9181638,20.9189453 C38.1505868,21.2880878 38.4533182,21.5830067 38.8263669,21.8037109 C39.1994156,22.0244152 39.6535127,22.1347656 40.1886716,22.1347656 C40.7238305,22.1347656 41.1779275,22.0244152 41.5509763,21.8037109 C41.924025,21.5830067 42.2257798,21.2880878 42.4562497,20.9189453 C42.6867196,20.5498028 42.8546867,20.1279321 42.960156,19.6533203 C43.0656252,19.1787086 43.1183591,18.6855494 43.1183591,18.1738281 C43.1183591,17.6621068 43.0656252,17.1679711 42.960156,16.6914062 C42.8546867,16.2148414 42.6847665,15.7949237 42.4503903,15.4316406 C42.2160142,15.0683576 41.9123063,14.7763683 41.5392575,14.5556641 C41.1662088,14.3349598 40.716018,14.2246094 40.1886716,14.2246094 C39.6613252,14.2246094 39.2111344,14.3349598 38.8380857,14.5556641 C38.4650369,14.7763683 38.1632821,15.0683576 37.9328122,15.4316406 C37.7023423,15.7949237 37.5324221,16.2148414 37.4230466,16.6914062 C37.313671,17.1679711 37.2589841,17.6621068 37.2589841,18.1738281 Z M38.4718747,18.1738281 C38.4718747,17.2753861 38.6183576,16.5742213 38.9113278,16.0703125 C39.2042981,15.5664037 39.630075,15.3144531 40.1886716,15.3144531 C40.5246108,15.3144531 40.8009752,15.3964836 41.0177732,15.5605469 C41.2345711,15.7246102 41.409374,15.9394518 41.5421872,16.2050781 L38.5421872,19.2167969 C38.495312,18.8808577 38.4718747,18.5332049 38.4718747,18.1738281 Z M40.1886716,21.0390625 C39.8527324,21.0390625 39.5802742,20.9628914 39.3712888,20.8105469 C39.1623034,20.6582024 38.9914066,20.4550794 38.8585935,20.2011719 L41.835156,17.2128906 C41.8820312,17.5253922 41.9054685,17.8457015 41.9054685,18.1738281 C41.9054685,18.5175798 41.8791015,18.8613264 41.8263669,19.2050781 C41.7736323,19.5488298 41.6837894,19.856444 41.5568357,20.1279297 C41.4298819,20.3994154 41.2560555,20.6191398 41.0353513,20.7871094 C40.814647,20.955079 40.5324233,21.0390625 40.1886716,21.0390625 Z M9.80664062,32.1738281 C9.80664062,32.6855494 9.85839792,33.1787086 9.96191406,33.6533203 C10.0654302,34.1279321 10.2333973,34.5498028 10.4658203,34.9189453 C10.6982433,35.2880878 11.0009747,35.5830067 11.3740234,35.8037109 C11.7470722,36.0244152 12.2011692,36.1347656 12.7363281,36.1347656 C13.2714871,36.1347656 13.7255841,36.0244152 14.0986328,35.8037109 C14.4716816,35.5830067 14.7734363,35.2880878 15.0039062,34.9189453 C15.2343762,34.5498028 15.4023432,34.1279321 15.5078125,33.6533203 C15.6132818,33.1787086 15.6660156,32.6855494 15.6660156,32.1738281 C15.6660156,31.6621068 15.6132818,31.1679711 15.5078125,30.6914062 C15.4023432,30.2148414 15.232423,29.7949237 14.9980469,29.4316406 C14.7636707,29.0683576 14.4599628,28.7763683 14.0869141,28.5556641 C13.7138653,28.3349598 13.2636745,28.2246094 12.7363281,28.2246094 C12.2089817,28.2246094 11.7587909,28.3349598 11.3857422,28.5556641 C11.0126934,28.7763683 10.7109387,29.0683576 10.4804688,29.4316406 C10.2499988,29.7949237 10.0800787,30.2148414 9.97070312,30.6914062 C9.86132758,31.1679711 9.80664062,31.6621068 9.80664062,32.1738281 Z M11.0195312,32.1738281 C11.0195312,31.2753861 11.1660142,30.5742213 11.4589844,30.0703125 C11.7519546,29.5664037 12.1777316,29.3144531 12.7363281,29.3144531 C13.0722673,29.3144531 13.3486317,29.3964836 13.5654297,29.5605469 C13.7822276,29.7246102 13.9570306,29.9394518 14.0898438,30.2050781 L11.0898438,33.2167969 C11.0429685,32.8808577 11.0195312,32.5332049 11.0195312,32.1738281 Z M12.7363281,35.0390625 C12.4003889,35.0390625 12.1279307,34.9628914 11.9189453,34.8105469 C11.7099599,34.6582024 11.5390632,34.4550794 11.40625,34.2011719 L14.3828125,31.2128906 C14.4296877,31.5253922 14.453125,31.8457015 14.453125,32.1738281 C14.453125,32.5175798 14.4267581,32.8613264 14.3740234,33.2050781 C14.3212888,33.5488298 14.2314459,33.856444 14.1044922,34.1279297 C13.9775384,34.3994154 13.803712,34.6191398 13.5830078,34.7871094 C13.3623036,34.955079 13.0800798,35.0390625 12.7363281,35.0390625 Z M23.7093749,36 L23.7093749,34.9101562 L22.4847655,34.9101562 L22.4847655,28.3535156 L21.2718749,28.3535156 C21.2718749,28.7324238 21.2103521,29.0576158 21.0873046,29.3291016 C20.9642571,29.6005873 20.8031259,29.826171 20.6039062,30.0058594 C20.4046864,30.1855478 20.1791027,30.3193355 19.9271483,30.4072266 C19.675194,30.4951176 19.4164075,30.5390625 19.1507812,30.5390625 L19.1507812,31.7519531 C19.3968761,31.7519531 19.6361316,31.7255862 19.8685546,31.6728516 C20.1009776,31.6201169 20.311913,31.5439458 20.5013671,31.4443359 C20.6908212,31.3447261 20.8529289,31.2207039 20.9876952,31.0722656 C21.1224615,30.9238274 21.2171871,30.7539072 21.2718749,30.5625 L21.2718749,34.9101562 L20.0414062,34.9101562 L20.0414062,36 L23.7093749,36 Z M28.1082029,32.1738281 C28.1082029,32.6855494 28.1599602,33.1787086 28.2634764,33.6533203 C28.3669925,34.1279321 28.5349596,34.5498028 28.7673826,34.9189453 C28.9998057,35.2880878 29.302537,35.5830067 29.6755857,35.8037109 C30.0486345,36.0244152 30.5027315,36.1347656 31.0378904,36.1347656 C31.5730494,36.1347656 32.0271464,36.0244152 32.4001951,35.8037109 C32.7732439,35.5830067 33.0749987,35.2880878 33.3054686,34.9189453 C33.5359385,34.5498028 33.7039055,34.1279321 33.8093748,33.6533203 C33.9148441,33.1787086 33.9675779,32.6855494 33.9675779,32.1738281 C33.9675779,31.6621068 33.9148441,31.1679711 33.8093748,30.6914062 C33.7039055,30.2148414 33.5339854,29.7949237 33.2996092,29.4316406 C33.065233,29.0683576 32.7615251,28.7763683 32.3884764,28.5556641 C32.0154276,28.3349598 31.5652368,28.2246094 31.0378904,28.2246094 C30.510544,28.2246094 30.0603532,28.3349598 29.6873045,28.5556641 C29.3142558,28.7763683 29.012501,29.0683576 28.7820311,29.4316406 C28.5515612,29.7949237 28.381641,30.2148414 28.2722654,30.6914062 C28.1628899,31.1679711 28.1082029,31.6621068 28.1082029,32.1738281 Z M29.3210936,32.1738281 C29.3210936,31.2753861 29.4675765,30.5742213 29.7605467,30.0703125 C30.0535169,29.5664037 30.4792939,29.3144531 31.0378904,29.3144531 C31.3738296,29.3144531 31.650194,29.3964836 31.866992,29.5605469 C32.08379,29.7246102 32.2585929,29.9394518 32.3914061,30.2050781 L29.3914061,33.2167969 C29.3445308,32.8808577 29.3210936,32.5332049 29.3210936,32.1738281 Z M31.0378904,35.0390625 C30.7019513,35.0390625 30.429493,34.9628914 30.2205076,34.8105469 C30.0115222,34.6582024 29.8406255,34.4550794 29.7078123,34.2011719 L32.6843748,31.2128906 C32.73125,31.5253922 32.7546873,31.8457015 32.7546873,32.1738281 C32.7546873,32.5175798 32.7283204,32.8613264 32.6755857,33.2050781 C32.6228511,33.5488298 32.5330083,33.856444 32.4060545,34.1279297 C32.2791007,34.3994154 32.1052744,34.6191398 31.8845701,34.7871094 C31.6638659,34.955079 31.3816422,35.0390625 31.0378904,35.0390625 Z M42.0109372,36 L42.0109372,34.9101562 L40.7863278,34.9101562 L40.7863278,28.3535156 L39.5734372,28.3535156 C39.5734372,28.7324238 39.5119144,29.0576158 39.3888669,29.3291016 C39.2658194,29.6005873 39.1046882,29.826171 38.9054685,30.0058594 C38.7062487,30.1855478 38.480665,30.3193355 38.2287107,30.4072266 C37.9767563,30.4951176 37.7179698,30.5390625 37.4523435,30.5390625 L37.4523435,31.7519531 C37.6984384,31.7519531 37.9376939,31.7255862 38.1701169,31.6728516 C38.4025399,31.6201169 38.6134753,31.5439458 38.8029294,31.4443359 C38.9923835,31.3447261 39.1544912,31.2207039 39.2892575,31.0722656 C39.4240238,30.9238274 39.5187494,30.7539072 39.5734372,30.5625 L39.5734372,34.9101562 L38.3429685,34.9101562 L38.3429685,36 L42.0109372,36 Z M14.5585938,50 L14.5585938,48.9101562 L13.3339844,48.9101562 L13.3339844,42.3535156 L12.1210938,42.3535156 C12.1210938,42.7324238 12.0595709,43.0576158 11.9365234,43.3291016 C11.8134759,43.6005873 11.6523447,43.826171 11.453125,44.0058594 C11.2539053,44.1855478 11.0283216,44.3193355 10.7763672,44.4072266 C10.5244128,44.4951176 10.2656263,44.5390625 10,44.5390625 L10,45.7519531 C10.246095,45.7519531 10.4853504,45.7255862 10.7177734,45.6728516 C10.9501965,45.6201169 11.1611319,45.5439458 11.3505859,45.4443359 C11.54004,45.3447261 11.7021478,45.2207039 11.8369141,45.0722656 C11.9716804,44.9238274 12.066406,44.7539072 12.1210938,44.5625 L12.1210938,48.9101562 L10.890625,48.9101562 L10.890625,50 L14.5585938,50 Z M18.9574218,46.1738281 C18.9574218,46.6855494 19.0091791,47.1787086 19.1126952,47.6533203 C19.2162114,48.1279321 19.3841784,48.5498028 19.6166015,48.9189453 C19.8490245,49.2880878 20.1517559,49.5830067 20.5248046,49.8037109 C20.8978533,50.0244152 21.3519504,50.1347656 21.8871093,50.1347656 C22.4222682,50.1347656 22.8763652,50.0244152 23.249414,49.8037109 C23.6224627,49.5830067 23.9242175,49.2880878 24.1546874,48.9189453 C24.3851573,48.5498028 24.5531244,48.1279321 24.6585937,47.6533203 C24.7640629,47.1787086 24.8167968,46.6855494 24.8167968,46.1738281 C24.8167968,45.6621068 24.7640629,45.1679711 24.6585937,44.6914062 C24.5531244,44.2148414 24.3832042,43.7949237 24.148828,43.4316406 C23.9144519,43.0683576 23.610744,42.7763683 23.2376952,42.5556641 C22.8646465,42.3349598 22.4144557,42.2246094 21.8871093,42.2246094 C21.3597629,42.2246094 20.9095721,42.3349598 20.5365233,42.5556641 C20.1634746,42.7763683 19.8617198,43.0683576 19.6312499,43.4316406 C19.40078,43.7949237 19.2308598,44.2148414 19.1214843,44.6914062 C19.0121087,45.1679711 18.9574218,45.6621068 18.9574218,46.1738281 Z M20.1703124,46.1738281 C20.1703124,45.2753861 20.3167953,44.5742213 20.6097655,44.0703125 C20.9027357,43.5664037 21.3285127,43.3144531 21.8871093,43.3144531 C22.2230485,43.3144531 22.4994129,43.3964836 22.7162108,43.5605469 C22.9330088,43.7246102 23.1078117,43.9394518 23.2406249,44.2050781 L20.2406249,47.2167969 C20.1937497,46.8808577 20.1703124,46.5332049 20.1703124,46.1738281 Z M21.8871093,49.0390625 C21.5511701,49.0390625 21.2787119,48.9628914 21.0697265,48.8105469 C20.860741,48.6582024 20.6898443,48.4550794 20.5570312,48.2011719 L23.5335937,45.2128906 C23.5804689,45.5253922 23.6039062,45.8457015 23.6039062,46.1738281 C23.6039062,46.5175798 23.5775392,46.8613264 23.5248046,47.2050781 C23.47207,47.5488298 23.3822271,47.856444 23.2552733,48.1279297 C23.1283196,48.3994154 22.9544932,48.6191398 22.733789,48.7871094 C22.5130847,48.955079 22.230861,49.0390625 21.8871093,49.0390625 Z M28.1082029,46.1738281 C28.1082029,46.6855494 28.1599602,47.1787086 28.2634764,47.6533203 C28.3669925,48.1279321 28.5349596,48.5498028 28.7673826,48.9189453 C28.9998057,49.2880878 29.302537,49.5830067 29.6755857,49.8037109 C30.0486345,50.0244152 30.5027315,50.1347656 31.0378904,50.1347656 C31.5730494,50.1347656 32.0271464,50.0244152 32.4001951,49.8037109 C32.7732439,49.5830067 33.0749987,49.2880878 33.3054686,48.9189453 C33.5359385,48.5498028 33.7039055,48.1279321 33.8093748,47.6533203 C33.9148441,47.1787086 33.9675779,46.6855494 33.9675779,46.1738281 C33.9675779,45.6621068 33.9148441,45.1679711 33.8093748,44.6914062 C33.7039055,44.2148414 33.5339854,43.7949237 33.2996092,43.4316406 C33.065233,43.0683576 32.7615251,42.7763683 32.3884764,42.5556641 C32.0154276,42.3349598 31.5652368,42.2246094 31.0378904,42.2246094 C30.510544,42.2246094 30.0603532,42.3349598 29.6873045,42.5556641 C29.3142558,42.7763683 29.012501,43.0683576 28.7820311,43.4316406 C28.5515612,43.7949237 28.381641,44.2148414 28.2722654,44.6914062 C28.1628899,45.1679711 28.1082029,45.6621068 28.1082029,46.1738281 Z M29.3210936,46.1738281 C29.3210936,45.2753861 29.4675765,44.5742213 29.7605467,44.0703125 C30.0535169,43.5664037 30.4792939,43.3144531 31.0378904,43.3144531 C31.3738296,43.3144531 31.650194,43.3964836 31.866992,43.5605469 C32.08379,43.7246102 32.2585929,43.9394518 32.3914061,44.2050781 L29.3914061,47.2167969 C29.3445308,46.8808577 29.3210936,46.5332049 29.3210936,46.1738281 Z M31.0378904,49.0390625 C30.7019513,49.0390625 30.429493,48.9628914 30.2205076,48.8105469 C30.0115222,48.6582024 29.8406255,48.4550794 29.7078123,48.2011719 L32.6843748,45.2128906 C32.73125,45.5253922 32.7546873,45.8457015 32.7546873,46.1738281 C32.7546873,46.5175798 32.7283204,46.8613264 32.6755857,47.2050781 C32.6228511,47.5488298 32.5330083,47.856444 32.4060545,48.1279297 C32.2791007,48.3994154 32.1052744,48.6191398 31.8845701,48.7871094 C31.6638659,48.955079 31.3816422,49.0390625 31.0378904,49.0390625 Z M37.2589841,46.1738281 C37.2589841,46.6855494 37.3107414,47.1787086 37.4142575,47.6533203 C37.5177737,48.1279321 37.6857407,48.5498028 37.9181638,48.9189453 C38.1505868,49.2880878 38.4533182,49.5830067 38.8263669,49.8037109 C39.1994156,50.0244152 39.6535127,50.1347656 40.1886716,50.1347656 C40.7238305,50.1347656 41.1779275,50.0244152 41.5509763,49.8037109 C41.924025,49.5830067 42.2257798,49.2880878 42.4562497,48.9189453 C42.6867196,48.5498028 42.8546867,48.1279321 42.960156,47.6533203 C43.0656252,47.1787086 43.1183591,46.6855494 43.1183591,46.1738281 C43.1183591,45.6621068 43.0656252,45.1679711 42.960156,44.6914062 C42.8546867,44.2148414 42.6847665,43.7949237 42.4503903,43.4316406 C42.2160142,43.0683576 41.9123063,42.7763683 41.5392575,42.5556641 C41.1662088,42.3349598 40.716018,42.2246094 40.1886716,42.2246094 C39.6613252,42.2246094 39.2111344,42.3349598 38.8380857,42.5556641 C38.4650369,42.7763683 38.1632821,43.0683576 37.9328122,43.4316406 C37.7023423,43.7949237 37.5324221,44.2148414 37.4230466,44.6914062 C37.313671,45.1679711 37.2589841,45.6621068 37.2589841,46.1738281 Z M38.4718747,46.1738281 C38.4718747,45.2753861 38.6183576,44.5742213 38.9113278,44.0703125 C39.2042981,43.5664037 39.630075,43.3144531 40.1886716,43.3144531 C40.5246108,43.3144531 40.8009752,43.3964836 41.0177732,43.5605469 C41.2345711,43.7246102 41.409374,43.9394518 41.5421872,44.2050781 L38.5421872,47.2167969 C38.495312,46.8808577 38.4718747,46.5332049 38.4718747,46.1738281 Z M40.1886716,49.0390625 C39.8527324,49.0390625 39.5802742,48.9628914 39.3712888,48.8105469 C39.1623034,48.6582024 38.9914066,48.4550794 38.8585935,48.2011719 L41.835156,45.2128906 C41.8820312,45.5253922 41.9054685,45.8457015 41.9054685,46.1738281 C41.9054685,46.5175798 41.8791015,46.8613264 41.8263669,47.2050781 C41.7736323,47.5488298 41.6837894,47.856444 41.5568357,48.1279297 C41.4298819,48.3994154 41.2560555,48.6191398 41.0353513,48.7871094 C40.814647,48.955079 40.5324233,49.0390625 40.1886716,49.0390625 Z M14.5585938,64 L14.5585938,62.9101563 L13.3339844,62.9101563 L13.3339844,56.3535156 L12.1210938,56.3535156 C12.1210938,56.7324238 12.0595709,57.0576158 11.9365234,57.3291016 C11.8134759,57.6005873 11.6523447,57.826171 11.453125,58.0058594 C11.2539053,58.1855478 11.0283216,58.3193355 10.7763672,58.4072266 C10.5244128,58.4951176 10.2656263,58.5390625 10,58.5390625 L10,59.7519531 C10.246095,59.7519531 10.4853504,59.7255862 10.7177734,59.6728516 C10.9501965,59.6201169 11.1611319,59.5439458 11.3505859,59.4443359 C11.54004,59.3447261 11.7021478,59.2207039 11.8369141,59.0722656 C11.9716804,58.9238274 12.066406,58.7539072 12.1210938,58.5625 L12.1210938,62.9101563 L10.890625,62.9101563 L10.890625,64 L14.5585938,64 Z M18.9574218,60.1738281 C18.9574218,60.6855494 19.0091791,61.1787086 19.1126952,61.6533203 C19.2162114,62.1279321 19.3841784,62.5498028 19.6166015,62.9189453 C19.8490245,63.2880878 20.1517559,63.5830067 20.5248046,63.8037109 C20.8978533,64.0244152 21.3519504,64.1347656 21.8871093,64.1347656 C22.4222682,64.1347656 22.8763652,64.0244152 23.249414,63.8037109 C23.6224627,63.5830067 23.9242175,63.2880878 24.1546874,62.9189453 C24.3851573,62.5498028 24.5531244,62.1279321 24.6585937,61.6533203 C24.7640629,61.1787086 24.8167968,60.6855494 24.8167968,60.1738281 C24.8167968,59.6621068 24.7640629,59.1679711 24.6585937,58.6914063 C24.5531244,58.2148414 24.3832042,57.7949237 24.148828,57.4316406 C23.9144519,57.0683576 23.610744,56.7763683 23.2376952,56.5556641 C22.8646465,56.3349598 22.4144557,56.2246094 21.8871093,56.2246094 C21.3597629,56.2246094 20.9095721,56.3349598 20.5365233,56.5556641 C20.1634746,56.7763683 19.8617198,57.0683576 19.6312499,57.4316406 C19.40078,57.7949237 19.2308598,58.2148414 19.1214843,58.6914063 C19.0121087,59.1679711 18.9574218,59.6621068 18.9574218,60.1738281 Z M20.1703124,60.1738281 C20.1703124,59.2753861 20.3167953,58.5742213 20.6097655,58.0703125 C20.9027357,57.5664037 21.3285127,57.3144531 21.8871093,57.3144531 C22.2230485,57.3144531 22.4994129,57.3964836 22.7162108,57.5605469 C22.9330088,57.7246102 23.1078117,57.9394518 23.2406249,58.2050781 L20.2406249,61.2167969 C20.1937497,60.8808577 20.1703124,60.5332049 20.1703124,60.1738281 Z M21.8871093,63.0390625 C21.5511701,63.0390625 21.2787119,62.9628914 21.0697265,62.8105469 C20.860741,62.6582024 20.6898443,62.4550794 20.5570312,62.2011719 L23.5335937,59.2128906 C23.5804689,59.5253922 23.6039062,59.8457015 23.6039062,60.1738281 C23.6039062,60.5175798 23.5775392,60.8613264 23.5248046,61.2050781 C23.47207,61.5488298 23.3822271,61.856444 23.2552733,62.1279297 C23.1283196,62.3994154 22.9544932,62.6191398 22.733789,62.7871094 C22.5130847,62.955079 22.230861,63.0390625 21.8871093,63.0390625 Z M32.8601561,64 L32.8601561,62.9101563 L31.6355467,62.9101563 L31.6355467,56.3535156 L30.4226561,56.3535156 C30.4226561,56.7324238 30.3611332,57.0576158 30.2380857,57.3291016 C30.1150383,57.6005873 29.9539071,57.826171 29.7546873,58.0058594 C29.5554676,58.1855478 29.3298839,58.3193355 29.0779295,58.4072266 C28.8259751,58.4951176 28.5671886,58.5390625 28.3015623,58.5390625 L28.3015623,59.7519531 C28.5476573,59.7519531 28.7869127,59.7255862 29.0193357,59.6728516 C29.2517588,59.6201169 29.4626942,59.5439458 29.6521482,59.4443359 C29.8416023,59.3447261 30.0037101,59.2207039 30.1384764,59.0722656 C30.2732427,58.9238274 30.3679683,58.7539072 30.4226561,58.5625 L30.4226561,62.9101563 L29.1921873,62.9101563 L29.1921873,64 L32.8601561,64 Z M37.2589841,60.1738281 C37.2589841,60.6855494 37.3107414,61.1787086 37.4142575,61.6533203 C37.5177737,62.1279321 37.6857407,62.5498028 37.9181638,62.9189453 C38.1505868,63.2880878 38.4533182,63.5830067 38.8263669,63.8037109 C39.1994156,64.0244152 39.6535127,64.1347656 40.1886716,64.1347656 C40.7238305,64.1347656 41.1779275,64.0244152 41.5509763,63.8037109 C41.924025,63.5830067 42.2257798,63.2880878 42.4562497,62.9189453 C42.6867196,62.5498028 42.8546867,62.1279321 42.960156,61.6533203 C43.0656252,61.1787086 43.1183591,60.6855494 43.1183591,60.1738281 C43.1183591,59.6621068 43.0656252,59.1679711 42.960156,58.6914063 C42.8546867,58.2148414 42.6847665,57.7949237 42.4503903,57.4316406 C42.2160142,57.0683576 41.9123063,56.7763683 41.5392575,56.5556641 C41.1662088,56.3349598 40.716018,56.2246094 40.1886716,56.2246094 C39.6613252,56.2246094 39.2111344,56.3349598 38.8380857,56.5556641 C38.4650369,56.7763683 38.1632821,57.0683576 37.9328122,57.4316406 C37.7023423,57.7949237 37.5324221,58.2148414 37.4230466,58.6914063 C37.313671,59.1679711 37.2589841,59.6621068 37.2589841,60.1738281 Z M38.4718747,60.1738281 C38.4718747,59.2753861 38.6183576,58.5742213 38.9113278,58.0703125 C39.2042981,57.5664037 39.630075,57.3144531 40.1886716,57.3144531 C40.5246108,57.3144531 40.8009752,57.3964836 41.0177732,57.5605469 C41.2345711,57.7246102 41.409374,57.9394518 41.5421872,58.2050781 L38.5421872,61.2167969 C38.495312,60.8808577 38.4718747,60.5332049 38.4718747,60.1738281 Z M40.1886716,63.0390625 C39.8527324,63.0390625 39.5802742,62.9628914 39.3712888,62.8105469 C39.1623034,62.6582024 38.9914066,62.4550794 38.8585935,62.2011719 L41.835156,59.2128906 C41.8820312,59.5253922 41.9054685,59.8457015 41.9054685,60.1738281 C41.9054685,60.5175798 41.8791015,60.8613264 41.8263669,61.2050781 C41.7736323,61.5488298 41.6837894,61.856444 41.5568357,62.1279297 C41.4298819,62.3994154 41.2560555,62.6191398 41.0353513,62.7871094 C40.814647,62.955079 40.5324233,63.0390625 40.1886716,63.0390625 Z"/>
</svg>
