<svg xmlns="http://www.w3.org/2000/svg" xmlns:xlink="http://www.w3.org/1999/xlink" width="162" height="134" viewBox="0 0 162 134">
  <defs>
    <path id="docs+crowd-a" d="M121.458589,73.4978044 C120.770769,73.276305 120.033344,73.1561427 119.266227,73.1561427 C116.143564,73.1561427 113.512905,75.1472503 112.717444,77.859686 C112.29889,76.270074 112.595348,77.8705532 111.98235,71.7005193 C111.809691,70.1284968 110.397823,68.9943037 108.82882,69.1672305 C107.259818,69.3401484 106.127822,70.7547058 106.30048,72.3267283 C106.789417,76.5970542 107.212303,80.129069 107.585692,82.9901328 C106.899394,82.6963078 106.143648,82.5336466 105.349929,82.5336466 C104.056768,82.5336466 102.864402,82.9654193 101.908958,83.6927483 C101.181212,83.5813684 100.383492,83.5037006 99.5138209,83.4788936 C100.555439,82.3234464 101.208926,80.8905558 101.208926,79.3066553 C101.208926,76.1610754 98.6315232,73.6110902 95.4522404,73.6110902 C92.5578018,73.6110902 90.1622874,75.7244805 89.7561477,78.4766605 C89.4648553,76.5115878 89.1823128,74.2637657 88.9267339,71.7348863 C88.748801,70.1416865 87.2932761,68.9922123 85.6758494,69.1674643 C84.0583089,69.3427129 82.8913422,70.7763239 83.0692751,72.3695237 C83.4702458,76.2832372 84.0445252,80.2583485 84.6522047,83.9992088 C83.6324288,83.0884984 82.2790564,82.5336466 80.7941157,82.5336466 C77.620796,82.5336466 75.0482167,85.0675288 75.0482167,88.1932792 C75.0482167,90.8840556 76.9547695,93.1363066 79.5098435,93.7109139 L24.8007207,103.182665 L0,104.096491 L0,0 L117.781917,0 C119.892326,30.5518917 121.117884,55.0511599 121.458589,73.4978044 Z"/>
    <path id="docs+crowd-c" d="M82.7739648,29.7922429 L57.7708245,34.019727 L57.696554,46.7190111 L55.9131661,47.0072164 L52.8653343,45.0649486 L45.5185833,48.5198725 L16.6179984,53.3461549 L6.24160604,54.2918781 L5.02677644,117.788897 C5.02677644,117.788897 -3.50407326,4.36540442 2.23744986,0.628539362 C7.97890591,-3.10832569 129.454891,17.6222577 129.454891,17.6222577 L82.7739648,29.7922429 Z"/>
    <path id="docs+crowd-e" d="M82.7739648,29.7922429 L57.7708245,34.019727 L57.696554,46.7190111 L57.696554,48.2067194 C59.5430094,49.101547 60.8018276,49.6462557 61.4730085,49.8408455 C62.0990638,50.0223525 65.9499231,50.8876213 73.0255865,52.4366521 L73.0255913,52.4366299 C73.9472408,52.6384009 74.6025385,53.4568185 74.5978669,54.4002842 L74.3264558,109.214093 C74.3264558,109.214093 119.160453,108.04858 124.901976,104.311715 C130.643432,100.57485 129.454891,17.6222577 129.454891,17.6222577 L82.7739648,29.7922429 Z"/>
    <path id="docs+crowd-g" d="M12.6520704,45.225994 C12.9946272,45.505055 13.6077227,45.8048851 14.0101717,45.8429753 C15.41989,45.9761708 16.5593973,45.4069827 16.7144122,44.1960346 L17.1740496,41.422185 L16.7045804,54.1304435 C16.5293283,54.201171 16.3414587,54.2493651 16.1442489,54.2710164 C14.9931893,54.397075 13.9574076,53.5701565 13.830823,52.4240019 L12.6520704,45.225994 Z M12.0035803,40.8514733 L11.4519336,37.3577588 L10.6229477,42.6085949 C9.59880041,35.2319239 8.6510135,29.6729178 7.77966895,25.931657 C7.51527508,24.7754787 6.66826426,24.0048535 5.67156408,23.5104826 C5.62256887,22.4686551 4.56794291,20.9960474 3.63080713,19.6128514 C3.68144098,19.0627485 3.70012142,18.5457641 3.70012142,18.0687944 C3.70012142,16.3751031 2.52612085,14.7556676 1.21635931,13.8724558 C0.823742184,11.4530456 0.631284417,7.6849211 0.0127813587,2.31629395 C-0.113885184,1.17013136 0.716575407,0.138776681 1.86763508,0.0127020838 C3.01869475,-0.113378929 4.0544764,0.713562013 4.18114294,1.8597246 C4.91762778,9.22697332 5.53850686,13.2381535 6.04353439,13.8931448 C6.40739345,14.3649823 6.72250311,14.645647 6.98886335,14.735139 C7.75500748,14.7294455 10.6993901,14.7301672 15.8220112,14.7373041 C16.0897643,14.650298 16.4070861,14.3689918 16.7739766,13.8931448 C17.2790861,13.2381535 17.8998833,9.22697332 18.63645,1.8597246 C18.7630346,0.713562013 19.7988163,-0.113378929 20.949876,0.0127020838 C22.1009356,0.138776681 22.9313962,1.17013136 22.8048116,2.31629395 C22.3776193,6.53161359 21.8727556,10.421322 21.2902206,13.985283 C19.6431459,14.8040221 18.500689,16.5928187 18.500689,18.6676528 C18.500689,19.2394871 18.5874548,19.7895098 18.7477134,20.3036074 C17.9333114,21.5086214 17.1793751,22.6266293 17.0427129,23.5422378 C15.8220112,24.0605053 14.6995457,24.9711421 14.3959885,26.4702927 C13.6260755,30.2038553 12.8285514,34.9976089 12.0035803,40.8514733 Z M5.26551014,43.0640737 C5.35481579,43.4214 5.44666132,43.7872264 5.54096481,44.1614728 C6.28465964,45.4006477 7.11462864,45.724615 8.56039695,45.6036886 C9.28401849,45.5431452 10.0366439,45.0255994 10.3899337,44.5362805 L9.11466549,52.1612195 C8.98799894,53.3073741 7.95221729,54.1342926 6.80115762,54.008234 C5.65017988,53.8821755 4.81963736,52.8507727 4.9463039,51.7046181 L5.26551014,43.0640737 Z M6.98886335,14.735139 C7.09226126,14.7698612 7.18828531,14.7757151 7.27693551,14.7528609 L6.98886335,14.735139 Z M11.4704502,13.7551379 C8.95006453,13.7551379 6.90693156,11.7206394 6.90693156,9.21101553 C6.90693156,6.70136763 8.95006453,4.66690919 11.4704502,4.66690919 C13.9908358,4.66690919 16.0339687,6.70136763 16.0339687,9.21101553 C16.0339687,11.7206394 13.9908358,13.7551379 11.4704502,13.7551379 Z"/>
    <path id="docs+crowd-i" d="M21.2850589,22.7032107 C20.9393068,22.7127533 20.7385739,22.7185269 20.6828603,22.7204515 C20.6361591,22.7221355 20.573891,22.7284705 20.4960558,22.7393763 C19.1379545,22.7978348 16.5208894,23.5681392 16.082882,26.0651732 C15.3516408,30.158949 14.6874198,35.2609526 13.5937943,42.3842235 C13.3397239,44.0392633 14.5353544,44.8596063 15.5812956,45.0295287 C16.2411742,45.1367426 17.2158348,44.9963301 17.7899308,44.4506377 L18.0739064,52.1054875 C18.2010645,53.2516421 17.3670808,54.2829647 16.2112691,54.4090233 C15.0554574,54.535162 14.0154153,53.7081633 13.8882572,52.5620088 L11.4995359,37.4958458 L11.2852024,38.8476875 C10.5746899,33.9098326 9.8642594,29.8049105 9.15374695,26.5330814 C8.77309187,24.7478131 7.19033361,23.8153647 5.68557441,23.3899572 C5.60274138,22.6324832 5.08329385,21.7586536 4.4503708,20.8136153 C4.77252658,20.1318406 4.95400549,19.3609749 4.95400549,18.5448018 C4.95400549,16.2218601 3.48382151,14.2663487 1.48468591,13.6852123 C0.920421693,10.2032856 0.429732222,6.41360609 0.0127813587,2.31629395 C-0.114376774,1.17013136 0.719606883,0.138776681 1.8754186,0.0127020838 C3.03123032,-0.113378929 4.07135435,0.713562013 4.19851248,1.8597246 C4.93811072,9.22697332 5.56144776,13.2381535 6.06868745,13.8931448 C6.46196002,14.4010677 6.79853581,14.687426 7.07833286,14.7522996 C7.42457659,14.742757 10.4319648,14.7020205 16.1005793,14.63001 C17.4243512,14.6404347 20.0196224,15.3772197 20.4727872,17.9612598 C20.7279227,19.3877583 20.9982976,20.9684621 21.2850589,22.7032107 Z M6.66097233,54.1211414 L6.22755318,42.4383517 C6.23337034,41.8383707 6.23828625,41.2628476 6.24238284,40.7115419 C6.44483628,41.7669215 6.66343029,42.9065807 6.89816486,44.1305195 C7.05793184,45.3155662 8.36507157,46.1704709 9.81772215,46.0401623 C9.93381949,46.0297376 10.0457383,46.0117751 10.1533147,45.9869162 L9.15251797,52.2992264 C9.02535984,53.445381 7.98531774,54.2723796 6.82942409,54.1462409 C6.7724815,54.1400663 6.71627629,54.1316463 6.66097233,54.1211414 Z M11.5180525,13.8931448 C8.98726156,13.8931448 6.93560768,11.8587264 6.93560768,9.34902238 C6.93560768,6.83942261 8.98726156,4.80496416 11.5180525,4.80496416 C14.0489254,4.80496416 16.1005793,6.83942261 16.1005793,9.34902238 C16.1005793,11.8587264 14.0489254,13.8931448 11.5180525,13.8931448 Z"/>
    <path id="docs+crowd-k" d="M15.7640035,14.7276813 C15.9040249,14.7259171 16.045685,14.7241529 16.1891475,14.7223086 C16.2320798,14.7209453 16.2767326,14.720384 16.3229422,14.7206246 L16.3285955,14.7205444 C16.9160464,14.7251152 17.7490468,14.868174 18.5405898,15.2428214 C17.6795687,16.157628 17.1537305,17.3794017 17.1537305,18.72138 C17.1537305,20.8382336 18.4621811,22.6558986 20.3305536,23.4415995 C19.035212,23.4586799 18.1192966,23.4712698 17.5828072,23.4795293 C17.4958776,23.3788108 17.406572,23.2683091 17.3147264,23.1481044 C16.7841362,22.4532587 16.2672285,19.646451 15.7640035,14.7276813 Z M10.6855436,15.3713658 C11.0330983,18.6662094 11.5065001,21.7853568 12.2206995,25.8388772 C12.6287198,28.1979044 15.5380356,30.8825026 15.8975523,32.6248693 C15.9498248,35.5093008 15.6549523,41.5507295 15.6549523,41.5507295 L15.1684413,54.4962699 C14.5795976,54.1769536 14.1528969,53.5921285 14.0737507,52.8873393 L11.9672845,37.9763438 L9.24673953,52.6229531 C9.11720537,53.7761644 8.05708998,54.608215 6.87899282,54.4813546 C5.70089566,54.3544941 4.8509353,53.3167563 4.98055139,52.163545 L5.25928333,45.3767511 C5.82371141,45.7151526 6.62492235,46.0197941 7.28586607,45.9605337 C8.75244506,45.8291826 9.61944722,44.3296311 9.45812354,43.1348012 C8.19678368,36.2215477 7.63038924,31.194682 6.70242982,26.9272951 C6.55593578,26.2412703 6.20076149,25.6801012 5.72490167,25.2245422 L5.72490167,23.7414296 C5.72490167,21.7642669 2.71915214,19.1353204 2.21428847,16.293149 C1.46887307,12.1740332 0.90149545,8.06838931 0.381228604,3.02137187 C0.251612517,1.86811247 1.10157287,0.830382693 2.27967004,0.70352063 C3.4577672,0.576662578 4.51788259,1.40872044 4.64749867,2.56197984 C5.40135304,9.97482455 6.18830786,13.0640611 6.40075698,13.8684463 C6.86178714,15.6145818 8.68829247,15.3976681 10.6855436,15.3713658 Z M10.5153713,14.195541 C8.83445878,13.5489696 7.50052735,11.9461334 7.50052735,10.071293 C7.50052735,7.6248829 9.52645465,5.64167384 12.025538,5.64167384 C14.5247033,5.64167384 16.5506306,7.6248829 16.5506306,10.071293 C16.5506306,11.1071865 16.187345,12.0600833 15.5786738,12.8145101 C15.5374621,12.3660079 15.5173888,12.2154112 15.476341,11.738201 C15.3395149,10.1465112 13.8480287,9.10508464 12.3900525,9.26634657 C10.9321583,9.42752832 10.1028448,10.5234038 10.2631853,11.9892756 C10.3186531,12.6977536 10.4404037,13.4468076 10.5153713,14.195541 Z"/>
  </defs>
  <g fill="none" fill-rule="evenodd" transform="translate(-6)">
    <mask id="docs+crowd-b" fill="#fff">
      <use xlink:href="#docs+crowd-a"/>
    </mask>
    <use fill="#D8D8D8" fill-opacity="0" xlink:href="#docs+crowd-a"/>
    <g mask="url(#docs+crowd-b)">
      <g transform="translate(-3.02 -14.127)">
        <g>
          <mask id="docs+crowd-d" fill="#fff">
            <use xlink:href="#docs+crowd-c"/>
          </mask>
          <g fill="#FFF" fill-rule="nonzero" mask="url(#docs+crowd-d)">
            <g transform="translate(17.324 13.618)">
              <path d="M63.6424469,6.96954774 L52.795814,4.34412809 C48.7073,3.23311845 43.4232479,0.216936226 43.3709399,0.186603578 C43.1158828,0.0405854244 42.7510126,-0.0254873045 42.3937985,0.00895985547 C42.036808,0.0442299613 41.7327401,0.176375582 41.5785547,0.363894819 C39.7610213,2.56486983 34.4747338,3.21736548 34.3520113,3.23311845 L0.816976283,8.49756457 C0.385435764,8.56570763 0.0673967712,8.77373188 0.00972391226,9.02636777 C-0.0493460605,9.27922154 0.164524125,9.52788106 0.548730428,9.65686808 L18.4829777,15.6645692 C18.6551021,15.7221449 18.8494686,15.751886 19.0454557,15.751886 C19.1519158,15.751886 19.2599965,15.7432251 19.3645565,15.7251953 L63.5267659,8.16104354 C63.9766365,8.08429408 64.2923842,7.85502619 64.3175323,7.58790105 C64.343798,7.32083038 64.0733168,7.07369604 63.6424469,6.96954774 Z M19.1899732,14.4300959 L3.94662303,9.32356083 L34.8698376,4.46757542 C35.1055586,4.44030186 40.1638931,3.82424722 42.829251,1.65254813 C44.6445489,2.62717905 48.5172926,4.58820116 51.8848957,5.50226593 L59.9378599,7.45117917 L19.1899732,14.4300959 Z"/>
              <path d="M62.8885643,9.36773671 L19.1906438,16.9277487 L1.67430121,11.0009913 C1.14602453,10.8215642 0.463730023,10.9242963 0.153235445,11.2292242 C-0.157817978,11.5344245 0.0198390164,11.9277042 0.548953966,12.106532 L18.9009942,18.3161567 L63.526207,10.5958369 C64.1146714,10.4940853 64.448861,10.1367564 64.271707,9.79734846 C64.0956706,9.45892095 63.4759109,9.26789161 62.8885643,9.36773671 Z"/>
              <path d="M62.8885643,11.9324976 L19.1906438,19.4920738 L1.67430121,13.5652074 C1.14602453,13.3854536 0.463730023,13.4887303 0.153235445,13.7938217 C-0.157817978,14.0987496 0.0198390164,14.4920293 0.548953966,14.671184 L18.9009942,20.8804273 L63.526207,13.1604344 C64.1146714,13.0586284 64.448861,12.7014629 64.271707,12.3620004 C64.0956706,12.0234639 63.4759109,11.8313452 62.8885643,11.9324976 Z"/>
              <path d="M62.8885643,14.496387 L19.1906438,22.0564534 L1.67430121,16.1294781 C1.14602453,15.9497242 0.463730023,16.0536002 0.153235445,16.3579289 C-0.157817978,16.6629113 0.0198390164,17.0562999 0.548953966,17.2353457 L18.9009942,23.444698 L63.526207,15.7243238 C64.1146714,15.622899 64.448861,15.2653522 64.271707,14.9258898 C64.0956706,14.5877891 63.4759109,14.3961606 62.8885643,14.496387 Z"/>
              <path d="M62.8885643,17.060821 L19.1906438,24.6206151 L1.67430121,18.6939121 C1.14602453,18.5141038 0.463730023,18.617435 0.153235445,18.9224719 C-0.157817978,19.2273998 0.0198390164,19.6206795 0.548953966,19.7997253 L18.9009942,26.0089686 L63.526207,18.2887578 C64.1146714,18.1873331 64.448861,17.8298407 64.271707,17.4903238 C64.0956706,17.1522776 63.4759109,16.9600499 62.8885643,17.060821 Z"/>
              <path d="M62.8885643,19.442124 L19.1906438,27.0017002 L1.67430121,21.0748339 C1.14602453,20.89508 0.463730023,20.9983567 0.153235445,21.3034481 C-0.157817978,21.608376 0.0198390164,22.0016557 0.548953966,22.1808104 L18.9009942,28.3900537 L63.526207,20.6700608 C64.1146714,20.5683092 64.448861,20.2110893 64.271707,19.8716268 C64.0956706,19.5330904 63.4759109,19.3409716 62.8885643,19.442124 Z"/>
              <path d="M62.8885643,22.0060134 L19.1906438,29.5660798 L1.67430121,23.6391045 C1.14602453,23.4593506 0.463730023,23.5632266 0.153235445,23.8675553 C-0.157817978,24.1725377 0.0198390164,24.5659263 0.548953966,24.7449721 L18.9009942,30.9543244 L63.526207,23.2339502 C64.1146714,23.1325254 64.448861,22.7749786 64.271707,22.4355162 C64.0956706,22.0974155 63.4759109,21.905787 62.8885643,22.0060134 Z"/>
              <path d="M62.8885643,24.5705019 L19.1906438,32.1302415 L1.67430121,26.2035386 C1.14602453,26.0237302 0.463730023,26.1270615 0.153235445,26.4320983 C-0.157817978,26.7370263 0.0198390164,27.1303059 0.548953966,27.3093517 L18.9009942,33.518595 L63.526207,25.7983842 C64.1146714,25.6969595 64.448861,25.3394672 64.271707,24.9999502 C64.0956706,24.661904 63.4759109,24.4696763 62.8885643,24.5705019 Z"/>
              <path d="M62.8885643,27.4503768 L19.1906438,35.009953 L1.67430121,29.0830866 C1.14602453,28.9032783 0.463730023,29.0066095 0.153235445,29.3116464 C-0.157817978,29.6165743 0.0198390164,30.009854 0.548953966,30.1890631 L18.9009942,36.3983065 L63.526207,28.6782591 C64.1146714,28.5765075 64.448861,28.219342 64.271707,27.8798251 C64.0956706,27.5412886 63.4759109,27.3491699 62.8885643,27.4503768 Z"/>
              <path d="M62.8885643,30.0142116 L19.1906438,37.5742781 L1.67430121,31.6473573 C1.14602453,31.4675489 0.463730023,31.5714793 0.153235445,31.8758081 C-0.157817978,32.180736 0.0198390164,32.5741791 0.548953966,32.7532248 L18.9009942,38.9625771 L63.526207,31.2422029 C64.1146714,31.1407782 64.448861,30.7832314 64.271707,30.4437144 C64.0956706,30.1056682 63.4759109,29.9139852 62.8885643,30.0142116 Z"/>
              <path d="M62.8885643,32.5787002 L19.1906438,40.1384943 L1.67430121,34.2117368 C1.14602453,34.031983 0.463730023,34.1353142 0.153235445,34.4403511 C-0.157817978,34.745279 0.0198390164,35.1385587 0.548953966,35.3176044 L18.9009942,41.5268478 L63.526207,33.806637 C64.1146714,33.7052122 64.448861,33.3476654 64.271707,33.008203 C64.0956706,32.6701568 63.4759109,32.4778746 62.8885643,32.5787002 Z"/>
              <path d="M62.8885643,34.9600032 L19.1906438,42.5195794 L1.67430121,36.592713 C1.14602453,36.4129047 0.463730023,36.5162359 0.153235445,36.8212728 C-0.157817978,37.1262007 0.0198390164,37.5194804 0.548953966,37.6986895 L18.9009942,43.9079329 L63.526207,36.1878855 C64.1146714,36.0861339 64.448861,35.7289684 64.271707,35.3894515 C64.0956706,35.0509151 63.4759109,34.8587963 62.8885643,34.9600032 Z"/>
              <path d="M62.8885643,37.5238381 L19.1906438,45.0839045 L1.67430121,39.1569837 C1.14602453,38.9771753 0.463730023,39.0811057 0.153235445,39.3854345 C-0.157817978,39.6903624 0.0198390164,40.0838055 0.548953966,40.2628513 L18.9009942,46.4722035 L63.526207,38.7518293 C64.1146714,38.6504046 64.448861,38.2928578 64.271707,37.9533409 C64.0956706,37.6152946 63.4759109,37.4236661 62.8885643,37.5238381 Z"/>
            </g>
          </g>
        </g>
        <mask id="docs+crowd-f" fill="#fff">
          <use xlink:href="#docs+crowd-e"/>
        </mask>
        <g mask="url(#docs+crowd-f)">
          <g fill="#FFF" fill-rule="nonzero" transform="translate(58.679 25.601)">
            <path d="M63.6983314,7.4597311 L52.8519779,4.83434413 C48.7631287,3.72335628 43.4791324,0.707195298 43.4268245,0.676855023 C43.1717674,0.530818623 42.8068971,0.464745458 42.449739,0.499171047 C42.0926926,0.534468171 41.7886247,0.6666145 41.6344392,0.854103233 C39.8169059,3.05510765 34.5306184,3.7076142 34.4079518,3.72335628 L0.87288319,8.9878024 C0.441350494,9.05594545 0.123261206,9.26391523 0.0656140539,9.5166056 C0.00652569516,9.76945937 0.220438297,10.0181189 0.604614981,10.1471059 L18.5388623,16.154807 C18.7109867,16.2123827 18.9053532,16.2421238 19.1013403,16.2421238 C19.2078004,16.2421238 19.3158811,16.233463 19.4204411,16.2154331 L63.5826504,8.65128137 C64.0325211,8.57453191 64.3482688,8.34526402 64.3734168,8.07813888 C64.3996826,7.8110682 64.1292013,7.56393387 63.6983314,7.4597311 Z M19.2458577,14.9203337 L4.00250759,9.81379866 L34.9257221,4.95782959 C35.1614432,4.93053969 40.2197776,4.31447415 42.8851355,2.14277506 C44.7004335,3.11742233 48.5730653,5.0784281 51.9408921,5.99250376 L59.9937444,7.94141699 L19.2458577,14.9203337 Z"/>
            <path d="M62.9444488,9.85797454 L19.2465284,17.4179865 L1.730169,11.4912291 C1.20188673,11.311802 0.519603399,11.4145341 0.20913844,11.719462 C-0.101944602,12.0246623 0.0757291581,12.417942 0.604838519,12.5967698 L18.9568787,18.8063945 L63.5820916,11.0860748 C64.1705559,10.9843232 64.5047455,10.6269943 64.3275915,10.2875863 C64.1515552,9.94915877 63.5317955,9.75807496 62.9444488,9.85797454 Z"/>
            <path d="M62.9444488,12.3896435 L19.2465284,19.9492197 L1.730169,14.0223534 C1.20188673,13.8425995 0.519603399,13.9458763 0.20913844,14.2509676 C-0.101944602,14.5558955 0.0757291581,14.9491752 0.604838519,15.1283299 L18.9568787,21.3375733 L63.5820916,13.6175803 C64.1705559,13.5157743 64.5047455,13.1586088 64.3275915,12.8191463 C64.1515552,12.4806099 63.5317955,12.2884367 62.9444488,12.3896435 Z"/>
            <path d="M62.9444488,14.9204312 L19.2465284,22.4803887 L1.730169,16.5535224 C1.20188673,16.373714 0.519603399,16.4776445 0.20913844,16.7819732 C-0.101944602,17.0869011 0.0757291581,17.4803442 0.604838519,17.65939 L18.9568787,23.8688512 L63.5820916,16.1483681 C64.1705559,16.0469433 64.5047455,15.6893965 64.3275915,15.3499341 C64.1515552,15.0118334 63.5317955,14.8202048 62.9444488,14.9204312 Z"/>
            <path d="M62.9444488,17.4519026 L19.2465284,25.0119146 L1.730169,19.0849937 C1.20188673,18.9051854 0.519603399,19.0085166 0.20913844,19.3135535 C-0.101944602,19.6184814 0.0757291581,20.0117611 0.604838519,20.1908069 L18.9568787,26.3998323 L63.5820916,18.6798394 C64.1705559,18.5784147 64.5047455,18.2208679 64.3275915,17.8814054 C64.1515552,17.5433592 63.5317955,17.3511315 62.9444488,17.4519026 Z"/>
            <path d="M62.9444488,19.9830615 L19.2465284,27.5426922 L1.730169,21.6157714 C1.20188673,21.4360175 0.519603399,21.5392943 0.20913844,21.8443856 C-0.101944602,22.1493136 0.0757291581,22.5428111 0.604838519,22.7220203 L18.9568787,28.9311547 L63.5820916,21.2109984 C64.1705559,21.1091923 64.5047455,20.7520268 64.3275915,20.4125644 C64.1515552,20.0740279 63.5317955,19.8819091 62.9444488,19.9830615 Z"/>
            <path d="M62.9444488,22.514049 L19.2465284,30.0740609 L1.730169,24.1470856 C1.20188673,23.9673317 0.519603399,24.0708264 0.20913844,24.3753186 C-0.101944602,24.6803554 0.0757291581,25.0736351 0.604838519,25.2528443 L18.9568787,31.4619787 L63.5820916,23.7418223 C64.1705559,23.6405065 64.5047455,23.2826329 64.3275915,22.9432794 C64.1515552,22.6050153 63.5317955,22.4138226 62.9444488,22.514049 Z"/>
            <path d="M62.9444488,25.045269 L19.2465284,32.6047362 L1.730169,26.6783056 C1.20188673,26.4985518 0.519603399,26.6015017 0.20913844,26.9065386 C-0.101944602,27.2115754 0.0757291581,27.6048551 0.604838519,27.7840643 L18.9568787,33.9931987 L63.5820916,26.2730424 C64.1705559,26.1717265 64.5047455,25.8138529 64.3275915,25.4744994 C64.1515552,25.1362353 63.5317955,24.9439531 62.9444488,25.045269 Z"/>
            <path d="M62.9444488,27.576489 L19.2465284,35.1359562 L1.730169,29.2089809 C1.20188673,29.0292271 0.519603399,29.1327217 0.20913844,29.4377586 C-0.101944602,29.7422507 0.0757291581,30.1355304 0.604838519,30.3147396 L18.9568787,36.5244187 L63.5820916,28.8042624 C64.1705559,28.7024018 64.5047455,28.3450729 64.3275915,28.0057194 C64.1515552,27.6674553 63.5317955,27.4751732 62.9444488,27.576489 Z"/>
            <path d="M62.9444488,30.1072664 L19.2465284,37.6678231 L1.730169,31.7408478 C1.20188673,31.561094 0.519603399,31.6645886 0.20913844,31.9690808 C-0.101944602,32.2741176 0.0757291581,32.6673973 0.604838519,32.8466065 L18.9568787,39.0557409 L63.5820916,31.3355846 C64.1705559,31.2342687 64.5047455,30.8763951 64.3275915,30.5370416 C64.1515552,30.1987775 63.5317955,30.00704 62.9444488,30.1072664 Z"/>
            <path d="M62.9444488,32.6387863 L19.2465284,40.1987983 L1.730169,34.271823 C1.20188673,34.0920691 0.519603399,34.1955638 0.20913844,34.5006007 C-0.101944602,34.8056375 0.0757291581,35.1989172 0.604838519,35.3781264 L18.9568787,41.5872608 L63.5820916,33.8671044 C64.1705559,33.7652439 64.5047455,33.407915 64.3275915,33.0685615 C64.1515552,32.7302974 63.5317955,32.5380152 62.9444488,32.6387863 Z"/>
            <path d="M62.9444488,35.1705478 L19.2465284,42.7300151 L1.730169,36.8030398 C1.20188673,36.6232859 0.519603399,36.7267806 0.20913844,37.0318175 C-0.101944602,37.3368543 0.0757291581,37.730134 0.604838519,37.9093432 L18.9568787,44.1184776 L63.5820916,36.3983212 C64.1705559,36.2970054 64.5047455,35.9396765 64.3275915,35.600323 C64.1515552,35.2615142 63.5317955,35.069232 62.9444488,35.1705478 Z"/>
            <path d="M62.9444488,37.7013285 L19.2465284,45.2613404 L1.730169,39.3343651 C1.20188673,39.1546113 0.519603399,39.2586506 0.20913844,39.5631428 C-0.101944602,39.867635 0.0757291581,40.2614593 0.604838519,40.4401238 L18.9568787,46.6498029 L63.5820916,38.9291019 C64.1705559,38.8277861 64.5047455,38.4704572 64.3275915,38.1305589 C64.1515552,37.7928395 63.5317955,37.6011021 62.9444488,37.7013285 Z"/>
            <path d="M62.9444488,40.2328516 L19.2465284,47.7928635 L1.730169,41.8658882 C1.20188673,41.6861343 0.519603399,41.789629 0.20913844,42.0946659 C-0.101944602,42.399158 0.0757291581,42.7924377 0.604838519,42.9716469 L18.9568787,49.1807813 L63.5820916,41.460625 C64.1705559,41.3593091 64.5047455,41.0019802 64.3275915,40.662082 C64.1515552,40.3243626 63.5317955,40.1320804 62.9444488,40.2328516 Z"/>
            <path d="M62.9444488,42.7634316 L19.2465284,50.3234435 L1.730169,44.3970129 C1.20188673,44.2172591 0.519603399,44.320209 0.20913844,44.6252459 C-0.101944602,44.9302828 0.0757291581,45.3235624 0.604838519,45.5022269 L18.9568787,51.711906 L63.5820916,43.9917497 C64.1705559,43.8898891 64.5047455,43.5325602 64.3275915,43.1932067 C64.1515552,42.8549426 63.5317955,42.6637499 62.9444488,42.7634316 Z"/>
            <path d="M62.9444488,45.2951963 L19.2465284,52.8546635 L1.730169,46.9276882 C1.20188673,46.7479344 0.519603399,46.851429 0.20913844,47.1564659 C-0.101944602,47.4615028 0.0757291581,47.8547824 0.604838519,48.0339916 L18.9568787,54.243126 L63.5820916,46.5229697 C64.1705559,46.4211092 64.5047455,46.064325 64.3275915,45.7244267 C64.1515552,45.3861626 63.5317955,45.1938805 62.9444488,45.2951963 Z"/>
            <path d="M62.9444488,47.8259769 L19.2465284,55.3859889 L1.730169,49.4590136 C1.20188673,49.2792597 0.519603399,49.3832991 0.20913844,49.6872465 C-0.101944602,49.9922834 0.0757291581,50.3855631 0.604838519,50.5647722 L18.9568787,56.7744514 L63.5820916,49.0537503 C64.1705559,48.9524345 64.5047455,48.5951056 64.3275915,48.2552074 C64.1515552,47.917488 63.5317955,47.7257505 62.9444488,47.8259769 Z"/>
            <path d="M62.9444488,50.3575 L19.2465284,57.9169673 L1.730169,51.9905367 C1.20188673,51.8107828 0.519603399,51.9137327 0.20913844,52.2187696 C-0.101944602,52.5238065 0.0757291581,52.9170861 0.604838519,53.0962953 L18.9568787,59.3054297 L63.5820916,51.5852734 C64.1705559,51.4839576 64.5047455,51.126084 64.3275915,50.7867304 C64.1515552,50.4490111 63.5317955,50.2567289 62.9444488,50.3575 Z"/>
            <path d="M62.9444488,52.8885187 L19.2465284,60.4485306 L1.730169,54.5215553 C1.20188673,54.3418015 0.519603399,54.4447514 0.20913844,54.7497883 C-0.101944602,55.0548252 0.0757291581,55.4481048 0.604838519,55.627314 L18.9568787,61.8364484 L63.5820916,54.1168368 C64.1705559,54.0149763 64.5047455,53.6576474 64.3275915,53.3182938 C64.1515552,52.979485 63.5317955,52.7877476 62.9444488,52.8885187 Z"/>
            <path d="M62.9444488,55.4192962 L19.2465284,62.9793081 L1.730169,57.0523328 C1.20188673,56.872579 0.519603399,56.9766183 0.20913844,57.2811105 C-0.101944602,57.5861473 0.0757291581,57.979427 0.604838519,58.1586362 L18.9568787,64.3677706 L63.5820916,56.6476143 C64.1705559,56.5457537 64.5047455,56.1884248 64.3275915,55.8490713 C64.1515552,55.5108072 63.5317955,55.3190698 62.9444488,55.4192962 Z"/>
            <path d="M62.9444488,57.9508161 L19.2465284,65.510828 L1.730169,59.5838527 C1.20188673,59.4040988 0.519603399,59.5075935 0.20913844,59.8126304 C-0.101944602,60.1176672 0.0757291581,60.5109469 0.604838519,60.6896114 L18.9568787,66.8992905 L63.5820916,59.1791342 C64.1705559,59.0772736 64.5047455,58.7199447 64.3275915,58.3805912 C64.1515552,58.0423271 63.5317955,57.8500449 62.9444488,57.9508161 Z"/>
            <path d="M62.9444488,60.4823794 L19.2465284,68.0423914 L1.730169,62.1154161 C1.20188673,61.9356622 0.519603399,62.0386122 0.20913844,62.3436491 C-0.101944602,62.6486859 0.0757291581,63.0419656 0.604838519,63.2211748 L18.9568787,69.4303092 L63.5820916,61.7106976 C64.1705559,61.608837 64.5047455,61.2515081 64.3275915,60.9121546 C64.1515552,60.5733458 63.5317955,60.3816083 62.9444488,60.4823794 Z"/>
            <path d="M62.9444488,63.0131569 L19.2465284,70.5731689 L1.730169,64.6461936 C1.20188673,64.4664397 0.519603399,64.5704791 0.20913844,64.8749712 C-0.101944602,65.1800081 0.0757291581,65.5732878 0.604838519,65.7524969 L18.9568787,71.9616314 L63.5820916,64.241475 C64.1705559,64.1396145 64.5047455,63.7822856 64.3275915,63.4429321 C64.1515552,63.104668 63.5317955,62.9129305 62.9444488,63.0131569 Z"/>
            <path d="M62.9444488,65.5447203 L19.2465284,73.1047323 L1.730169,67.177757 C1.20188673,66.9980031 0.519603399,67.1009531 0.20913844,67.4059899 C-0.101944602,67.7110268 0.0757291581,68.1043065 0.604838519,68.2835156 L18.9568787,74.49265 L63.5820916,66.7730384 C64.1705559,66.6711779 64.5047455,66.313849 64.3275915,65.9744955 C64.1515552,65.6356867 63.5317955,65.4439492 62.9444488,65.5447203 Z"/>
            <path d="M62.9444488,68.0754978 L19.2465284,75.6355098 L1.730169,69.7085345 C1.20188673,69.5287806 0.519603399,69.63282 0.20913844,69.9373121 C-0.101944602,70.242349 0.0757291581,70.6356287 0.604838519,70.8148378 L18.9568787,77.0239722 L63.5820916,69.3038159 C64.1705559,69.2019554 64.5047455,68.8446265 64.3275915,68.505273 C64.1515552,68.1670089 63.5317955,67.9752714 62.9444488,68.0754978 Z"/>
            <path d="M62.9444488,70.6070177 L19.2465284,78.1670297 L1.730169,72.2400544 C1.20188673,72.0603005 0.519603399,72.1637951 0.20913844,72.468832 C-0.101944602,72.7738689 0.0757291581,73.1671485 0.604838519,73.345813 L18.9568787,79.5554921 L63.5820916,71.8353358 C64.1705559,71.7334753 64.5047455,71.3761464 64.3275915,71.0367928 C64.1515552,70.6985287 63.5317955,70.5062466 62.9444488,70.6070177 Z"/>
            <path d="M62.9444488,73.1385811 L19.2465284,80.698593 L1.730169,74.7716177 C1.20188673,74.5918639 0.519603399,74.6948138 0.20913844,74.9998507 C-0.101944602,75.3048876 0.0757291581,75.6981672 0.604838519,75.8773764 L18.9568787,82.0865108 L63.5820916,74.3668992 C64.1705559,74.2650387 64.5047455,73.9077098 64.3275915,73.5683562 C64.1515552,73.2295474 63.5317955,73.03781 62.9444488,73.1385811 Z"/>
          </g>
        </g>
        <g transform="translate(9.5 45.756)">
          <path fill="#FFF" fill-rule="nonzero" d="M63.6983314,7.4597311 L52.8519779,4.83434413 C48.7631287,3.72335628 43.4791324,0.707195298 43.4268245,0.676855023 C43.1717674,0.530818623 42.8068971,0.464745458 42.449739,0.499171047 C42.0926926,0.534468171 41.7886247,0.6666145 41.6344392,0.854103233 C39.8169059,3.05510765 34.5306184,3.7076142 34.4079518,3.72335628 L0.87288319,8.9878024 C0.441350494,9.05594545 0.123261206,9.26391523 0.0656140539,9.5166056 C0.00652569516,9.76945937 0.220438297,10.0181189 0.604614981,10.1471059 L18.5388623,16.154807 C18.7109867,16.2123827 18.9053532,16.2421238 19.1013403,16.2421238 C19.2078004,16.2421238 19.3158811,16.233463 19.4204411,16.2154331 L63.5826504,8.65128137 C64.0325211,8.57453191 64.3482688,8.34526402 64.3734168,8.07813888 C64.3996826,7.8110682 64.1292013,7.56393387 63.6983314,7.4597311 Z M19.2458577,14.9203337 L4.00250759,9.81379866 L34.9257221,4.95782959 C35.1614432,4.93053969 40.2197776,4.31447415 42.8851355,2.14277506 C44.7004335,3.11742233 48.5730653,5.0784281 51.9408921,5.99250376 L59.9937444,7.94141699 L19.2458577,14.9203337 Z"/>
          <path fill="#FFF" fill-rule="nonzero" d="M62.9444488,9.85797454 L19.2465284,17.4179865 L1.730169,11.4912291 C1.20188673,11.311802 0.519603399,11.4145341 0.20913844,11.719462 C-0.101944602,12.0246623 0.0757291581,12.417942 0.604838519,12.5967698 L18.9568787,18.8063945 L63.5820916,11.0860748 C64.1705559,10.9843232 64.5047455,10.6269943 64.3275915,10.2875863 C64.1515552,9.94915877 63.5317955,9.75807496 62.9444488,9.85797454 Z"/>
          <path fill="#FFF" fill-rule="nonzero" d="M62.9444488,12.4227354 L19.2465284,19.9823116 L1.730169,14.0554453 C1.20188673,13.8756914 0.519603399,13.9789682 0.20913844,14.2840595 C-0.101944602,14.5889874 0.0757291581,14.9822671 0.604838519,15.1614218 L18.9568787,21.3706651 L63.5820916,13.6506722 C64.1705559,13.5488662 64.5047455,13.1917007 64.3275915,12.8522382 C64.1515552,12.5137018 63.5317955,12.3215285 62.9444488,12.4227354 Z"/>
          <path fill="#FFF" fill-rule="nonzero" d="M62.9444488,14.9866248 L19.2465284,22.5465823 L1.730169,16.6197159 C1.20188673,16.4399076 0.519603399,16.543838 0.20913844,16.8481667 C-0.101944602,17.1530947 0.0757291581,17.5465378 0.604838519,17.7255835 L18.9568787,23.9350447 L63.5820916,16.2145616 C64.1705559,16.1131368 64.5047455,15.75559 64.3275915,15.4161276 C64.1515552,15.0780269 63.5317955,14.8863984 62.9444488,14.9866248 Z"/>
          <path fill="#FFF" fill-rule="nonzero" d="M62.9444488,17.5510588 L19.2465284,25.1110708 L1.730169,19.18415 C1.20188673,19.0043416 0.519603399,19.1076729 0.20913844,19.4127097 C-0.101944602,19.7176377 0.0757291581,20.1109173 0.604838519,20.2899631 L18.9568787,26.4989886 L63.5820916,18.7789956 C64.1705559,18.6775709 64.5047455,18.3200241 64.3275915,17.9805616 C64.1515552,17.6425154 63.5317955,17.4502877 62.9444488,17.5510588 Z"/>
          <path fill="#FFF" fill-rule="nonzero" d="M62.9444488,19.9323618 L19.2465284,27.4919925 L1.730169,21.5650717 C1.20188673,21.3853178 0.519603399,21.4885946 0.20913844,21.7936859 C-0.101944602,22.0986138 0.0757291581,22.4921114 0.604838519,22.6713206 L18.9568787,28.880455 L63.5820916,21.1602986 C64.1705559,21.0584926 64.5047455,20.7013271 64.3275915,20.3618646 C64.1515552,20.0233282 63.5317955,19.8312094 62.9444488,19.9323618 Z"/>
          <path fill="#FFF" fill-rule="nonzero" d="M62.9444488,22.4964691 L19.2465284,30.056481 L1.730169,24.1295057 C1.20188673,23.9497519 0.519603399,24.0532465 0.20913844,24.3577387 C-0.101944602,24.6627755 0.0757291581,25.0560552 0.604838519,25.2352644 L18.9568787,31.4443988 L63.5820916,23.7242425 C64.1705559,23.6229267 64.5047455,23.265053 64.3275915,22.9256995 C64.1515552,22.5874354 63.5317955,22.3962427 62.9444488,22.4964691 Z"/>
          <path fill="#FFF" fill-rule="nonzero" d="M62.9444488,25.0609576 L19.2465284,32.6204249 L1.730169,26.6939943 C1.20188673,26.5142404 0.519603399,26.6171903 0.20913844,26.9222272 C-0.101944602,27.2272641 0.0757291581,27.6205438 0.604838519,27.7997529 L18.9568787,34.0088873 L63.5820916,26.288731 C64.1705559,26.1874152 64.5047455,25.8295416 64.3275915,25.4901881 C64.1515552,25.151924 63.5317955,24.9596418 62.9444488,25.0609576 Z"/>
          <path fill="#FFF" fill-rule="nonzero" d="M62.9444488,27.9408325 L19.2465284,35.5002997 L1.730169,29.5733244 C1.20188673,29.3935706 0.519603399,29.4970652 0.20913844,29.8021021 C-0.101944602,30.1065942 0.0757291581,30.4998739 0.604838519,30.6790831 L18.9568787,36.8887622 L63.5820916,29.1686059 C64.1705559,29.0667453 64.5047455,28.7094164 64.3275915,28.3700629 C64.1515552,28.0317988 63.5317955,27.8395167 62.9444488,27.9408325 Z"/>
          <path fill="#FFF" fill-rule="nonzero" d="M62.9444488,30.5042316 L19.2465284,38.0647883 L1.730169,32.137813 C1.20188673,31.9580591 0.519603399,32.0615537 0.20913844,32.3660459 C-0.101944602,32.6710828 0.0757291581,33.0643624 0.604838519,33.2435716 L18.9568787,39.452706 L63.5820916,31.7325497 C64.1705559,31.6312339 64.5047455,31.2733603 64.3275915,30.9340067 C64.1515552,30.5957426 63.5317955,30.4040052 62.9444488,30.5042316 Z"/>
          <path fill="#FFF" fill-rule="nonzero" d="M62.9444488,33.0687201 L19.2465284,40.6287321 L1.730169,34.7017568 C1.20188673,34.5220029 0.519603399,34.6254976 0.20913844,34.9305344 C-0.101944602,35.2355713 0.0757291581,35.628851 0.604838519,35.8080601 L18.9568787,42.0171945 L63.5820916,34.2970382 C64.1705559,34.1951777 64.5047455,33.8378488 64.3275915,33.4984953 C64.1515552,33.1602312 63.5317955,32.967949 62.9444488,33.0687201 Z"/>
          <path fill="#FFF" fill-rule="nonzero" d="M62.9444488,35.4501865 L19.2465284,43.0096538 L1.730169,37.0826785 C1.20188673,36.9029246 0.519603399,37.0064193 0.20913844,37.3114561 C-0.101944602,37.616493 0.0757291581,38.0097727 0.604838519,38.1889818 L18.9568787,44.3981162 L63.5820916,36.6779599 C64.1705559,36.5766441 64.5047455,36.2193152 64.3275915,35.8799617 C64.1515552,35.5411529 63.5317955,35.3488707 62.9444488,35.4501865 Z"/>
          <path fill="#FFF" fill-rule="nonzero" d="M62.9444488,38.0141304 L19.2465284,45.5741423 L1.730169,39.647167 C1.20188673,39.4674131 0.519603399,39.5714525 0.20913844,39.8759447 C-0.101944602,40.1804368 0.0757291581,40.5742612 0.604838519,40.7529257 L18.9568787,46.9626048 L63.5820916,39.2419037 C64.1705559,39.1405879 64.5047455,38.783259 64.3275915,38.4433608 C64.1515552,38.1056414 63.5317955,37.913904 62.9444488,38.0141304 Z"/>
          <path fill="#FFF" fill-rule="nonzero" d="M62.9444488,40.5786189 L19.2465284,48.1386309 L1.730169,42.2116555 C1.20188673,42.0319017 0.519603399,42.1353963 0.20913844,42.4404332 C-0.101944602,42.7449254 0.0757291581,43.138205 0.604838519,43.3174142 L18.9568787,49.5265486 L63.5820916,41.8063923 C64.1705559,41.7050765 64.5047455,41.3477476 64.3275915,41.0078493 C64.1515552,40.6701299 63.5317955,40.4778478 62.9444488,40.5786189 Z"/>
          <path fill="#FFF" fill-rule="nonzero" d="M62.9444488,40.8934605 L19.2465284,48.4534725 L1.730169,42.5270419 C1.20188673,42.347288 0.519603399,42.450238 0.20913844,42.7552748 C-0.101944602,43.0603117 0.0757291581,43.4535914 0.604838519,43.6322558 L18.9568787,49.8419349 L63.5820916,42.1217786 C64.1705559,42.0199181 64.5047455,41.6625892 64.3275915,41.3232357 C64.1515552,40.9849716 63.5317955,40.7937788 62.9444488,40.8934605 Z"/>
          <path fill="#FFF" fill-rule="nonzero" d="M62.9444488,43.4584938 L19.2465284,51.017961 L1.730169,45.0909857 C1.20188673,44.9112318 0.519603399,45.0147265 0.20913844,45.3197634 C-0.101944602,45.6248002 0.0757291581,46.0180799 0.604838519,46.1972891 L18.9568787,52.4064235 L63.5820916,44.6862671 C64.1705559,44.5844066 64.5047455,44.2276224 64.3275915,43.8877242 C64.1515552,43.5494601 63.5317955,43.3571779 62.9444488,43.4584938 Z"/>
          <path fill="#FFF" fill-rule="nonzero" d="M62.9444488,46.0224376 L19.2465284,53.5824495 L1.730169,47.6554742 C1.20188673,47.4757204 0.519603399,47.5797597 0.20913844,47.8837072 C-0.101944602,48.1887441 0.0757291581,48.5820237 0.604838519,48.7612329 L18.9568787,54.970912 L63.5820916,47.250211 C64.1705559,47.1488952 64.5047455,46.7915663 64.3275915,46.451668 C64.1515552,46.1139486 63.5317955,45.9222112 62.9444488,46.0224376 Z"/>
          <path fill="#FFF" fill-rule="nonzero" d="M62.9444488,48.5869261 L19.2465284,56.1463934 L1.730169,50.2199628 C1.20188673,50.0402089 0.519603399,50.1431588 0.20913844,50.4481957 C-0.101944602,50.7532326 0.0757291581,51.1465123 0.604838519,51.3257214 L18.9568787,57.5348558 L63.5820916,49.8146995 C64.1705559,49.7133837 64.5047455,49.3555101 64.3275915,49.0161566 C64.1515552,48.6784372 63.5317955,48.486155 62.9444488,48.5869261 Z"/>
          <path fill="#FFF" fill-rule="nonzero" d="M62.9444488,50.9678478 L19.2465284,58.5278598 L1.730169,52.6008845 C1.20188673,52.4211306 0.519603399,52.5240805 0.20913844,52.8291174 C-0.101944602,53.1341543 0.0757291581,53.527434 0.604838519,53.7066431 L18.9568787,59.9157775 L63.5820916,52.1961659 C64.1705559,52.0943054 64.5047455,51.7369765 64.3275915,51.397623 C64.1515552,51.0588142 63.5317955,50.8670767 62.9444488,50.9678478 Z"/>
          <path fill="#FFF" fill-rule="nonzero" d="M62.9444488,53.5317916 L19.2465284,61.0918036 L1.730169,55.1648283 C1.20188673,54.9850744 0.519603399,55.0891138 0.20913844,55.3936059 C-0.101944602,55.6986428 0.0757291581,56.0919225 0.604838519,56.2711317 L18.9568787,62.4802661 L63.5820916,54.7601097 C64.1705559,54.6582492 64.5047455,54.3009203 64.3275915,53.9615668 C64.1515552,53.6233027 63.5317955,53.4315652 62.9444488,53.5317916 Z"/>
          <path fill="#FFF" fill-rule="nonzero" d="M62.9444488,56.0962802 L19.2465284,63.6562921 L1.730169,57.7293168 C1.20188673,57.549563 0.519603399,57.6530576 0.20913844,57.9580945 C-0.101944602,58.2631314 0.0757291581,58.656411 0.604838519,58.8350755 L18.9568787,65.0447546 L63.5820916,57.3245983 C64.1705559,57.2227377 64.5047455,56.8654088 64.3275915,56.5260553 C64.1515552,56.1877912 63.5317955,55.9955091 62.9444488,56.0962802 Z"/>
          <path fill="#FFF" fill-rule="nonzero" d="M62.9444488,58.976155 L19.2465284,66.536167 L1.730169,60.6091917 C1.20188673,60.4294378 0.519603399,60.5323878 0.20913844,60.8374246 C-0.101944602,61.1424615 0.0757291581,61.5357412 0.604838519,61.7149503 L18.9568787,67.9240848 L63.5820916,60.2044731 C64.1705559,60.1026126 64.5047455,59.7452837 64.3275915,59.4059302 C64.1515552,59.0671214 63.5317955,58.8753839 62.9444488,58.976155 Z"/>
          <path fill="#FFF" fill-rule="nonzero" d="M62.9444488,61.5400989 L19.2465284,69.1001108 L1.730169,63.1731355 C1.20188673,62.9933817 0.519603399,63.097421 0.20913844,63.4019132 C-0.101944602,63.70695 0.0757291581,64.1002297 0.604838519,64.2794389 L18.9568787,70.4885733 L63.5820916,62.768417 C64.1705559,62.6665564 64.5047455,62.3092275 64.3275915,61.969874 C64.1515552,61.6316099 63.5317955,61.4398725 62.9444488,61.5400989 Z"/>
        </g>
      </g>
    </g>
    <g transform="translate(68.823 69.692)">
      <path fill="#FCFBF0" d="M11.4333351,46.663238 L9.09983583,61.2574833 C8.97341509,62.3875197 7.93933762,63.2027304 6.79015418,63.078436 C5.64096256,62.9541417 4.81183745,61.9373334 4.93825001,60.8073772 L5.66433769,41.4012554 L5.66433769,34.5033984 L4.17431803,43.8221892 C4.04790547,44.9522256 3.013828,45.7674364 1.86463638,45.643142 C0.715448026,45.5188476 -0.113677896,44.5020394 0.0127326912,43.3720832 C1.00105896,36.8337176 1.85877825,31.5466356 2.58589828,27.5106768 C3.07227814,24.7607237 6.04028989,24.1328366 7.2210908,24.2372439 C8.00836515,24.2232107 10.93732,24.1843186 16.0079144,24.1204874 C17.3241486,24.1306715 19.9044264,24.857112 20.3549692,27.4045855 C21.0821139,31.4405443 21.9398577,36.7277065 22.9282009,43.2660721 C23.0545397,44.3960283 22.2254719,45.4128365 21.0762967,45.5371309 C19.9270395,45.6614253 18.8929784,44.8461344 18.7665577,43.7161781 C17.9592838,39.5749299 17.3836311,36.4487258 17.0395995,34.3374855 C17.0612295,35.7855551 17.0631959,37.7934306 17.0454986,40.3609516 C17.1340668,40.553648 17.1937951,40.7630238 17.2185385,40.9845886 L17.9699349,61.0664709 C18.0963557,62.1964271 17.267206,63.2132353 16.1180308,63.3375297 C14.9688555,63.4618241 13.9347125,62.6465331 13.8083737,61.5165769 L11.4333351,46.663238 Z M11.4518516,23.3939667 C8.9355626,23.3939667 6.8957151,21.3882563 6.8957151,18.9140764 C6.8957151,16.4398965 8.9355626,14.4341862 11.4518516,14.4341862 C13.9680587,14.4341862 16.0079144,16.4398965 16.0079144,18.9140764 C16.0079144,21.3882563 13.9680587,23.3939667 11.4518516,23.3939667 Z"/>
      <g transform="translate(37.689 .802)">
        <mask id="docs+crowd-h" fill="#fff">
          <use xlink:href="#docs+crowd-g"/>
        </mask>
        <path fill="#FCFBF0" d="M17.038944,23.5684599 C17.0867103,25.0625586 17.0974433,27.627754 17.0711432,31.2640463 C17.0764688,31.9948973 17.1001471,32.6554217 17.1328379,33.3590882 C17.3253776,37.4943222 17.6141052,43.6970929 17.9991846,51.9674005 C18.1257692,53.1135551 17.2953086,54.1449578 16.1442489,54.2710164 C14.9931893,54.397075 13.9574076,53.5701565 13.830823,52.4240019 L11.4519336,37.3577588 L9.11466549,52.1612195 C8.98799894,53.3073741 7.95221729,54.1342926 6.80115762,54.008234 C5.65017988,53.8821755 4.81963736,52.8507727 4.9463039,51.7046181 L5.67353044,32.0203977 L5.67353044,23.5954038 C5.67353044,22.53826 4.71476467,21.2322067 3.75206618,19.8112413 C2.92529252,18.5909912 2.09556931,17.2859804 1.86763508,15.9809696 C1.76104183,15.3817905 1.65682459,14.7726678 1.55490145,14.1536818 C1.15876126,11.7471822 0.64472123,7.80135687 0.0127813587,2.31629395 C-0.113885184,1.17013136 0.716575407,0.138776681 1.86763508,0.0127020838 C3.01869475,-0.113378929 4.0544764,0.713562013 4.18114294,1.8597246 C4.91762778,9.22697332 5.53850686,13.2381535 6.04353439,13.8931448 C6.40739345,14.3649823 6.72250311,14.645647 6.98886335,14.735139 C7.75500748,14.7294455 10.6993901,14.7301672 15.8220112,14.7373041 C16.0897643,14.650298 16.4070861,14.3689918 16.7739766,13.8931448 C17.2790861,13.2381535 17.8998833,9.22697332 18.63645,1.8597246 C18.7630346,0.713562013 19.7988163,-0.113378929 20.949876,0.0127020838 C22.1009356,0.138776681 22.9313962,1.17013136 22.8048116,2.31629395 C22.2965068,7.33232601 21.6781676,11.8871938 20.949876,15.9809696 C20.4776211,18.6852144 17.3084177,21.600519 17.038944,23.5684599 Z M11.4704502,13.7551379 C8.95006453,13.7551379 6.90693156,11.7206394 6.90693156,9.21101553 C6.90693156,6.70136763 8.95006453,4.66690919 11.4704502,4.66690919 C13.9908358,4.66690919 16.0339687,6.70136763 16.0339687,9.21101553 C16.0339687,11.7206394 13.9908358,13.7551379 11.4704502,13.7551379 Z" mask="url(#docs+crowd-h)"/>
      </g>
      <path fill="#FCFBF0" d="M61.411725 47.1443776L59.0782258 61.7386228C58.951805 62.8686592 57.917744 63.68387 56.7685687 63.5595756 55.6193115 63.4352812 54.7902438 62.418473 54.9166645 61.2885168L55.642744 41.882395 55.642744 34.984538 54.1527326 44.3033288C54.0263118 45.4333652 52.9922507 46.2485759 51.8429936 46.1242815 50.6938183 45.9999872 49.8647506 44.9831789 49.9910894 43.8532227 50.9794325 37.3148571 51.8371764 32.0277751 52.564321 27.9918163 53.0506681 25.2418633 56.0186471 24.6139762 57.199448 24.7183834 57.9867305 24.7043502 60.91571 24.6654581 65.9863044 24.6016269 67.3025385 24.6118912 69.8828163 25.3382515 70.3333592 27.885725 71.0605038 31.9216839 71.9182477 37.2088461 72.9065908 43.7472116 73.0329296 44.8771679 72.2038619 45.8939761 71.0546866 46.0182705 69.9054295 46.1425648 68.8713684 45.3272739 68.7449476 44.1973177 67.9376738 40.0560695 67.362021 36.9298653 67.0179894 34.818625 67.044945 36.6272286 67.04134 39.30894 67.0070925 42.8637593 67.1280238 45.5165221 67.4417406 51.7444725 67.9483249 61.5476104 68.0747456 62.6775666 67.2455959 63.6943748 66.0964207 63.8186692 64.9472455 63.9429636 63.9131025 63.1276727 63.7867636 61.9977165L61.411725 47.1443776zM61.3642865 23.7461608C58.8480794 23.7461608 56.8082237 21.7404505 56.8082237 19.2662706 56.8082237 16.7920907 58.8480794 14.7863803 61.3642865 14.7863803 63.8805755 14.7863803 65.9204312 16.7920907 65.9204312 19.2662706 65.9204312 21.7404505 63.8805755 23.7461608 61.3642865 23.7461608zM30.2438901 32.9170814C30.2438901 30.9771268 26.9367135 28.1885222 26.4441396 25.3998374 25.717077 21.3582653 25.099721 16.8615351 24.5922355 11.9094866 24.4658967 10.7780068 25.2949644 9.75983536 26.4441396 9.63530041 27.5933968 9.51084565 28.6274579 10.3272593 28.7538786 11.4588193 29.4892164 18.7320453 30.1090304 22.6919841 30.6133205 23.3386356 31.004299 23.8400632 31.3389085 24.1228129 31.6171488 24.1868044 31.9613442 24.1774222 34.9514448 24.1371669 40.5874505 24.0661186 41.9036846 24.0763829 44.4839624 24.8037857 44.9345053 27.3547875 45.6616499 31.3963597 46.5193938 36.6908192 47.5077369 43.2382462 47.6340757 44.3698062 46.805008 45.3879777 45.6558327 45.5124324 44.5065756 45.6368872 43.4725145 44.8204736 43.3460937 43.6889938 42.5388198 39.5420521 41.9631671 36.4114375 41.6191355 34.2972301 41.6442886 35.9853884 41.6428138 38.4331056 41.6147932 41.640462 41.6893511 43.6464931 42.0009377 50.1207869 42.549471 61.0633435 42.6758917 62.1948233 41.846742 63.2129947 40.6975668 63.3375297 39.5483916 63.4619845 38.5142485 62.6455708 38.3879097 61.5140108L36.0128711 46.6400631 33.6793719 61.2545964C33.5529511 62.3861564 32.51889 63.2025701 31.3697148 63.0780351 30.2204576 62.9535803 29.3913899 61.9354089 29.5178106 60.8038489L30.2438901 41.3708635 30.2438901 32.9170814zM36.2766914 23.3603671C33.7604024 23.3603671 31.7206286 21.3519303 31.7206286 18.8743022 31.7206286 16.3966742 33.7604024 14.3881572 36.2766914 14.3881572 38.7929805 14.3881572 40.8327542 16.3966742 40.8327542 18.8743022 40.8327542 21.3519303 38.7929805 23.3603671 36.2766914 23.3603671z"/>
      <path fill="#FCFBF0" d="M30.5716173,33.318031 C30.5716173,31.3780764 27.2644407,28.5894718 26.7718668,25.800787 C26.0448041,21.7592149 25.4274481,17.2624848 24.9199626,12.3104362 C24.7935419,11.1789564 25.6226915,10.160785 26.7718668,10.03625 C27.921124,9.91179527 28.955185,10.7282089 29.0816058,11.8597689 C29.8169436,19.1329949 30.4367575,23.0929337 30.9410477,23.7395852 C31.3320262,24.2410128 31.6666356,24.5237625 31.9448759,24.5877541 C32.2890714,24.5783718 35.2791719,24.5381165 40.9151776,24.4670682 C42.2314118,24.4773325 44.8116895,25.2047353 45.2622324,27.7557372 C45.989377,31.7973093 46.8471209,37.0917688 47.8354641,43.6391958 C47.9618029,44.7707558 47.1327351,45.7889273 45.9835599,45.913382 C44.8343027,46.0378368 43.8002416,45.2214232 43.6738209,44.0899434 C42.866547,39.9430017 42.2908943,36.8123871 41.9468627,34.6981798 C41.9729989,36.4548202 41.9703771,39.0339687 41.9389972,42.4355451 C41.9707048,43.1936606 42.0220761,44.3139138 42.0929471,45.7962246 C42.2001958,48.0368914 42.4615582,53.2595809 42.8771981,61.4642931 C43.0036189,62.5957729 42.1744692,63.6139444 41.0252939,63.7384793 C39.8761187,63.8629341 38.8419757,63.0465205 38.7155549,61.9149605 L36.3405982,47.0410127 L34.007099,61.6555461 C33.8806783,62.7871061 32.8466172,63.6035197 31.6974419,63.4789847 C30.5481848,63.35453 29.719117,62.3363585 29.8455378,61.2047985 L30.5716173,41.7718131 L30.5716173,33.318031 Z M36.183535,23.354433 C33.6673279,23.354433 31.6274722,21.345916 31.6274722,18.8683682 C31.6274722,16.3907401 33.6673279,14.3822231 36.183535,14.3822231 C38.699824,14.3822231 40.7396797,16.3907401 40.7396797,18.8683682 C40.7396797,21.345916 38.699824,23.354433 36.183535,23.354433 Z"/>
      <g transform="translate(61.449 .802)">
        <mask id="docs+crowd-j" fill="#fff">
          <use xlink:href="#docs+crowd-i"/>
        </mask>
        <path fill="#FCFBF0" d="M5.6971268,23.5954038 C5.6971268,21.6304299 2.37086011,18.8056596 1.8754186,15.9809696 C1.14409547,11.8871938 0.52321639,7.33232601 0.0127813587,2.31629395 C-0.114376774,1.17013136 0.719606883,0.138776681 1.8754186,0.0127020838 C3.03123032,-0.113378929 4.07135435,0.713562013 4.19851248,1.8597246 C4.93811072,9.22697332 5.56144776,13.2381535 6.06868745,13.8931448 C6.46196002,14.4010677 6.79853581,14.687426 7.07833286,14.7522996 C7.42457659,14.742757 10.4319648,14.7020205 16.1005793,14.63001 C17.4243512,14.6404347 20.0196224,15.3772197 20.4727872,17.9612598 C21.2039464,22.0550355 22.0666881,27.417897 23.0605207,34.0500046 C23.1883343,35.1961592 22.3542687,36.2274818 21.1982112,36.3535403 C20.0423995,36.4796791 19.0023574,35.6526804 18.8751992,34.5065258 C18.0632552,30.3060173 17.4842433,27.134987 17.1382454,24.9934349 C17.1599573,26.4622737 17.1619237,28.4989374 17.1441445,31.1032655 C17.2332043,31.2986884 17.2932603,31.5111115 17.3181676,31.7358036 L18.0739064,52.1054875 C18.2010645,53.2516421 17.3670808,54.2829647 16.2112691,54.4090233 C15.0554574,54.535162 14.0154153,53.7081633 13.8882572,52.5620088 L11.4995359,37.4958458 L9.15251797,52.2992264 C9.02535984,53.445381 7.98531774,54.2723796 6.82942409,54.1462409 C5.67361237,54.0201823 4.83971065,52.9888597 4.96678685,51.8427052 L5.6971268,32.1584045 L5.6971268,23.5954038 Z M11.5180525,13.8931448 C8.98726156,13.8931448 6.93560768,11.8587264 6.93560768,9.34902238 C6.93560768,6.83942261 8.98726156,4.80496416 11.5180525,4.80496416 C14.0489254,4.80496416 16.1005793,6.83942261 16.1005793,9.34902238 C16.1005793,11.8587264 14.0489254,13.8931448 11.5180525,13.8931448 Z" mask="url(#docs+crowd-j)"/>
      </g>
      <g transform="translate(13.928)">
        <mask id="docs+crowd-l" fill="#fff">
          <use xlink:href="#docs+crowd-k"/>
        </mask>
        <path fill="#FCFBF0" d="M6.16282707,24.2232107 C6.16282707,22.2669775 2.80845779,19.4549575 2.30891968,16.6428572 C1.57145167,12.567445 0.945328956,8.03302556 0.43055154,3.03947875 C0.302328293,1.89845634 1.14327615,0.871728617 2.30891968,0.746218557 C3.47448128,0.620706091 4.52337202,1.44393985 4.65159526,2.58496227 C5.39742032,9.91917274 6.46187809,13.9525655 6.97337824,14.60467 C7.37001002,15.1102674 10.8888164,15.3703233 16.5161373,15.2997562 C16.5586599,15.298393 16.6028211,15.2978316 16.6485391,15.2980722 L16.6541104,15.297992 C17.9891889,15.3083365 20.606254,16.0418338 21.0632695,18.6142463 C21.8008195,22.6896586 22.6707712,28.0285433 23.6732066,34.6308202 C23.8014299,35.7718426 22.9604001,36.7985944 21.7948385,36.9240917 C20.6292769,37.0496691 19.5803861,36.2264393 19.4521629,35.0854169 C18.6334185,30.9036728 18.0494907,27.7468361 17.7005432,25.6149068 C17.722419,27.07717 17.7244673,29.1046921 17.7065242,31.6973926 C17.7964034,31.8918532 17.8568691,32.1033942 17.8820221,32.3270439 L18.6441516,52.6053915 C18.7723749,53.7464139 17.931427,54.7731657 16.7657835,54.8986629 C15.6002219,55.0241602 14.5513311,54.2009304 14.4231079,53.059908 L12.0142314,38.061265 L9.24927941,52.7146102 C9.12105617,53.8556326 8.07224736,54.6788624 6.90660383,54.5533651 C5.74104223,54.4277877 4.90009437,53.4011161 5.02831762,52.2600937 L6.69169676,32.7478005 L6.16282707,24.2232107 Z M12.0329938,14.5644146 C9.48081864,14.5644146 7.41179523,12.5390577 7.41179523,10.0407407 C7.41179523,7.54232738 9.48081864,5.51699454 12.0329938,5.51699454 C14.585169,5.51699454 16.6541104,7.54232738 16.6541104,10.0407407 C16.6541104,12.5390577 14.585169,14.5644146 12.0329938,14.5644146 Z" mask="url(#docs+crowd-l)"/>
      </g>
      <path fill="#FCFBF0" d="M92.6541997,32.9170814 C92.6541997,30.9771268 95.9609667,28.1885222 96.4533767,25.3998374 C97.180931,21.3582653 97.7978773,16.8615351 98.3050351,11.9094866 C98.4320293,10.7780068 97.6028797,9.75983536 96.4533767,9.63530041 C95.304693,9.51084565 94.2698946,10.3272593 94.1437196,11.4588193 C93.4087915,18.7320453 92.7885679,22.6919841 92.2846874,23.3386356 C91.8930534,23.8400632 91.5587717,24.1228129 91.2802037,24.1868044 C90.9360902,24.1774222 87.9463993,24.1371669 82.3103117,24.0661186 C80.9939956,24.0763829 78.4137178,24.8037857 77.9631749,27.3547875 C77.2360303,31.3963597 76.3782864,36.6908192 75.3899433,43.2382462 C75.2636045,44.3698062 76.0926722,45.3879777 77.2418475,45.5124324 C78.3911046,45.6368872 79.4251657,44.8204736 79.5515865,43.6889938 C80.3588604,39.5420521 80.9345131,36.4114375 81.2785447,34.2972301 C81.251753,36.0970128 81.2551941,38.7601201 81.2887861,42.2866324 C81.1874365,45.0504583 80.8739655,51.309362 80.3482092,61.0633435 C80.2217885,62.1948233 81.0509382,63.2129947 82.2005231,63.3375297 C83.3492067,63.4619845 84.3831859,62.6455708 84.5101801,61.5140108 L86.8845633,46.6400631 L89.2179806,61.2545964 C89.3449749,62.3861564 90.378954,63.2025701 91.5276377,63.0780351 C92.6771406,62.9535803 93.5062903,61.9354089 93.3801154,60.8038489 L92.6541997,41.3708635 L92.6541997,32.9170814 Z M87.3384654,23.3834618 C89.8545906,23.3834618 91.8946921,21.375025 91.8946921,18.8973969 C91.8946921,16.4197689 89.8545906,14.4112519 87.3384654,14.4112519 C84.8223402,14.4112519 82.7822387,16.4197689 82.7822387,18.8973969 C82.7822387,21.375025 84.8223402,23.3834618 87.3384654,23.3834618 Z"/>
    </g>
  </g>
</svg>
