<svg xmlns="http://www.w3.org/2000/svg" width="52" height="60" viewBox="0 0 52 60">
  <path fill="#FFFEE7" d="M13.3333333,79.7777778 L17.7777778,79.7777778 L17.7777778,82 L13.3333333,82 L13.3333333,79.7777778 Z M4.44444444,68.6666667 L6.66666667,68.6666667 L6.66666667,73.1111111 L4.44444444,73.1111111 L4.44444444,68.6666667 Z M35.5555556,37.5555556 C34.4445025,37.5555556 33.3333333,36.6666667 33.3333333,35.3333333 L33.3333333,22 L46.6666667,37.5555556 L35.5555556,37.5555556 Z M20,79.7777778 L24.4444444,79.7777778 L24.4444444,82 L20,82 L20,79.7777778 Z M6.66666667,77.5555556 C6.66666667,78.8888889 7.77783588,79.7777778 8.88888889,79.7777778 L11.1111111,79.7777778 L11.1111111,82 L8.88888889,82 C6.44438635,82 4.44444444,79.9999419 4.44444444,77.5555556 L4.44444444,75.3333333 L6.66666667,75.3333333 L6.66666667,77.5555556 Z M46.6666667,39.7777778 L46.6666667,47.9259259 L4.44444444,47.9259259 L4.44444444,26.4444444 C4.44444444,23.9999419 6.44438635,22 8.88888889,22 L31.1111111,22 L31.1111111,35.3333333 C31.1111111,37.7778359 33.1111692,39.7777778 35.5555556,39.7777778 L46.6666667,39.7777778 Z M4.44444444,62 L6.66666667,62 L6.66666667,66.4444444 L4.44444444,66.4444444 L4.44444444,62 Z M4.44444444,55.3333333 L6.66666667,55.3333333 L6.66666667,59.7777778 L4.44444444,59.7777778 L4.44444444,55.3333333 Z M44.4444444,68.6666667 L46.6666667,68.6666667 L46.6666667,73.1111111 L44.4444444,73.1111111 L44.4444444,68.6666667 Z M44.4444444,62 L46.6666667,62 L46.6666667,66.4444444 L44.4444444,66.4444444 L44.4444444,62 Z M44.4444444,55.3333333 L46.6666667,55.3333333 L46.6666667,59.7777778 L44.4444444,59.7777778 L44.4444444,55.3333333 Z M48.8888889,46.0740741 L51.1111111,46.0740741 L51.1111111,57.1851852 L48.8888889,57.1851852 L48.8888889,52.7407407 L2.22222222,52.7407407 L2.22222222,57.1851852 L0,57.1851852 L0,46.0740741 L2.22222222,46.0740741 L2.22222222,50.5185185 L48.8888889,50.5185185 L48.8888889,46.0740741 Z M44.4444444,77.5555556 L44.4444444,75.3333333 L46.6666667,75.3333333 L46.6666667,77.5555556 C46.6666667,79.9999419 44.6666086,82 42.2222222,82 L40,82 L40,79.7777778 L42.2222222,79.7777778 C43.5555556,79.7777778 44.4444444,78.8888889 44.4444444,77.5555556 Z M26.6666667,79.7777778 L31.1111111,79.7777778 L31.1111111,82 L26.6666667,82 L26.6666667,79.7777778 Z M33.3333333,79.7777778 L37.7777778,79.7777778 L37.7777778,82 L33.3333333,82 L33.3333333,79.7777778 Z" transform="translate(0 -22)"/>
</svg>
