<svg xmlns="http://www.w3.org/2000/svg" width="60" height="59" viewBox="0 0 60 59">
  <path fill="#FFFEE7" fill-rule="evenodd" d="M4.71428571,62.1130048 L55.7142857,62.1130048 C56.4243661,62.1130048 57,62.6886387 57,63.3987191 C57,64.1087995 56.4243661,64.6844333 55.7142857,64.6844333 L4.71428571,64.6844333 C4.00420532,64.6844333 3.42857143,64.1087995 3.42857143,63.3987191 C3.42857143,62.6886387 4.00420532,62.1130048 4.71428571,62.1130048 Z M8.14285714,26.9701476 L52.2857143,26.9701476 C53.2324881,26.9701476 54,27.7376595 54,28.6844333 C54,29.6312072 53.2324881,30.3987191 52.2857143,30.3987191 L8.14285714,30.3987191 C7.19608329,30.3987191 6.42857143,29.6312072 6.42857143,28.6844333 C6.42857143,27.7376595 7.19608329,26.9701476 8.14285714,26.9701476 Z M1.64713161,21.952917 L29.4328459,10.1589808 C29.9322431,9.94700641 30.4963283,9.94700641 30.9957255,10.1589808 L58.7814398,21.952917 C59.5202265,22.2665028 60,22.9913518 60,23.7939363 L60,24.1844333 C60,25.1312072 59.2324881,25.8987191 58.2857143,25.8987191 L2.14285714,25.8987191 C1.19608329,25.8987191 0.428571429,25.1312072 0.428571429,24.1844333 L0.428571429,23.7939363 C0.428571429,22.9913518 0.908344923,22.2665028 1.64713161,21.952917 Z M1.5,65.1130048 L58.5,65.1130048 C59.3284271,65.1130048 60,65.7845776 60,66.6130048 C60,67.4414319 59.3284271,68.1130048 58.5,68.1130048 L1.5,68.1130048 C0.671572875,68.1130048 1.01453063e-16,67.4414319 0,66.6130048 C-1.01453063e-16,65.7845776 0.671572875,65.1130048 1.5,65.1130048 Z M14.5714286,61.2558619 L7.71428571,61.2558619 C7.93095397,51.0665213 8.07381111,44.780807 8.14285714,42.3987191 C8.21190317,40.0166311 8.35476031,36.4452025 8.57142857,31.6844333 L13.7142857,31.6844333 C13.930954,36.4452025 14.0738111,40.0166311 14.1428571,42.3987191 C14.2119032,44.780807 14.3547603,51.0665213 14.5714286,61.2558619 Z M27.2857143,61.2558619 L20.4285714,61.2558619 C20.6452397,51.0665213 20.7880968,44.780807 20.8571429,42.3987191 C20.9261889,40.0166311 21.069046,36.4452025 21.2857143,31.6844333 L26.4285714,31.6844333 C26.6452397,36.4452025 26.7880968,40.0166311 26.8571429,42.3987191 C26.9261889,44.780807 27.069046,51.0665213 27.2857143,61.2558619 Z M40,61.2558619 L33.1428571,61.2558619 C33.3595254,51.0665213 33.5023825,44.780807 33.5714286,42.3987191 C33.6404746,40.0166311 33.7833317,36.4452025 34,31.6844333 L39.1428571,31.6844333 C39.3595254,36.4452025 39.5023825,40.0166311 39.5714286,42.3987191 C39.6404746,44.780807 39.7833317,51.0665213 40,61.2558619 Z M52.7142857,61.2558619 L45.8571429,61.2558619 C46.0738111,51.0665213 46.2166683,44.780807 46.2857143,42.3987191 C46.3547603,40.0166311 46.4976175,36.4452025 46.7142857,31.6844333 L51.8571429,31.6844333 C52.0738111,36.4452025 52.2166683,40.0166311 52.2857143,42.3987191 C52.3547603,44.780807 52.4976175,51.0665213 52.7142857,61.2558619 Z" transform="translate(0 -10)"/>
</svg>
