<svg xmlns="http://www.w3.org/2000/svg" width="52" height="48" viewBox="0 0 52 48">
  <path fill="#FFFEE7" fill-rule="evenodd" d="M45.4057357,44.0583254 L50.9159843,44.0583254 C51.5146696,44.0583254 52,44.5436558 52,45.1423411 L52,45.6120155 C52,46.2107008 51.5146696,46.6960312 50.9159843,46.6960312 L45.4057357,46.6960312 L45.4057357,52.2062798 C45.4057357,52.8049651 44.9204053,53.2902955 44.32172,53.2902955 L43.8520456,53.2902955 C43.2533603,53.2902955 42.76803,52.8049651 42.76803,52.2062798 L42.76803,46.6960312 L37.2577813,46.6960312 C36.659096,46.6960312 36.1737657,46.2107008 36.1737657,45.6120155 L36.1737657,45.1423411 C36.1737657,44.5436558 36.659096,44.0583254 37.2577813,44.0583254 L42.76803,44.0583254 L42.76803,38.5480768 C42.76803,37.9493915 43.2533603,37.4640611 43.8520456,37.4640611 L44.32172,37.4640611 C44.9204053,37.4640611 45.4057357,37.9493915 45.4057357,38.5480768 L45.4057357,44.0583254 Z M39.7670129,24.0498854 L17.6441812,46.1727171 C16.9079474,46.9089509 15.7142765,46.9089509 14.9780427,46.1727171 L0.552175378,31.7468498 C-0.184058459,31.010616 -0.184058459,29.8169451 0.552175378,29.0807112 L22.8655851,6.76730152 C23.0495212,6.58336537 23.2620092,6.44538271 23.4887826,6.35335352 C23.7981979,6.13096399 24.17774,6 24.5878704,6 L38.7160985,6 C39.7572903,6 40.6013431,6.84405279 40.6013431,7.88524466 L40.6013431,22.4844916 C40.6013431,23.1365954 40.2702566,23.7113698 39.7670129,24.0498854 Z M3.70032979,36.133043 L15.0655516,47.4982648 C15.8017854,48.2344986 16.9954563,48.2344986 17.7316902,47.4982648 L40.7112212,24.5187338 C41.0528686,24.1770864 41.2359754,23.7369345 41.2605416,23.2896996 C41.2925206,23.1520729 41.3094271,23.0086642 41.3094271,22.8613067 L41.3094271,18.5591757 C41.6042562,18.1890519 41.7804459,17.7202263 41.7804459,17.2102493 C41.7804459,16.7002724 41.6042562,16.2314468 41.3094271,15.861323 L41.3094271,12.5942643 L42.1560919,12.5942643 C43.1972838,12.5942643 44.0413366,13.4383171 44.0413366,14.479509 L44.0413366,29.0787559 C44.0413366,29.6379115 43.797907,30.1402111 43.4112442,30.4854582 L21.129721,52.7669814 C20.3934871,53.5032152 19.1998162,53.5032152 18.4635824,52.7669814 L4.03771508,38.3411141 C3.44000742,37.7434064 3.32754566,36.8442056 3.70032979,36.133043 Z M36.1737657,12.7826719 C37.3703938,12.7826719 38.3404525,11.8126131 38.3404525,10.615985 C38.3404525,9.41935692 37.3703938,8.44929817 36.1737657,8.44929817 C34.9771376,8.44929817 34.0070788,9.41935692 34.0070788,10.615985 C34.0070788,11.8126131 34.9771376,12.7826719 36.1737657,12.7826719 Z" transform="translate(0 -6)"/>
</svg>
