<svg xmlns="http://www.w3.org/2000/svg" width="49" height="70" viewBox="0 0 49 70">
  <path fill="#FFFEE7" fill-rule="evenodd" d="M13.0232558,6.51162791 L8.44186047,6.51162791 C5.12815197,6.51162791 2.44186047,9.19791941 2.44186047,12.5116279 L2.44186047,61.5581395 C2.44186047,64.871848 5.12815197,67.5581395 8.44186047,67.5581395 L40.8776916,67.5581395 C44.1914001,67.5581395 46.8776916,64.871848 46.8776916,61.5581395 L46.8776916,12.5116279 C46.8776916,9.19791941 44.1914001,6.51162791 40.8776916,6.51162791 L35.8139535,6.51162791 L35.8139535,11.3953488 L13.0232558,11.3953488 L13.0232558,6.51162791 Z M20.3488372,4.06976744 C20.3488372,1.82209695 22.1709342,0 24.4186047,0 C26.6662751,0 28.4883721,1.82209695 28.4883721,4.06976744 L42.8372093,4.06976744 C46.1509178,4.06976744 48.8372093,6.75605894 48.8372093,10.0697674 L48.8372093,64 C48.8372093,67.3137085 46.1509178,70 42.8372093,70 L6,70 C2.6862915,70 1.29399067e-15,67.3137085 8.8817842e-16,64 L8.8817842e-16,10.0697674 C4.82366169e-16,6.75605894 2.6862915,4.06976744 6,4.06976744 L20.3488372,4.06976744 Z M15.4651163,6.51162791 L15.4651163,8.95348837 L33.372093,8.95348837 L33.372093,6.51162791 L15.4651163,6.51162791 Z M16.6740662,56.2206366 L18.4007223,57.9472927 C18.7185909,58.2651613 18.7185909,58.7805281 18.4007223,59.0983967 C18.0828537,59.4162654 17.5674869,59.4162654 17.2496183,59.0983967 L15.5229622,57.3717407 L13.7963061,59.0983967 C13.4784375,59.4162654 12.9630706,59.4162654 12.645202,59.0983967 C12.3273334,58.7805281 12.3273334,58.2651613 12.645202,57.9472927 L14.3718581,56.2206366 L12.645202,54.4939805 C12.3273334,54.1761119 12.3273334,53.660745 12.645202,53.3428764 C12.9630706,53.0250078 13.4784375,53.0250078 13.7963061,53.3428764 L15.5229622,55.0695325 L17.2496183,53.3428764 C17.5674869,53.0250078 18.0828537,53.0250078 18.4007223,53.3428764 C18.7185909,53.660745 18.7185909,54.1761119 18.4007223,54.4939805 L16.6740662,56.2206366 Z M37.8368569,46.4531947 L39.563513,48.1798508 C39.8813816,48.4977194 39.8813816,49.0130863 39.563513,49.3309549 C39.2456444,49.6488235 38.7302776,49.6488235 38.412409,49.3309549 L36.6857529,47.6042988 L34.9590968,49.3309549 C34.6412282,49.6488235 34.1258613,49.6488235 33.8079927,49.3309549 C33.4901241,49.0130863 33.4901241,48.4977194 33.8079927,48.1798508 L35.5346488,46.4531947 L33.8079927,44.7265386 C33.4901241,44.40867 33.4901241,43.8933032 33.8079927,43.5754346 C34.1258613,43.257566 34.6412282,43.257566 34.9590968,43.5754346 L36.6857529,45.3020907 L38.412409,43.5754346 C38.7302776,43.257566 39.2456444,43.257566 39.563513,43.5754346 C39.8813816,43.8933032 39.8813816,44.40867 39.563513,44.7265386 L37.8368569,46.4531947 Z M18.3019732,25.290404 L20.0286293,27.0170601 C20.3464979,27.3349287 20.3464979,27.8502956 20.0286293,28.1681642 C19.7107607,28.4860328 19.1953939,28.4860328 18.8775252,28.1681642 L17.1508691,26.4415081 L15.4242131,28.1681642 C15.1063444,28.4860328 14.5909776,28.4860328 14.273109,28.1681642 C13.9552404,27.8502956 13.9552404,27.3349287 14.273109,27.0170601 L15.9997651,25.290404 L14.273109,23.5637479 C13.9552404,23.2458793 13.9552404,22.7305125 14.273109,22.4126439 C14.5909776,22.0947753 15.1063444,22.0947753 15.4242131,22.4126439 L17.1508691,24.1393 L18.8775252,22.4126439 C19.1953939,22.0947753 19.7107607,22.0947753 20.0286293,22.4126439 C20.3464979,22.7305125 20.3464979,23.2458793 20.0286293,23.5637479 L18.3019732,25.290404 Z M29.7093023,61.8604651 C28.135933,61.8604651 26.8604651,60.5849973 26.8604651,59.0116279 C26.8604651,57.4382586 28.135933,56.1627907 29.7093023,56.1627907 C31.2826717,56.1627907 32.5581395,57.4382586 32.5581395,59.0116279 C32.5581395,60.5849973 31.2826717,61.8604651 29.7093023,61.8604651 Z M12.6162791,44.7674419 C11.0429097,44.7674419 9.76744186,43.491974 9.76744186,41.9186047 C9.76744186,40.3452353 11.0429097,39.0697674 12.6162791,39.0697674 C14.1896484,39.0697674 15.4651163,40.3452353 15.4651163,41.9186047 C15.4651163,43.491974 14.1896484,44.7674419 12.6162791,44.7674419 Z M34.5930233,36.627907 C33.0196539,36.627907 31.744186,35.3524391 31.744186,33.7790698 C31.744186,32.2057004 33.0196539,30.9302326 34.5930233,30.9302326 C36.1663926,30.9302326 37.4418605,32.2057004 37.4418605,33.7790698 C37.4418605,35.3524391 36.1663926,36.627907 34.5930233,36.627907 Z M16.1020231,44.5903952 C16.5788261,44.1135923 17.3518763,44.1135923 17.8286792,44.5903952 L27.0375117,53.7992277 C27.5143147,54.2760307 27.5143147,55.0490809 27.0375117,55.5258838 C26.5607088,56.0026867 25.7876586,56.0026867 25.3108556,55.5258838 L16.1020231,46.3170513 C15.6252202,45.8402484 15.6252202,45.0671982 16.1020231,44.5903952 Z M30.6480699,35.0224498 C30.8897178,35.6519641 30.5752899,36.3581807 29.9457756,36.5998286 L17.7875189,41.2669461 C17.1580045,41.508594 16.451788,41.1941661 16.21014,40.5646518 C15.9684921,39.9351374 16.28292,39.2289209 16.9124343,38.987273 L29.0706911,34.3201555 C29.7002054,34.0785076 30.406422,34.3929354 30.6480699,35.0224498 Z M35.8139535,23.4037518 L35.8139535,28.0813953 C35.8139535,28.7556965 35.2673244,29.3023256 34.5930233,29.3023256 C33.9187221,29.3023256 33.372093,28.7556965 33.372093,28.0813953 L33.372093,23.4037518 L31.5841899,23.4037518 L34.5930233,18.3548567 L37.6018566,23.4037518 L35.8139535,23.4037518 Z"/>
</svg>
