<svg xmlns="http://www.w3.org/2000/svg" width="51" height="72" viewBox="0 0 51 72">
  <g fill="#FFFEE7" fill-rule="evenodd">
    <path d="M0.927468339,51.4744928 L17.0291093,51.4744928 L15.7497486,50.1760371 L2.68965818,50.1760371 L2.68965818,5.32112855 L0.927468339,5.29853637 L0.927468339,51.4744928 Z M5.28656953,48.0428599 L5.24019611,48.0428599 L5.24019611,3.06064552 L3.61712652,3.06064552 L3.61712652,49.2485688 L15.0322781,49.2485688 L14.2137727,48.0480942 L15.349601,48.0428599 L16.1926983,49.3041352 L19.244968,52.4019611 L0,52.4019611 L0,4.35910119 L2.68965818,4.39358399 L2.68965818,2.13317718 L5.28656953,2.13317718 L5.28656953,48.0428599 Z M40.7158601,8.48529902 L40.7622335,8.53270872 L40.7158601,8.53270872 L40.7158601,25.127734 C37.7367927,22.7520553 33.959775,21.3317718 29.8504755,21.3317718 C20.2283498,21.3317718 12.4280757,29.1189747 12.4280757,38.7249762 C12.4280757,42.1529724 13.4214324,45.3493464 15.136452,48.0428599 L5.28656953,48.0428599 L5.28656953,0 L32.7860058,0 L40.7158601,8.25446822 L40.7158601,8.48529902 Z M33.1106197,1.67171391 L33.1106197,7.88348088 L39.0213892,7.88348088 L33.1106197,1.67171391 Z M9.64567072,28.8442653 L11.5933542,28.8442653 L11.5933542,30.699202 L9.64567072,30.699202 L9.64567072,28.8442653 Z M9.83116439,6.49227837 L15.0249871,6.49227837 L15.0249871,8.34721505 L9.83116439,8.34721505 L9.83116439,6.49227837 Z M16.3234428,6.49227837 L24.2996705,6.49227837 L24.2996705,8.34721505 L16.3234428,8.34721505 L16.3234428,6.49227837 Z M13.4482909,10.2021517 L26.9893287,10.2021517 L26.9893287,12.0570884 L13.4482909,12.0570884 L13.4482909,10.2021517 Z M13.4482909,13.9120251 L25.134392,13.9120251 L25.134392,15.7669618 L13.4482909,15.7669618 L13.4482909,13.9120251 Z M13.4482909,25.0416451 L17.9465124,25.0416451 L16.4161896,26.8965818 L13.4482909,26.8965818 L13.4482909,25.0416451 Z M13.4482909,17.6218984 L27.916797,17.6218984 L27.916797,19.4768351 L13.4482909,19.4768351 L13.4482909,17.6218984 Z M13.4482909,21.3317718 L26.0618603,21.3317718 L20.914411,23.1867085 L13.4482909,23.1867085 L13.4482909,21.3317718 Z M13.4482909,28.7515185 L15.1641073,28.7515185 L14.3757593,30.6064552 L13.4482909,30.6064552 L13.4482909,28.7515185 Z M25.5981262,6.49227837 L28.0095438,6.49227837 L28.0095438,8.34721505 L25.5981262,8.34721505 L25.5981262,6.49227837 Z M9.64567072,10.2021517 L11.5933542,10.2021517 L11.5933542,12.0570884 L9.64567072,12.0570884 L9.64567072,10.2021517 Z M9.64567072,21.3317718 L11.5933542,21.3317718 L11.5933542,23.1867085 L9.64567072,23.1867085 L9.64567072,21.3317718 Z M9.64567072,13.9120251 L11.5933542,13.9120251 L11.5933542,15.7669618 L9.64567072,15.7669618 L9.64567072,13.9120251 Z M9.64567072,25.0416451 L11.5933542,25.0416451 L11.5933542,26.8965818 L9.64567072,26.8965818 L9.64567072,25.0416451 Z M9.64567072,17.6218984 L11.5933542,17.6218984 L11.5933542,19.4768351 L9.64567072,19.4768351 L9.64567072,17.6218984 Z"/>
    <path fill-rule="nonzero" d="M50.023916,64.3181668 C51.3914272,66.6867658 50.5798853,69.7154815 48.2112863,71.0829927 C45.8129505,72.4676725 42.7842348,71.6561306 41.4167236,69.2875317 L33.6835676,55.6758392 C32.2801547,56.0289541 30.8108053,56.2165204 29.297574,56.2165204 C19.4173581,56.2165204 11.4078606,48.2204446 11.4078606,38.3567853 C11.4078606,28.493126 19.4173581,20.4970503 29.297574,20.4970503 C39.1777898,20.4970503 47.1872874,28.493126 47.1872874,38.3567853 C47.1872874,43.1255803 45.3151123,47.4578382 42.2644975,50.6609861 L50.023916,64.3181668 Z M49.1991606,64.7943395 L41.0835011,50.5201315 L41.5748678,50.0041964 C44.5484302,46.8819536 46.2349419,42.752781 46.2349419,38.3567853 C46.2349419,29.0194498 38.6521812,21.4493957 29.297574,21.4493957 C19.9429667,21.4493957 12.360206,29.0194498 12.360206,38.3567853 C12.360206,47.6941209 19.9429667,55.2641749 29.297574,55.2641749 C30.7129275,55.2641749 32.1046699,55.0910796 33.4511893,54.7522797 L34.1486983,54.5767784 L42.2414789,68.8113589 C43.3460072,70.7244581 45.7922776,71.3799343 47.7053767,70.275406 C49.6482127,69.1537091 50.3036889,66.7074387 49.1991606,64.7943395 Z M29.2167201,52.9720295 C21.1168459,52.9720295 14.5506005,46.4057841 14.5506005,38.3059098 C14.5506005,30.2060356 21.1168459,23.6397902 29.2167201,23.6397902 C37.3165943,23.6397902 43.8828398,30.2060356 43.8828398,38.3059098 C43.8828398,46.4057841 37.3165943,52.9720295 29.2167201,52.9720295 Z M16.0267359,33.7938516 L15.4077114,37.070067 L36.646261,37.070067 L36.646261,33.7938516 L16.0267359,33.7938516 Z M19.8837349,28.1937663 C19.0927128,28.9648931 18.5689228,29.510929 18.3123649,29.831874 C18.0558071,30.152819 17.7066137,30.6988549 17.264785,31.4699817 L31.0992228,31.4699817 L31.0992228,28.1937663 L19.8837349,28.1937663 Z M15.0589336,39.3939369 L15.9315014,42.6701523 L32.2086305,42.6701523 L32.2086305,39.3939369 L15.0589336,39.3939369 Z"/>
  </g>
</svg>
