<svg xmlns="http://www.w3.org/2000/svg" width="477" height="383" viewBox="0 0 477 383">
  <defs>
    <filter id="moonsheep-logo_big-a" width="184.8%" height="234.4%" x="-42.4%" y="-67.2%" filterUnits="objectBoundingBox">
      <feGaussianBlur in="SourceGraphic" stdDeviation="41"/>
    </filter>
  </defs>
  <g fill="none" fill-rule="evenodd" transform="translate(-3 29)">
    <path fill="#FDFBDA" d="M220.667618,255 C231.164966,255 241.384526,256.858834 250.5,256 C264.174689,254.71161 275.864704,249.664997 286.280296,241.912134 C305.722334,223.772473 317,209 324.104076,195.5 C325.055815,191.914461 324.5,190.5 324.104076,181.861925 C323.918956,177.823063 330.923098,187.561418 341,195.5 C352.474974,204.539983 367.813123,211.716456 378.909961,201.878661 C387.807136,197.934808 384.836095,184.844386 378.909961,170.5 C375.58143,162.443191 370.418972,154.203799 368.103166,146.447699 C372.73465,154.916318 375.050391,150.297071 375.822305,136.439331 C376.594219,124.891213 369.646994,119.502092 366.559339,123.351464 C369,123 372,120 369,115 C366,110 361,111.5 362.515236,110.921603 C364.030472,110.343207 365.52877,108.714 366,107.5 C367.105836,104.651106 362.868472,100.294836 359.612114,98.7154812 C355.118954,96.5362697 349.123767,97.0713481 348.80532,94.0962343 C348.688735,93.00703 347.537739,88.5347513 344.5,85.5 C342.144904,83.1472201 338.185038,82.0037847 335.682784,81.7782427 C329.529475,81.2236108 324.788189,90.0513531 324.104076,88.707113 C323.117111,86.7677885 319.765884,83.3286373 315,81.7782427 C309.248166,79.9071075 301.742599,80.217033 297.859004,81.7782427 C291.741642,84.23743 295.176692,94.6997131 295.543263,96.4058577 C290.149327,90.5341361 279.923663,92.7829697 278.561158,92.5564854 C274.172204,89.0747707 275.572668,87.7164306 270.842019,84.8577406 C254.931683,75.2432621 234.169734,71 213.720393,71 C193.370575,71 166.711638,78.6214612 145.791973,94.0962343 C133.194343,103.415 127.26604,119.502092 121.862643,131.050209 C117.636091,130.207132 110.131992,130.20044 105.652451,134.129707 C100.249054,137.209205 102.564796,140.288703 104.880538,143.368201 C98.7052266,143.368201 93.3018295,151.83682 94.0737434,156.456067 C94.2247576,158.414065 101.020968,161.845188 105.652451,162.615063 C103.33671,162.615063 98.4979364,167.517179 97.9333127,171.083682 C97.9333127,174.300317 96.3487305,178.064854 106.424365,178.782427 C116.5,179.5 120.915035,174.558841 123,174 C126.098134,191.446696 130.71028,207.449906 141.160489,220.355649 C158.172296,241.364796 188.912819,255 220.667618,255 Z"/>
    <rect width="477" height="321"/>
    <path fill="#FDFBDA" d="M220.667618,254 C246.912689,254 268.921725,253.833922 286.280296,240.983264 C306.236143,222.465403 320.344676,205.85725 324.104076,190 C324.852624,186.842604 324.104076,184.438001 324.104076,181.259414 C324.104076,179.196229 358.068286,219.543933 378.909961,201.167364 C392.80441,195.041841 374.542044,167.48556 368.103166,146.037657 C372.73465,154.460251 375.050391,149.866109 375.822305,136.083682 C376.594219,124.598326 369.646994,119.238494 366.559339,123.066946 C368.097119,121.127927 369.75827,117.610741 368.103166,115.410042 C366.497933,113.275653 361.582449,112.45543 362.515236,110.704638 C363.190974,109.436313 363.772367,108.19485 364.243597,106.987448 C365.349433,104.154037 362.868472,100.135625 359.612114,98.5648536 C355.118954,96.3974856 349.123767,96.929656 348.80532,93.9707113 C348.598349,92.0475784 341.412588,82.2333175 335.682784,81.7196653 C329.529475,81.1680477 324.788189,89.9478131 324.104076,88.6108787 C321.925966,84.3542887 304.960487,78.8803759 297.859004,81.7196653 C291.741642,84.1654874 295.176692,94.5709103 295.543263,96.2677824 C290.149327,90.4279723 279.923663,92.664584 278.561158,92.4393305 C274.172204,88.9765382 275.572668,87.6255804 270.842019,84.7824268 C254.931683,75.2202009 234.169734,71 213.720393,71 C193.370575,71 166.711638,78.5800403 145.791973,93.9707113 C133.194343,103.238831 127.26604,119.238494 121.862643,130.723849 C117.636091,129.885354 110.131992,129.878698 105.652451,133.786611 C100.249054,136.849372 102.564796,139.912134 104.880538,142.974895 C98.7052266,142.974895 93.3018295,151.39749 94.0737434,155.991632 C94.2247576,157.938988 101.020968,161.351464 105.652451,162.117155 C103.33671,162.117155 98.4979364,166.992629 97.9333127,170.539749 C97.9333127,173.738902 101.58213,177.866235 106.424365,178.196653 C113.171614,178.657062 120.915035,174.555804 123,174 C126.098134,191.351877 130.71028,206.70833 141.160489,219.543933 C158.172296,240.4389 188.912819,254 220.667618,254 Z" filter="url(#moonsheep-logo_big-a)"/>
    <g fill="#231F20" transform="translate(92 69)">
      <path d="M296,124.786917 C295.760766,123.276779 295.544316,121.762212 295.273535,120.258274 C295.133325,119.481505 294.922133,118.715364 294.698673,117.958081 C294.274537,116.525 293.787306,115.110518 293.384201,113.672123 C293.03017,112.408212 292.777791,111.115959 292.436029,109.84762 C292.185403,108.91408 291.886579,107.991169 291.566725,107.078 C291.124186,105.814976 290.67376,104.552837 290.168126,103.314612 C288.682773,99.6743375 287.399849,95.9472634 285.627941,92.4283314 C284.798071,90.7817937 283.986603,89.1255131 283.129568,87.4925267 C282.602026,86.4865356 281.998246,85.5214643 281.443539,84.5294673 C281.305957,84.282531 281.225336,84.002469 281.066723,83.6079731 C281.429518,83.6079731 281.68102,83.5983188 281.930769,83.6097445 C282.491611,83.6363158 282.953429,83.4226822 283.341636,83.0304006 C284.101401,82.2612487 284.623684,81.3751828 284.808587,80.2758377 C285.085502,78.6209742 285.439533,76.979485 285.726964,75.3261273 C285.811967,74.8375688 285.77779,74.3279304 285.80408,73.828212 C285.885577,72.2380055 285.971456,70.647799 286.05383,69.0575039 C286.191411,66.3812379 286.364045,63.7033776 286.025787,61.0300345 C285.753254,58.8729726 285.016273,56.889333 283.856033,55.0496216 C282.675637,53.1771388 281.261265,51.5038526 279.735601,49.9228575 C279.460439,49.6382784 279.491986,49.3530793 279.49812,49.0327174 C279.519152,47.776867 279.357034,46.5346566 278.698921,45.4648056 C278.245867,44.7274507 277.619302,44.084867 277.003253,43.4682346 C276.261014,42.7257427 275.448671,42.055879 274.589882,41.2860186 C274.77829,40.8328885 275.021905,40.3391043 275.187529,39.8198117 C275.319852,39.406893 275.389081,38.9662515 275.432021,38.5318985 C275.512642,37.7155382 275.557334,36.8955465 275.609912,36.0762633 C275.651976,35.421191 275.538931,34.8070386 275.310213,34.1767663 C274.837879,32.8776932 274.008886,31.8151936 273.215821,30.7324113 C272.969577,30.3969923 272.532296,30.2039958 272.179141,29.9500623 C272.036302,29.8478512 271.870678,29.7736285 271.739231,29.6588403 C270.266146,28.37199 268.55558,27.4622757 266.737227,26.8659261 C264.908359,26.2658566 263.002375,26.2152824 261.268148,27.3183476 C260.883446,27.5627154 260.532044,27.9147857 260.274407,28.2934274 C259.89321,28.8539942 260.213065,29.3987068 260.880817,29.4414867 C261.083246,29.4544181 261.304077,29.4400696 261.483721,29.5160636 C262.082244,29.7684914 262.607157,29.6544118 263.137327,29.3130585 C263.863792,28.8458457 264.690156,28.9923424 265.431519,29.165499 C268.233973,29.8197741 270.557959,31.2092784 272.030167,33.826556 C272.347393,34.3911971 272.620803,34.9524725 272.785551,35.5846934 C273.036177,36.5430333 272.956432,37.4505333 272.569101,38.3506819 C272.349146,38.8628889 272.151975,39.385813 271.957433,39.90918 C271.831244,40.2501789 271.589381,40.2980959 271.262516,40.2940216 C270.453677,40.2829502 269.64221,40.2815331 268.835124,40.3331701 C268.142836,40.3774557 267.740608,40.7922344 267.554829,41.5203778 C267.52591,41.6322432 267.474208,41.7385286 267.427763,41.844814 C267.136827,42.5198147 267.548695,43.3386551 268.266396,43.3925949 C269.161113,43.4597318 270.061965,43.4457376 270.961064,43.4645147 C271.047819,43.4663747 271.146842,43.4770918 271.222205,43.4420176 C272.273783,42.9504477 273.11855,43.4604404 273.843262,44.1103755 C274.842261,45.0056527 275.853528,45.9197956 276.387203,47.2163002 C276.55458,47.6240818 276.756132,48.0252205 276.858661,48.4500078 C276.930518,48.7437097 276.928766,49.0928572 276.841134,49.3810677 C276.676387,49.9283489 276.617674,50.4561444 276.708811,51.0266312 C276.831495,51.7964917 276.555456,52.4943438 276.05508,53.0479135 C275.711565,53.4284152 275.255005,53.71698 274.816848,53.996422 C274.083372,54.4643434 274.016773,54.8954192 274.62844,55.5375601 C274.707308,55.6209055 274.8519,55.6992024 274.857158,55.7859136 C274.881695,56.1974152 275.085,56.5401856 275.462692,56.5265456 C275.935025,56.5099828 276.492361,56.4346973 276.850774,56.1649096 C277.639457,55.5707743 278.253754,54.7839081 278.642837,53.8439911 C278.719077,53.6594088 278.841761,53.4948436 279.003879,53.2158444 C279.246618,53.5037007 279.428891,53.7528513 279.642712,53.9690535 C280.900224,55.2400496 281.716072,56.8089104 282.416248,58.4171854 C283.051576,59.8786095 283.351275,61.4529617 283.320604,63.070891 C283.275912,65.4047409 283.282047,67.7411594 283.171631,70.0720865 C283.104155,71.5069392 282.930644,72.9457775 282.678266,74.3599932 C282.306708,76.4407067 281.808962,78.4977718 281.394465,80.5710453 C281.275286,81.1666863 281.035176,81.6235364 280.370053,81.9110383 C280.089633,81.2722632 279.801325,80.620468 279.516523,79.9672558 C279.036302,78.8631278 278.57799,77.7478398 278.07148,76.6554918 C277.65786,75.7612774 276.520403,75.5730637 275.800073,76.2432816 C275.419752,76.5964148 275.344389,77.0905533 275.561715,77.6117059 C276.683398,80.2927548 277.73147,82.9994007 278.700674,85.7436007 C279.300949,87.4434583 280.030043,89.1219703 281.025537,90.6657655 C281.720454,91.741905 282.235727,92.9358441 282.826363,94.0792977 C283.284675,94.9667807 283.777164,95.8392066 284.178516,96.7523752 C284.554455,97.6070868 284.815597,98.512284 285.155607,99.3847099 C285.336128,99.8497084 285.562217,100.298764 285.791811,100.744277 C286.778542,102.6583 287.442788,104.691893 287.940535,106.781287 C288.301576,108.293197 288.541687,109.836106 288.950926,111.332959 C289.399599,112.974182 290.00075,114.572006 290.497621,116.200829 C290.864797,117.408054 291.19692,118.628564 291.489609,119.855275 C291.611417,120.365445 291.634201,120.911043 291.626314,121.438927 C291.611417,122.48761 291.89359,123.538064 291.625438,124.584975 C291.373059,125.5752 291.339759,126.618568 290.888457,127.560965 C290.79031,127.767336 290.791186,128.018878 290.714947,128.238535 C290.448547,129.009104 290.00075,129.668073 289.348772,130.142815 C288.667,130.638813 288.345392,131.342954 288.063219,132.093151 C287.995743,132.272065 287.904606,132.504121 287.757385,132.580293 C286.772408,133.08692 285.771656,133.564318 284.7674,134.033745 C284.621055,134.101945 284.430019,134.072717 284.209187,134.093088 C283.955056,133.052377 283.955056,132.027609 283.910364,131.006383 C283.860414,129.861158 283.739483,128.716819 283.724585,127.57248 C283.715822,126.963996 283.770154,126.319198 283.963819,125.749685 C284.682397,123.634606 285.39747,121.524841 285.839132,119.322962 C286.01089,118.467365 286.449047,117.669339 286.713694,116.828799 C287.101025,115.598545 287.438407,114.353235 287.802077,113.116782 C287.87744,112.862582 287.968577,112.612812 288.063219,112.365698 C288.445292,111.361301 288.446168,111.362187 287.632072,110.580104 C287.166749,110.131934 286.596268,110.105362 286.232598,110.586304 C285.974961,110.927303 285.757635,111.330301 285.634951,111.7395 C285.096894,113.535723 284.622808,115.351432 284.076864,117.144998 C283.752627,118.211394 283.321481,119.243248 282.970079,120.300788 C282.580119,121.470813 282.226964,122.652352 281.853654,123.827691 C281.827364,123.909177 281.767775,123.979148 281.690659,124.110233 C281.040434,123.607149 280.401601,123.116465 279.766272,122.620466 C277.829617,121.108557 275.864044,119.63119 273.967699,118.068795 C272.773282,117.082998 271.702426,115.943973 270.53868,114.918319 C269.354779,113.875836 268.150723,112.851954 266.908109,111.883871 C265.247493,110.589847 263.592134,109.278993 261.841258,108.119597 C259.995739,106.897315 258.041558,105.842433 256.129439,104.722008 C255.930516,104.605094 255.704427,104.482865 255.482719,104.466037 C254.829865,104.418209 254.357531,104.092267 253.89659,103.649411 C253.481217,103.248184 253.19028,103.312841 252.728463,103.661811 C252.412113,103.900067 252.309584,104.185266 252.549694,104.492608 C253.158733,105.272034 253.52328,106.207346 254.274281,106.910601 C256.272279,108.782109 258.471828,110.360447 260.785299,111.800614 C262.915619,113.126524 265.01264,114.492292 266.88883,116.201715 C268.401349,117.578996 270.087378,118.75965 271.686652,120.038617 C272.910864,121.017329 274.145591,121.985411 275.332121,123.011065 C276.161991,123.727606 276.899847,124.552203 277.713067,125.289115 C278.294064,125.816114 278.911866,126.304141 279.548946,126.758511 C279.868801,126.985253 280.06159,127.255395 280.086127,127.620308 C280.252627,130.083472 280.404229,132.547521 280.555832,135.012457 C280.563719,135.124942 280.526914,135.24097 280.504129,135.39597 C279.488481,135.522626 278.496493,135.725454 277.477339,135.514655 C277.223208,135.462398 276.952426,135.480998 276.689532,135.486312 C273.592636,135.548312 270.599146,135.039914 267.705555,133.898231 C266.052826,133.245462 264.370302,132.66975 262.700922,132.06038 C261.942034,131.783152 261.178764,131.515667 260.422504,131.228697 C259.771403,130.981583 259.122054,130.727384 258.484097,130.448385 C257.146841,129.86293 255.812213,129.269503 254.485473,128.657476 C253.744111,128.315592 252.986099,127.987878 252.302574,127.546794 C251.524406,127.044596 250.830365,126.40954 250.081992,125.857742 C249.543935,125.461829 248.990981,125.082744 248.418747,124.739974 C247.221702,124.022548 246.233219,123.064208 245.296439,122.043868 C243.491231,120.078474 241.714065,118.086509 239.882567,116.145029 C237.954675,114.102579 236.131064,111.972442 234.352146,109.79802 C233.070098,108.232968 231.675881,106.760916 230.360533,105.22332 C229.158229,103.819468 227.983968,102.390815 226.817593,100.955076 C226.412736,100.456421 226.089376,99.8895654 225.691529,99.3838242 C225.237598,98.8063402 225.061459,98.7983688 224.453296,99.2013676 C224.260507,99.32891 224.066842,99.4529097 223.808329,99.6211948 C223.34914,99.0038539 222.906601,98.3935987 222.446536,97.7975148 C222.232715,97.5202871 221.987347,97.268745 221.750742,97.0092315 C221.508003,96.7435181 221.169746,96.6035756 220.893707,96.8214607 C220.671123,96.9968316 220.46256,97.3431448 220.459055,97.6168296 C220.451168,98.1066281 220.506376,98.6424836 220.703546,99.0826822 C221.44929,100.745163 222.244107,102.371329 223.511258,103.737982 C224.198289,104.477551 224.664488,105.424377 225.238474,106.272003 C225.532916,106.706887 225.80545,107.167457 226.159481,107.548313 C226.798314,108.237397 227.320598,108.997337 227.761384,109.824592 C227.856026,110.003506 227.984844,110.168248 228.114539,110.325019 C228.74899,111.095588 229.366792,111.8821 230.037173,112.620783 C230.486722,113.116782 231.060708,113.500295 231.499742,114.004265 C233.075355,115.81643 234.880564,117.392997 236.590253,119.06522 C237.698791,120.14756 238.979963,121.047443 240.162111,122.055382 C241.590504,123.273236 242.98735,124.530946 244.417495,125.747028 C244.949418,126.199627 245.543559,126.57694 246.100895,127.001196 C246.821226,127.550337 247.517896,128.130478 248.248742,128.663676 C249.42388,129.521931 250.542934,130.451042 251.776785,131.241097 C252.547942,131.735324 253.250746,132.382779 254.049069,132.866377 C255.523906,133.757403 256.988228,134.6688 258.501623,135.490741 C259.575985,136.074425 260.713441,136.544738 261.838629,137.028336 C263.293311,137.652763 264.818098,138.04159 266.386701,138.205447 C268.468825,138.423332 270.554454,138.623503 272.642711,138.761674 C273.86517,138.843159 275.096392,138.805959 276.322356,138.791788 C277.139958,138.782931 277.922507,138.812159 278.732221,139.061044 C279.492862,139.294872 280.340259,139.279815 281.143839,138.979559 C281.417249,138.877702 281.760764,138.875045 282.050825,138.933502 C282.453929,139.015873 282.785176,139.022073 283.079618,138.679302 C283.387204,138.320589 283.801701,138.192161 284.266148,138.228475 C284.6675,138.260361 284.976839,138.118647 285.292312,137.845848 C285.639333,137.544706 286.062593,137.312649 286.4841,137.123993 C288.017651,136.435795 289.12356,135.218827 290.275037,134.055888 C291.118928,133.203834 292.0671,132.431493 292.775162,131.47581 C293.746995,130.165843 294.591762,128.747819 295.376064,127.31208 C295.727466,126.669054 295.8002,125.870142 296,125.141201 L296,124.786917 Z"/>
      <path d="M232.277032,15.9122981 C231.465855,15.2165095 230.715384,14.5181559 229.908606,13.8928571 C228.239623,12.5985682 226.421073,11.5520108 224.474072,10.7357615 C223.695448,10.4095802 222.940578,9.997962 222.132921,9.77720587 C220.645176,9.36930233 219.158312,8.91381593 217.590506,8.88206455 C216.568176,8.8614571 215.544967,8.8235058 214.525277,8.74686026 C213.077124,8.63777348 211.669442,8.9318585 210.249442,9.11422994 C209.90192,9.15924792 209.54912,9.17322207 209.207757,9.24468479 C208.700991,9.35125976 208.184548,9.44996322 207.704176,9.63604931 C207.002975,9.90766071 206.309691,10.2161532 205.65072,10.5791273 C205.144834,10.857372 204.693496,11.2365312 204.228081,11.5848235 C204.040683,11.7251841 203.903434,11.9430216 203.704599,12.0561414 C202.77025,12.5868052 202.130634,13.4472765 201.390721,14.1820689 C200.476607,15.0908306 199.683026,16.127836 199.185059,17.3435867 C198.560399,18.8673877 198.284142,20.4387716 198.642221,22.0809106 C198.696769,22.3270501 198.725802,22.5787616 198.77947,22.91193 C196.993473,22.0819719 195.138852,22.0023723 193.338778,21.6633666 C192.996535,21.598891 192.655172,21.5229176 192.315569,21.4470327 C191.179745,21.1939061 190.038642,21.2730634 188.902819,21.4245679 C188.280799,21.5074399 187.822422,21.392109 187.361406,20.8758616 C185.641394,18.9484908 183.892349,17.0428772 182.083477,15.1999704 C180.448806,13.5357204 178.558993,12.1906647 176.433392,11.2188424 C174.416007,10.2964604 172.384546,9.40574124 170.343406,8.53753994 C169.702031,8.26446921 169.007868,8.11669704 168.342738,7.89594976 C167.020396,7.45704661 165.707732,6.98497697 164.378352,6.56929035 C163.556618,6.31280287 162.712008,6.13186421 161.876197,5.92328682 C160.715739,5.63326138 159.55704,5.33734558 158.392183,5.06463747 C156.204117,4.55203397 154.012531,4.05232559 151.821825,3.55040611 C150.637613,3.27917502 149.456039,2.99247507 148.265668,2.75109382 C145.837416,2.2583902 143.415322,1.72109314 140.969474,1.33783008 C139.164121,1.05480941 137.35525,0.779897275 135.509426,0.737518467 C133.214024,0.684820018 130.92566,0.39111266 128.631138,0.25992108 C126.515215,0.138678561 124.395774,0.0675551999 122.277212,0.0251757726 C120.317014,-0.0138870062 118.355057,-0.00135741561 116.394859,0.0214905781 C115.643508,0.0303349741 114.892158,0.122464129 114.141687,0.19248256 C112.921403,0.306722086 111.696719,0.399220318 110.482593,0.563578383 C108.756422,0.797218141 107.03729,1.09018699 105.314639,1.35367924 C103.162645,1.68276153 101.008011,1.99084722 98.8604153,2.3420405 C97.9137489,2.49681743 96.9802796,2.73561612 96.0415314,2.9371976 C95.928037,2.96151969 95.8163022,3.00942094 95.701928,3.01974235 C94.296885,3.14356389 92.9991779,3.67902132 91.6671584,4.07885878 C90.3043459,4.48754063 88.9406536,4.8954884 87.5885747,5.33734558 C86.3472628,5.74271079 85.1236349,6.20261938 83.8853143,6.61757191 C83.4755027,6.75502267 83.0363058,6.80219868 82.6249986,6.93522724 C80.9914712,7.46331729 79.3374444,7.94164876 77.7406047,8.56665569 C75.9792422,9.2561825 74.2323963,10.0086637 72.5519755,10.8761221 C70.6197554,11.8736815 68.7699728,13.0319436 66.8791035,14.1106062 C65.6349762,14.820369 64.3621674,15.4814876 63.1373957,16.2222057 C62.1472671,16.8214136 61.1230022,17.3634866 60.1944598,18.0713921 C59.3630474,18.7059775 58.4458543,19.2255857 57.5946464,19.8358491 C56.9069056,20.3289242 56.2610433,20.8806376 55.597497,21.4083827 C54.8669098,21.9894595 54.1106325,22.5426765 53.4155893,23.1635531 C52.7506354,23.7572774 52.1618722,24.4360848 51.5170657,25.0533352 C50.7993236,25.7402794 50.0419025,26.3844168 49.3278557,27.0749873 C48.3596341,28.0114319 47.4446406,29.0045691 46.4556557,29.9173993 C45.1216127,31.1486276 44.0607481,32.6182125 42.8664176,33.9696362 C42.1702307,34.7567875 41.6379508,35.6880139 40.9971913,36.5270818 C38.9366083,39.2264799 37.4383943,42.2516171 35.9460751,45.2801152 C35.0500852,47.0976386 34.368591,49.0006873 33.703989,50.9136417 C33.0202952,52.8815199 32.2567155,54.8213613 31.5371259,56.7771226 C30.9923528,58.2577629 30.4619205,59.7436214 29.9006951,61.2936019 C29.741627,61.2391204 29.5543173,61.1948984 29.3849555,61.1137953 C26.9530082,59.9518185 24.4041353,59.6765809 21.7581324,60.0528215 C19.6920945,60.3461901 17.7304891,60.9254981 15.8370684,61.8353211 C14.5939968,62.4326716 13.5301409,63.2253948 12.4769305,64.0858661 C11.1338256,65.1832788 10.1407057,66.5571673 9.27850021,68.0238335 C8.6696248,69.058274 8.74330817,70.2194548 9.05854984,71.3548984 C9.33647913,72.3538729 10.170091,72.9851859 10.7173276,73.8659109 C9.37167119,74.1305352 8.20662926,74.7780334 7.09221112,75.5201667 C6.63544458,75.8245908 6.17464855,76.152541 5.80367146,76.5527499 C4.67312655,77.7722153 3.50262106,78.942948 2.56453272,80.3529216 C1.69755874,81.6571162 1.00178533,83.0279976 0.357698503,84.4361139 C-0.168716639,85.5858854 -0.0103521959,86.833299 0.179904699,87.9956296 C0.309675418,88.7863186 0.868716239,89.527479 1.31631436,90.2394529 C2.13196073,91.5378102 3.33765828,92.4072143 4.74680992,92.9193049 C5.75638213,93.2854629 6.83120041,93.4782707 7.88513221,93.7099939 C8.4808282,93.8408909 9.0937419,93.8957262 9.79617541,93.9983212 C9.63042081,94.1274494 9.51824612,94.2318132 9.39146672,94.3114128 C8.16080041,95.0906041 7.1109069,96.0776387 6.26922721,97.2574811 C4.9180017,99.1528352 4.03637022,101.225962 4.11995136,103.624562 C4.15294392,104.565606 4.44327841,105.445623 4.97995732,106.16821 C6.28976178,107.932667 8.00610491,109.165576 10.0080316,110.111926 C12.3801524,111.232511 14.8447403,111.386404 17.3682749,111.300613 C19.7631825,111.21836 22.0752128,110.654972 24.2205208,109.611334 C25.6241561,108.929431 27.1186748,108.29971 28.1037006,106.959784 C28.1894812,106.843922 28.3533882,106.764322 28.3903399,106.639616 C28.43433,106.491915 28.4383771,106.265499 28.3529483,106.165557 C28.2698071,106.0665 28.0047229,106.003704 27.9016982,106.064731 C27.6326549,106.225699 27.3907095,106.44504 27.1700552,106.67411 C26.8569339,106.998699 26.5691508,107.228653 26.0431175,107.195045 C25.6028649,107.166742 25.1215255,107.354244 24.7000126,107.54086 C22.8417839,108.36162 20.8886246,108.853369 18.896578,109.137274 C17.8947481,109.279669 16.8539429,109.160269 15.8311737,109.131083 C15.3120908,109.116047 14.7890488,109.071825 14.2765645,108.986035 C12.6470841,108.713627 11.1037364,108.147586 9.71294619,107.275529 C8.30450718,106.392858 7.14389945,105.258122 6.73149251,103.517545 C6.46242282,102.38104 6.71132746,101.327672 7.1809215,100.350366 C8.01453341,98.6168648 9.06884352,97.0107225 10.7895593,96.0263412 C11.4611997,95.64161 12.2192367,95.3824692 12.9670679,95.1684348 C13.8344642,94.9190228 14.5760489,94.462652 15.2883362,93.949677 C15.7827846,93.5932478 15.705802,92.7539147 15.1746658,92.4593963 C14.9510203,92.3355747 14.6841765,92.2586285 14.4290341,92.229442 C12.638638,92.0286742 10.8365407,91.9110437 9.05635034,91.6404052 C7.42176716,91.3918777 5.87551605,90.9416979 4.48799872,89.8662193 C3.29293797,88.9402111 2.65324311,87.8308585 2.34091358,86.4242457 C2.10446693,85.3607071 2.55903396,84.4538027 2.97657015,83.5535316 C4.0422297,81.2546962 5.6306409,79.3696901 7.56143564,77.7471856 C9.03180388,76.5111813 10.684335,75.8618257 12.6041498,75.8577573 C13.3993144,75.8559 14.1654455,75.701123 14.8102521,75.1553354 C15.3751726,74.677738 15.4338553,74.3759672 14.8714862,73.8655571 C14.4635223,73.4944462 13.9711854,73.2151402 13.5084978,72.9070899 C12.7823096,72.4246281 12.0278799,71.9953211 11.566336,71.190481 C11.0223547,70.2419196 10.8431392,69.3622559 11.4299668,68.319767 C12.0700223,67.1829083 12.9726107,66.3020949 13.9231482,65.4936287 C15.9275999,63.7892251 18.3199561,62.8019252 20.8596791,62.2532188 C22.7174679,61.8515948 24.6255814,61.7380328 26.5050133,62.1931654 C27.2968346,62.3851772 28.057511,62.7061403 28.8324401,62.9674038 C29.2177932,63.0971511 29.307181,63.379022 29.2019568,63.7365125 C28.63818,65.6506167 28.2309199,67.5993025 27.9284441,69.5697455 C27.7378791,70.814948 27.5457305,72.0616541 27.4207987,73.3146397 C27.277391,74.747078 27.1509635,76.1861497 27.1216662,77.6244254 C27.0897294,79.2109332 27.1472684,80.8010671 27.2206438,82.3867789 C27.308624,84.2876165 27.3892138,86.1931417 27.5915681,88.0840735 C27.8947477,90.9160491 28.1513858,93.7551003 28.7547537,96.549045 C29.019046,97.7739939 29.0853831,99.0431647 29.3567139,100.26546 C29.5524697,101.149015 29.7624783,102.023726 29.901399,102.920548 C30.0179727,103.667899 30.1697384,104.430286 30.4480196,105.128994 C30.8640777,106.175286 30.7870951,107.326826 31.2812796,108.367811 C31.567567,108.971884 31.4663898,109.748422 31.6353997,110.424134 C32.0169696,111.949792 32.4712111,113.457761 32.8715208,114.978998 C33.3612183,116.838974 33.810357,118.710448 34.3081486,120.567771 C34.5885414,121.613179 34.9426615,122.638245 35.2451372,123.678345 C35.6014568,124.905948 35.9049883,126.146816 36.4042757,127.33285 C36.6370711,127.888278 36.6565148,128.531266 36.8753214,129.094654 C37.4541428,130.585819 38.0865441,132.056642 38.7024051,133.533656 C39.1730989,134.66397 39.6349947,135.797821 40.1342821,136.914869 C40.3479858,137.392466 40.6738643,137.818766 40.9004132,138.291057 C41.7553163,140.079394 42.5225912,141.912837 43.454037,143.658721 C44.2619587,145.173766 45.2378345,146.598598 46.1587227,148.052617 C46.7668415,149.012234 47.3834944,149.968313 48.0425537,150.893437 C48.5829277,151.651401 49.1522473,152.397868 49.7776102,153.085962 C51.2343855,154.689451 52.7121,156.274367 54.2199038,157.829212 C55.7313148,159.387595 57.2144841,160.98843 58.8512668,162.405303 C60.1929641,163.568341 61.4635734,164.844587 63.047568,165.717529 C63.6796174,166.066883 64.2660931,166.518831 64.8156171,166.991122 C65.8424334,167.874677 67.0386115,168.479634 68.1944067,169.147386 C70.2945808,170.360837 72.398802,171.568097 74.5326726,172.719637 C76.0224404,173.522708 77.553295,174.253256 79.0852933,174.973189 C81.0439074,175.892122 83.0110555,176.795135 84.9964156,177.653926 C86.5225192,178.314602 88.0643713,178.947861 89.6330574,179.498867 C91.3530693,180.102939 93.113552,180.592034 94.8520398,181.14304 C95.9078016,181.477358 96.9521259,181.844401 98.0078877,182.177834 C98.3633275,182.290158 98.7337239,182.386562 99.1032406,182.419286 C100.041109,182.501539 100.87692,182.911035 101.754962,183.18698 C102.552062,183.437276 103.375557,183.603551 104.189373,183.799012 C104.330141,183.832621 104.501702,183.780439 104.623115,183.840581 C105.701752,184.376551 106.897402,184.412813 108.037625,184.682567 C109.195443,184.956744 110.336546,185.299906 111.497884,185.552856 C112.295864,185.726206 113.115839,185.789886 113.924376,185.916361 C115.127065,186.105631 116.330633,186.298439 117.529803,186.507166 C118.69642,186.710587 119.860397,187.116545 121.021735,187.10151 C122.172515,187.087359 123.233556,187.481819 124.372899,187.484472 C125.670606,187.487125 126.967433,187.761302 128.265141,187.911656 C129.222365,188.022211 130.182228,188.120384 131.139452,188.232708 C131.574074,188.283121 132.006057,188.350338 132.438039,188.415787 C132.580567,188.437013 132.731893,188.521035 132.861224,188.492733 C133.950418,188.249512 134.994742,188.596213 136.056663,188.71119 C136.229104,188.729763 136.406824,188.736839 136.579265,188.723572 C137.799549,188.628937 139.015435,188.775754 140.23396,188.778407 C141.419053,188.781945 142.603265,188.881887 143.788358,188.922571 C144.039981,188.930531 144.293364,188.855353 144.546747,188.838549 C144.894268,188.814669 145.245309,188.775754 145.590191,188.804056 C145.986982,188.835896 146.386412,189.023397 146.770005,188.98625 C147.721071,188.893384 148.695011,189.168445 149.626721,188.806709 C149.679509,188.786367 149.749893,188.763372 149.796522,188.781945 C150.754626,189.154294 151.700413,188.673159 152.661156,188.745683 C153.593746,188.814669 154.541292,188.785483 155.475641,188.71119 C156.870126,188.59975 158.256693,188.391907 159.649419,188.261894 C160.516024,188.18141 161.389667,188.192024 162.256271,188.118615 C162.742801,188.078815 163.224053,187.958532 163.703544,187.862128 C164.990694,187.602987 166.276084,187.335886 167.562354,187.075861 C168.302267,186.926391 169.052737,186.815836 169.784732,186.631872 C171.305909,186.24891 172.820047,185.835877 174.333306,185.42019 C175.4225,185.121249 176.53105,184.865646 177.585052,184.470302 C179.276031,183.83439 180.945014,183.136567 182.592882,182.393638 C183.891469,181.808139 185.148706,181.128005 186.41298,180.465559 C187.032361,180.14097 187.631505,179.774812 188.226251,179.406001 C189.470291,178.634769 190.71433,177.861769 191.943413,177.064889 C194.17195,175.620599 196.302829,174.04895 198.366843,172.366746 C200.219705,170.856123 201.874612,169.160652 203.510163,167.435111 C204.439233,166.456036 205.42637,165.512339 206.214672,164.425363 C207.566927,162.561848 209.303655,161.059185 210.748289,159.286768 C212.081189,157.65144 213.484472,156.073599 214.877198,154.487799 C216.192501,152.988674 217.544756,151.522273 218.85566,150.020495 C219.491757,149.291716 220.085623,148.524907 220.67333,147.755445 C221.885696,146.169645 223.108621,144.59092 224.273478,142.969742 C224.899017,142.098569 225.496402,141.185828 226.028682,140.266895 C227.030776,138.534278 227.797083,136.665457 228.680403,134.862084 C228.898594,134.416327 229.210924,134.017444 229.439672,133.576109 C230.20334,132.098211 230.970527,130.622081 231.696363,129.125609 C232.723971,127.007376 233.03894,124.719331 233.028382,122.403868 C233.023983,121.521197 232.848023,120.634104 232.984392,119.741705 C233.001108,119.633803 232.954479,119.515288 232.938643,119.407387 C232.010452,119.3782 231.97702,119.407387 231.997255,120.195422 C232.01749,120.982574 232.10723,121.775916 232.036846,122.555107 C231.982298,123.149451 231.720997,123.724336 231.559114,124.31072 C231.372596,124.987316 231.234467,125.679832 231.002199,126.339624 C230.608048,127.460209 230.205099,128.581679 229.451109,129.535989 C229.225,129.823432 229.061357,130.179861 228.941704,130.530099 C228.405025,132.095557 227.283279,133.332888 226.607591,134.82936 C226.08147,135.995051 225.407542,137.105023 224.681706,138.17608 C224.17406,138.926084 223.837976,139.794604 223.325052,140.541071 C222.687196,141.469733 222.198906,142.487723 221.453714,143.358011 C220.543119,144.421108 219.796168,145.623945 218.934842,146.732148 C218.365611,147.464464 217.726875,148.141945 217.104855,148.831808 C216.636801,149.352743 216.147631,149.853336 215.66638,150.362773 C215.626789,150.405226 215.566962,150.43795 215.543208,150.487479 C215.055798,151.504584 214.06866,152.106003 213.459838,153.011669 C212.704968,154.133139 211.546269,154.918521 210.866183,156.058564 C210.206332,157.164998 209.075787,157.755804 208.35347,158.789713 C207.655787,159.78913 206.692405,160.598392 205.881228,161.521747 C204.613434,162.964268 203.409865,164.464278 202.113918,165.879381 C201.065194,167.022962 199.951366,168.112591 198.809383,169.163306 C197.647166,170.232593 196.447996,171.269156 195.202197,172.238502 C194.308319,172.933672 193.309744,173.492637 192.359559,174.114398 C191.919658,174.402726 191.463921,174.670711 191.048654,174.989994 C189.397267,176.260049 187.552323,177.206399 185.757528,178.237656 C185.072163,178.630347 184.398235,179.054878 183.682956,179.384774 C182.173217,180.080828 180.666997,180.800762 179.108868,181.371225 C176.941917,182.165452 174.738894,182.866813 172.530593,183.537218 C171.384211,183.884803 170.19296,184.082033 169.021065,184.344711 C168.026009,184.56759 167.031833,184.801967 166.031499,185.002734 C164.717076,185.266297 163.401773,185.534283 162.077671,185.739473 C160.691104,185.955276 159.295739,186.137471 157.898614,186.265714 C156.41263,186.401034 154.919606,186.515126 153.428343,186.537237 C149.265122,186.598264 145.101022,186.615952 140.936921,186.628334 C140.208446,186.630103 139.48085,186.510704 138.751495,186.468251 C137.386043,186.387767 136.017951,186.335585 134.65162,186.24891 C133.80789,186.195844 132.96768,186.096786 132.12483,186.023378 C131.220394,185.944663 130.313318,185.896903 129.412402,185.789886 C127.702068,185.586465 125.995253,185.347666 124.286678,185.128325 C122.694238,184.923135 121.098278,184.743594 119.508476,184.517177 C118.439518,184.365938 117.377597,184.159864 116.314797,183.965287 C115.164896,183.755675 114.017635,183.536334 112.871254,183.311686 C111.612258,183.064927 110.353262,182.815515 109.096906,182.552837 C107.727935,182.268047 106.353685,182.000946 104.997031,181.663975 C103.128332,181.199644 101.267552,180.701705 99.4155701,180.173694 C97.7905767,179.709363 96.1699824,179.222037 94.5713831,178.675454 C92.843453,178.085532 91.1630322,177.350563 89.4245444,176.795135 C87.1112824,176.053975 84.9495221,174.957269 82.7133307,174.037452 C81.0739966,173.363509 79.4888583,172.552478 77.8975613,171.765327 C76.0660786,170.859661 74.2350357,169.949572 72.4405926,168.973151 C71.0563129,168.220493 69.7271089,167.364355 68.3777573,166.547133 C67.8773262,166.24377 67.372936,165.943061 66.8985471,165.601667 C65.37869,164.505847 63.8225851,163.454248 62.3748718,162.268214 C61.0673108,161.196274 59.8623347,159.992551 58.651112,158.805633 C57.2702636,157.453325 55.8783296,156.102786 54.5908281,154.662034 C53.2645274,153.17706 52.0896405,151.556766 50.7915814,150.046143 C49.4337838,148.464765 48.4513094,146.623362 47.1877385,144.980073 C47.1338067,144.910203 47.0879691,144.833256 47.0480261,144.754541 C46.1843249,143.059071 45.3133215,141.367138 44.4629054,139.665476 C43.8063095,138.352083 43.1538487,137.035152 42.5393954,135.702302 C41.6962816,133.871512 40.8516722,132.040722 40.0843973,130.178092 C39.5726168,128.935455 39.1844484,127.640635 38.7665427,126.361735 C38.6694126,126.065448 38.676363,125.734668 38.6386195,125.418923 C38.6220793,125.28095 38.6565675,125.117329 38.5949814,125.006774 C37.7558267,123.495266 37.5938553,121.7768 37.1228095,120.153854 C36.5861306,118.306259 36.1007442,116.44363 35.5974097,114.586306 C35.3008286,113.490486 35.0148932,112.391127 34.7209515,111.293538 C34.4276257,110.198601 34.1164399,109.107203 33.8400063,108.007845 C33.6270063,107.161436 33.4638911,106.302645 33.2626805,105.453583 C33.1160176,104.832706 32.9257166,104.222443 32.7867959,103.601566 C32.5364044,102.485404 32.3029051,101.364819 32.0749485,100.244234 C31.8879907,99.3270698 31.6778941,98.4125593 31.5506748,97.4856665 C31.3271173,95.8591821 31.1632102,94.2238533 30.9634073,92.5929466 C30.9241682,92.2754328 30.8432264,91.9623412 30.7684433,91.650134 C30.5696962,90.8187608 30.5070543,89.9776587 30.4498672,89.1241745 C30.3695413,87.9193024 30.0602031,86.732296 29.9358872,85.5287506 C29.7742676,83.957013 29.6631487,82.3779345 29.5949641,80.7995636 C29.5411202,79.5451629 29.5308266,78.2836867 29.5978674,77.0307895 C29.6920942,75.2733196 29.8538017,73.5184145 30.0308178,71.7672241 C30.1371858,70.7184556 30.3057557,69.6740209 30.4872588,68.6348044 C30.8160406,66.75652 31.2320987,64.8973395 31.8538544,63.0920213 C32.6944167,60.6494645 33.5273248,58.203989 34.4049268,55.7746987 C35.0713764,53.928431 35.7884146,52.0998521 36.5076523,50.2734844 C37.1737501,48.5816398 37.7910188,46.8629083 38.5795848,45.2292599 C39.3553058,43.6232945 40.3212399,42.1101068 41.2006894,40.5542891 C41.5184737,39.9911664 41.8502469,39.434677 42.1346867,38.8546615 C42.7677918,37.5630259 43.653488,36.4559728 44.5571321,35.3548455 C45.0567714,34.744936 45.4508344,34.0414527 45.98461,33.4669207 C47.1987361,32.1609572 48.4670579,30.9057605 49.7185755,29.6350861 C50.3780747,28.9659191 51.0247288,28.281186 51.71942,27.6510228 C53.1271024,26.3748649 54.5486856,25.1137424 55.9934077,23.8803914 C56.847519,23.1510825 57.7365584,22.457505 58.6493524,21.8037272 C59.2479693,21.37557 59.9349183,21.0737107 60.5500755,20.6665148 C61.150892,20.2685169 61.6791248,19.7551882 62.2949858,19.3866422 C63.5945406,18.6083353 64.9333345,17.8967152 66.2493416,17.1460913 C66.5286785,16.9865384 66.7662249,16.7518082 67.0470576,16.5943779 C68.6775937,15.6789829 70.3150802,14.7757932 71.951159,13.8703039 C72.9170931,13.336014 73.8640234,12.7603322 74.8596948,12.2883068 C75.665065,11.9057867 76.5364204,11.6662804 77.3663372,11.3319623 C77.739197,11.1824035 78.0654274,10.9118534 78.4411906,10.7744115 C79.2044184,10.4951055 79.9896413,10.2777102 80.7605233,10.0185694 C82.0201351,9.59554198 83.2643504,9.12086324 84.5370712,8.74317215 C85.3007389,8.51690597 86.1064611,8.4328842 87.0005154,8.26484068 C87.3935227,7.51011299 88.3591048,7.68553274 89.0919795,7.37118521 C89.3796745,7.24809775 89.7210375,7.17697996 90.0307276,7.0951693 C91.5862167,6.68463897 93.0845186,6.09611516 94.6356086,5.68301111 C96.5201434,5.1814631 98.4354712,4.84905532 100.379833,4.65927227 C101.377527,4.56198391 102.360266,4.30881307 103.352682,4.14260918 C104.295829,3.9845156 105.263611,3.92739849 106.183003,3.68528315 C108.127364,3.17414781 110.162345,3.30570821 112.097029,2.76362633 C112.374166,2.68623786 112.690015,2.62432709 112.961874,2.68071011 C113.675393,2.82921637 114.347561,2.60626683 115.039085,2.554306 C116.198663,2.46807314 117.36528,2.4949778 118.528378,2.46438503 C119.490001,2.43932886 120.4657,2.28012973 121.408848,2.39510688 C122.901871,2.57678846 124.391375,2.39473541 125.87648,2.51819434 C126.219602,2.54656716 126.564484,2.5565171 126.907607,2.57715108 C128.22203,2.65712211 129.535574,2.73745576 130.849118,2.81853234 C132.069402,2.89444379 133.292326,2.94051425 134.509092,3.05511993 C136.68924,3.26038068 138.870268,3.46786136 141.040738,3.75198759 C142.223191,3.90676452 143.38277,4.22958497 144.556425,4.46064482 C146.655631,4.87412034 148.761876,5.25664047 150.857563,5.68891032 C152.425369,6.0120934 153.982618,6.38687468 155.541626,6.74949492 C157.301229,7.15891971 159.064351,7.55433497 160.813397,8.00577063 C161.855082,8.27441916 162.865973,8.65546228 163.89974,8.95653436 C165.239678,9.34639534 166.600731,9.6670047 167.930991,10.0893246 C170.915277,11.0368248 173.814223,12.2097686 176.548646,13.7479859 C178.427902,14.805245 180.008026,16.2487389 181.445621,17.8595688 C182.537455,19.0837216 183.673279,20.2681632 184.786227,21.4728583 C185.004418,21.7086499 185.207652,21.9574428 185.43816,22.2242782 C184.473018,22.793592 183.499078,23.2674747 182.638632,23.8980802 C180.999562,25.0982647 179.7652,26.6553207 178.994494,28.5586347 C178.917072,28.7484354 178.856365,28.951149 178.831731,29.1534203 C178.634655,30.7395743 178.565151,32.3337767 178.92323,33.8992348 C179.064878,34.5175465 179.386006,35.1072024 179.695696,35.6703251 C180.136477,36.4677359 180.623887,37.2405592 181.124494,38.001531 C181.501928,38.5742057 182.032449,38.934261 182.753006,38.8203452 C183.316959,38.7308399 183.772696,38.9630053 184.255707,39.1856188 C184.460701,39.2799 184.846054,39.3222647 184.95075,39.20658 C185.088879,39.0547217 185.080081,38.7150085 185.04137,38.4714338 C185.005298,38.2495279 184.885645,38.0100217 184.73256,37.8438355 C183.787653,36.8148784 183.463006,35.432234 182.700218,34.2986477 C182.278793,33.6714916 181.886402,33.015149 181.564394,32.3322732 C180.853515,30.8239499 181.244147,28.5579271 182.496984,27.5091587 C183.571222,26.6106565 184.655137,25.7232982 185.921171,25.0522739 C187.583116,24.1722565 189.279374,24.1736716 191.038977,24.4121165 C192.342842,24.5886506 193.651107,24.7441351 194.947055,24.9711708 C196.638033,25.267458 198.363324,25.4314331 199.979519,26.0578817 C200.824129,26.3847706 201.646743,26.7672907 202.292517,27.4583034 C202.609246,27.7976629 202.997238,28.0766151 203.376433,28.3497301 C203.800497,28.6548617 204.477944,28.5468716 204.904648,28.1238442 C205.451005,27.5831863 205.56098,27.1008129 205.139555,26.6615117 C204.615193,26.1153703 204.079394,25.5802843 203.547114,25.0385651 C204.057399,24.4998529 204.061798,24.3358778 203.637734,23.6710445 C203.21103,23.004354 202.753533,22.3488073 202.41393,21.637541 C201.930919,20.6237963 201.770795,19.5745856 202.342666,18.4996377 C202.669952,17.8842446 202.877585,17.2054372 203.175838,16.5730629 C203.531278,15.8201395 204.111947,15.2632963 204.730447,14.7083105 C206.435503,13.181237 208.522392,12.6958566 210.673506,12.3671988 C211.653605,12.2175516 212.642502,12.104078 213.632279,12.0554339 C216.157309,11.9304625 218.651546,12.2330293 221.106192,12.8012818 C222.096849,13.0305285 223.041756,13.4524062 224.014816,13.7616063 C225.649487,14.280507 227.109958,15.1520338 228.478929,16.1433137 C229.858458,17.144234 231.125372,18.3116943 231.697243,20.013533 C231.911034,20.6491797 232.211927,21.1566712 232.938643,21.2041656 C233.566821,21.2451151 234.108779,20.6959666 234.485334,20.0160979 C235.109113,18.892152 235.421442,17.6719791 235.793598,16.4643653 C235.867502,16.2237093 236.032904,15.993755 236.204466,15.8039542 C237.045556,14.8760002 238.059087,14.2041799 239.265295,13.860752 C240.219,13.5887868 241.174464,13.28622 242.150164,13.1314431 C243.402122,12.9327979 244.657598,13.1042023 245.887561,13.4074767 C247.281166,13.7509046 248.667733,14.1706596 249.843148,15.0023866 C250.792454,15.6738532 251.631785,16.5100024 252.477274,17.3182033 C253.789938,18.5729578 254.638946,20.1553971 255.487075,21.7388978 C255.959528,22.6204187 256.254262,23.5188325 256.08358,24.5263861 C256.014076,24.9368545 256.095018,25.2866504 256.422304,25.561888 C256.741672,25.8305807 257.05752,26.0925517 257.522056,25.8924915 C257.971634,25.6986223 258.383381,25.451333 258.43353,24.9169546 C258.472241,24.4920698 258.618288,24.1593436 258.847037,23.7959274 C259.025636,23.512553 259.029156,23.0401738 258.952613,22.6859557 C258.658759,21.3261298 258.145835,20.0492644 257.287149,18.9385851 C256.321127,17.6896679 255.407893,16.3902493 254.350371,15.2242925 C253.571747,14.3660323 252.62684,13.6481327 251.701289,12.9390775 C250.982491,12.38816 250.192429,11.9256866 249.409406,11.4676353 C248.987981,11.2214073 248.527845,10.9604976 248.058911,10.8941647 C247.040981,10.7508854 246.184934,10.1398261 245.130932,10.0517359 C244.238813,9.97700078 243.389804,9.9957509 242.538157,10.2102275 C241.006422,10.5953125 239.476447,10.987473 237.951751,11.4001526 C237.093945,11.6326717 236.336436,12.0771026 235.665147,12.6590639 C234.844293,13.3720991 234.026077,14.0903525 233.229857,14.8314244 C232.892893,15.1450467 232.616635,15.5234984 232.277032,15.9122981"/>
      <path d="M187.939021 46.7251469C187.236309 46.2371687 186.602629 45.5651209 185.615823 46.0655933 185.411382 46.1696824 185.164459 46.2635649 185.03613 46.4351404 184.193583 47.5606753 182.96959 48.3679598 182.329715 49.6657741 182.204926 49.9172422 181.944728 50.1074709 181.730551 50.30949 180.087054 51.8628198 179.256013 53.8513353 178.724111 55.9770231 178.477188 56.9675854 178.381605 57.9959822 178.214335 59.0063417 178.180704 59.2090647 178.140878 59.4114357 178.086891 59.6094074 177.422235 62.0620565 177.142566 64.5550038 177.369134 67.0883373 177.425775 67.7233424 177.58508 68.3572037 177.766511 68.9712679 178.307263 70.7999102 178.69933 72.6513413 178.975459 74.5423668 179.389652 77.3803127 179.94014 80.2003092 180.797732 82.9470122 181.373 84.7892046 181.902246 86.6501384 182.581948 88.4538803 183.476711 90.83218 184.445816 93.180564 185.651224 95.4348015 186.563688 97.1426371 187.495622 98.8390344 188.665629 100.370015 190.304701 102.515148 192.050861 104.577573 194.366979 106.083038 195.852055 107.04914 197.41767 107.705526 199.231977 107.765357 199.456774 108.72618 200.110809 109.2849 200.948046 109.741554 202.114512 110.377703 203.303105 110.673341 204.589935 110.238683 205.197064 110.034553 205.783838 109.764431 206.355566 109.476712 206.545847 109.379926 206.774184 109.145 206.790115 108.956707 206.851181 108.206174 207.360072 107.688808 207.691073 107.082575 208.505299 105.589429 209.427498 104.149075 210.14083 102.611055 210.588654 101.644953 210.839117 100.557429 211.001962 99.4980601 211.407305 96.8672365 211.777246 94.2276142 212.030364 91.5791931 212.188784 89.9188707 212.208255 88.2303923 212.111787 86.5647026 211.993193 84.5201391 211.898495 82.4784793 211.89584 80.4305723 211.894955 79.7911678 211.794062 79.1492116 211.701134 78.5138545 211.464832 76.8912787 211.210829 75.2708145 210.955941 73.6503504 210.679812 71.8876986 210.384213 70.1275984 210.117819 68.3634509 209.933733 67.1484327 209.771773 65.9294551 209.626629 64.7089817 209.559367 64.1360077 209.644329 64.0505719 210.209862 63.9398838 210.408993 63.9006414 210.624055 63.8647425 210.821416 63.896242 212.442787 64.1558049 214.042918 64.0476684 215.647473 63.7265143 218.568065 63.14175 220.488576 61.3768985 221.509898 58.6829879 222.472808 56.1441992 222.917977 53.4905869 222.727696 50.7585778 222.717961 50.6133986 222.712651 50.4642599 222.674594 50.3248878 222.537415 49.8149128 222.009053 49.3141764 221.58778 49.289628 221.027558 49.2569846 220.754084 49.7152231 220.636375 50.0800189 220.369097 50.9008534 219.952249 51.6854372 220.016856 52.6111527 220.108014 53.9430181 219.888527 55.2499831 219.207055 56.4173121 218.430001 57.7447782 217.459125 58.9070039 216.054586 59.6493537 215.485513 59.9507106 214.947416 60.3114589 214.393389 60.6407078 213.702182 61.0505532 212.946368 61.0882998 212.169314 61.0315479 211.317917 60.9691648 210.46298 60.9464641 209.613353 60.8687712 209.185885 60.8298808 208.736291 60.7748886 208.349534 60.6080645 207.648592 60.3063557 206.94942 59.9701558 206.320165 59.5452646 205.770562 59.1742217 205.242201 58.9795935 204.531523 59.2193592 203.872178 57.6711327 203.273014 56.1614447 203.900499 54.4698868 203.950945 54.3338582 203.979266 54.1875352 204.002277 54.0438517 204.068654 53.6340064 203.988116 53.2061236 203.598704 53.0638479 203.277439 52.9465607 202.809259 52.9355623 202.51897 53.0891883 201.944587 53.3934488 201.548095 53.8898738 201.378169 54.5746798 200.906449 56.4642094 201.068409 58.2870446 201.789707 60.0856832 202.364975 61.5249813 203.15796 62.8026465 204.356288 63.8189011 204.511168 63.9505303 204.631532 64.196895 204.651002 64.4014657 204.766056 65.5676509 204.841283 66.7370916 204.938636 67.9051244 205.117412 70.0663592 205.313003 72.2260982 205.482043 74.3875969 205.613913 76.0813546 205.759942 77.7759041 205.816584 79.4729173 205.874996 81.2605575 205.892696 83.0540049 205.822779 84.8412932 205.721886 87.4471283 205.598867 90.056131 205.343979 92.6508798 205.20857 94.0314023 205.015634 95.4400807 204.368678 96.7246969 204.26867 96.9226686 204.305841 97.1848711 204.258935 97.4136383 203.94475 98.9349407 203.335851 100.355937 202.718986 101.770775 202.626058 101.984584 202.395066 102.202793 202.176464 102.284621 201.432156 102.563541 201.282586 102.71664 201.280816 103.424058 201.278161 104.340007 201.261346 104.354965 200.379858 104.635645 200.217013 104.687558 200.016996 104.757947 199.929379 104.884649 199.49306 105.512 198.86823 105.399376 198.336328 105.197885 197.489357 104.875851 196.62557 104.515102 195.890997 103.997736 194.055449 102.704321 192.552671 101.059837 191.182648 99.2860104 189.283379 96.828522 187.864679 94.1097111 186.598204 91.2923542 185.383061 88.5876212 184.39537 85.8029076 183.509457 82.9800075 182.737713 80.5181198 182.263338 77.9855781 181.807548 75.4540923 181.502214 73.7589269 181.292462 72.045372 181.088906 70.3340169 180.938451 69.0563517 180.89951 67.7651365 180.752595 66.4867674 180.523373 64.5055548 180.57559 62.519943 180.599485 60.534771 180.60391 60.1310848 180.704804 59.7205355 180.814547 59.3274957 181.183604 58.0029332 181.54204 56.6739714 181.975704 55.369558 182.176605 54.7638527 182.536811 54.2103239 182.829755 53.636206 183.164296 52.9839554 183.467861 52.3115556 183.856388 51.6930921 184.117471 51.2803431 184.486528 50.9283935 184.838769 50.5811952 185.568917 49.8600503 186.322075 49.1609024 187.064614 48.4515479 187.549609 47.9881182 187.784141 47.3989545 187.939021 46.7251469M244.108959 65.6462038C244.224902 65.5750086 244.242739 65.2680235 244.226686 65.0760257 244.135715 63.978316 243.687106 62.9833459 243.230469 62.0012403 243.097581 61.7145212 242.813075 61.5618216 242.405492 61.7141687 241.932802 61.8915398 241.437815 61.8797327 240.92945 61.6895852 240.371141 61.4803172 240.243604 61.5945115 239.909154 62.074374 239.204578 63.0843232 239.357979 64.2045017 239.455193 65.3139303 239.471247 65.4957071 239.615729 65.6953708 239.755752 65.8315932 240.240037 66.3026444 240.723429 66.780304 241.254982 67.1962847 241.825778 67.6438098 242.936153 67.5887393 243.753996 67.0997131 243.72724 66.5676878 243.501597 66.0166301 244.108959 65.6462038M245.447653 76.2865331C244.145526 76.3159628 242.923667 75.9723227 241.710727 75.5710569 240.927667 75.3121814 240.148174 75.0441422 239.366006 74.781654 238.133445 74.3671713 237.266549 73.4819898 236.527191 72.4959191 235.431085 71.0346559 234.713132 69.4075643 234.729185 67.5421276 234.738104 66.4311129 234.744347 65.3227416 235.110013 64.2437119 235.398086 63.3901629 235.599648 62.5078891 235.859182 61.6440309 235.92518 61.4233964 236.042015 61.2078724 236.177579 61.0187822 237.036447 59.8178925 238.157525 58.9290983 239.532785 58.3714322 239.796778 58.2645514 240.117851 58.2498365 240.409492 58.2630534 241.592108 58.3155687 242.775617 58.3772477 243.953774 58.4775201 244.2909 58.5061567 244.614648 58.6754215 244.944639 58.7800114 244.962477 58.7132219 244.98299 58.6783292 244.974071 58.6673151 243.60327 57.0192527 242.28509 55.3021099 239.961774 54.8854243 239.873479 54.8696521 239.780725 54.8589904 239.703132 54.8215425 238.356412 54.1798167 236.8991 54.1265966 235.450706 54.077694 234.870992 54.0583091 234.281468 54.1508276 233.703537 54.2389404 233.206767 54.3141888 232.722483 54.465038 232.22928 54.5641649 231.640647 54.6827648 231.127823 54.9360892 230.616783 55.2536478 229.172849 56.1520462 227.986665 57.3510856 226.731807 58.4639507 226.193118 58.9419628 225.746293 59.5638632 225.392221 60.1942224 224.734915 61.3668279 224.15966 62.5864857 223.586189 63.8027953 223.427436 64.138417 223.339141 64.5286688 223.314169 64.9001525 223.168795 67.0295752 223.402464 69.1417279 223.981286 71.1800421 224.287197 72.2561641 224.940936 73.2440851 225.495678 74.2405531 225.907721 74.979203 226.412518 75.6668355 226.876289 76.3772893 226.941396 76.4759757 226.998475 76.5806537 227.073392 76.6706169 228.700159 78.6160601 230.360817 80.5504892 232.586027 81.8468933 233.802535 82.555761 235.135877 83.0950997 236.466544 83.5764601 237.914937 84.1003789 239.425761 84.412034 240.994557 84.4076284 242.338602 84.4039277 243.565812 84.0312985 244.745753 83.4516042 244.98299 83.3355596 245.219335 83.1795999 245.393249 82.9864565 246.582109 81.6673193 247.676431 80.2788373 248.186579 78.5484776 248.417573 77.7628636 248.568298 76.9529304 248.726159 76.1481959 248.776995 75.8900253 248.734186 75.6143203 248.734186 75.1569266 247.716565 76.2105798 246.591027 76.2608922 245.447653 76.2865331M220.470003 66.0896757C220.555622 63.1680304 221.393086 60.4849947 223.151849 58.1210156 224.04996 56.9142222 225.148741 55.8851525 226.313521 54.92578 228.264036 53.3199236 230.490138 52.2735837 232.96953 51.7724861 234.772887 51.4078752 236.597648 51.2533253 238.444707 51.373423 239.168903 51.4203872 239.860993 51.5055923 240.470139 51.9354948 240.612837 52.0364721 240.799238 52.2045914 240.928559 52.1763072 241.446734 52.0621129 241.763347 52.4208203 242.148634 52.6136111 242.544623 52.811865 242.909397 53.088275 243.322332 53.2322513 244.422005 53.6158946 245.276414 54.3160392 246.00507 55.1761966 246.63027 55.914494 247.297387 56.6388696 247.792373 57.4601693 248.715457 58.9940375 249.535083 60.5903777 250.382358 62.1686547 250.604433 62.5817276 250.838102 63.0072245 250.950477 63.455102 251.24301 64.6156361 251.572109 65.7812808 251.704998 66.9649885 252.017151 69.7324363 252.24101 72.5086954 251.867317 75.2979071 251.722835 76.3724431 251.61046 77.4470672 251.17612 78.4523465 250.298522 80.479294 249.313008 82.4279974 247.774536 84.0845186 247.034286 84.8827328 246.246766 85.5369705 245.260361 85.9797375 243.608621 86.7205902 241.829345 86.8600728 240.062555 87.0723366 238.707808 87.2349929 237.421734 86.8472965 236.114256 86.6236661 235.649593 86.5440121 235.176011 86.4731694 234.728294 86.329986 233.342331 85.886426 231.996502 85.3585421 230.971746 84.2670003 230.911991 84.203471 230.834399 84.1502508 230.755022 84.112098 229.367276 83.4383872 228.425464 82.2202274 227.256225 81.2807683 226.366141 80.5666139 225.631242 79.6550866 224.866911 78.7981893 223.628107 77.4107647 222.570351 75.9025374 221.885397 74.1630138 221.659754 73.5895755 221.332439 73.0429235 221.187956 72.4518627 220.76967 70.7409758 220.388843 69.0180175 220.469111 67.1775167 220.469111 66.8544951 220.458408 66.4719091 220.470003 66.0896757M63.2521588 53.8593847C63.7502869 54.3591056 64.228844 54.883986 64.7708958 55.3310768 65.4516265 55.8926739 66.2648371 56.0638112 67.1541174 56.0982165 68.487595 56.1504912 69.7016105 55.8311534 70.8956122 55.2777352 71.637978 54.933238 72.4117811 54.6398598 73.197008 54.4105802 74.9544036 53.8975238 76.2484738 52.7048078 77.5369649 51.5072021 78.3571714 50.7448631 79.1693194 49.964388 79.9017668 49.1193697 80.7442009 48.1477542 81.5083514 47.1057279 82.2813575 46.0756146 82.8990363 45.2525551 83.5244194 44.4297624 84.0650543 43.5562953 84.8450564 42.2961023 85.9397868 41.319686 86.875559 40.2013814 87.9205209 38.9530124 88.7855368 37.5950266 89.1034532 35.9262377 89.2956199 34.9179943 89.6923512 33.9481569 90.0084964 32.9643617 90.2378567 32.2483409 90.0943959 31.5622803 89.8482099 30.8910664 89.3788626 29.6082921 88.5526343 28.5580868 87.5312283 27.6972438 87.1592927 27.3835069 86.5700405 27.2467748 86.0627027 27.194589 84.5354643 27.0364315 83.0395748 27.2105026 81.5821186 27.7550304 81.1574036 27.9138992 80.6500658 27.923234 80.1880686 27.8921181 79.2885159 27.8321089 78.4860205 28.0769464 77.7682734 28.5762229 76.7210976 29.3041566 75.5100931 29.7119524 74.4290003 30.3587182 73.7128472 30.7876728 72.8206446 30.8921332 72.2523801 31.5978413 71.8128762 32.1438805 71.2952659 32.6261766 70.8531939 33.1702599 70.2023066 33.970827 69.553279 34.7768171 68.9673033 35.6251249 68.3072062 36.5804712 67.3478781 37.2820009 66.7002674 38.1988524 65.8630581 39.3841896 65.0055695 40.5921968 64.4675912 41.9827209 64.0660779 43.0218134 63.474966 43.9889838 63.0963887 45.034744 62.5587646 46.5197715 61.9894375 48.0055102 61.9548121 49.6298479 61.9366581 50.481445 61.7854043 51.3297527 61.740772 52.1820611 61.7101316 52.7636613 61.7591917 53.3500622 61.775486 54.0575483 62.4562167 53.232622 62.6229678 53.2278212 63.2521588 53.8593847M60.2710951 56.4035077C59.9862102 55.602585 59.8456717 54.7509879 59.6338455 53.9234834 59.5471491 53.5834313 59.3519714 53.2488911 59.3541853 52.912573 59.3637494 51.3760709 59.2914876 49.827656 59.7766865 48.3325825 59.8943775 47.9699492 59.9917892 47.59807 60.0626341 47.2231681 60.3855096 45.5192627 60.6641071 43.8037999 61.5595863 42.2731654 61.6621342 42.0972274 61.7149136 41.8920404 61.8034697 41.7067676 62.1186409 41.0466664 62.433015 40.3865653 62.7602298 39.7327763 62.8650802 39.5234998 63.0023421 39.3289811 63.1355305 39.1352625 63.583093 38.4836961 63.995233 37.8010137 64.4959292 37.1923872 65.3925596 36.1033315 66.3548986 35.0698398 67.2666722 33.9934083 67.7009512 33.4807075 68.1496649 32.9609834 68.4717435 32.3776052 69.1628352 31.1240798 70.0281168 30.0257783 71.0830855 29.0692762 71.3228954 28.8514651 71.5483592 28.6148066 71.8055261 28.4195767 72.289308 28.0524982 72.7840709 27.6975994 73.2881322 27.3582586 74.0422759 26.850803 74.8135109 26.3681513 75.5680973 25.8606958 75.8355367 25.6802237 76.0613548 25.4384089 76.3285285 25.2579368 76.9598449 24.8316493 77.3277069 24.2822318 77.2661604 23.4858432 77.2532312 23.3203067 77.2757244 23.1187647 77.3609154 22.9838996 77.9896637 21.9881915 79.1398302 21.5763062 80.2372173 21.9563644 80.6286352 22.0915851 80.9478799 22.063403 81.3215866 21.8507482 81.693168 21.6396048 82.1323176 21.494427 82.5565899 21.4414411 83.5698487 21.3140438 84.5996675 21.3099543 85.6092069 21.1613982 87.2692794 20.9172719 88.8882619 20.826947 90.3760042 21.8074527 90.4468491 21.8544822 90.5531164 21.8485257 90.6230757 21.8967108 91.2527095 22.3282436 92.0753956 22.3690499 92.6421546 22.9435379 93.1327554 23.4410363 93.556939 24.0359719 94.2857557 24.2444482 94.3707695 24.2688964 94.4230176 24.4196751 94.4841213 24.5156009 95.1491776 25.5572716 95.8726808 26.5674708 96.4606933 27.6516368 97.0044277 28.6529458 97.4339247 29.7208427 97.8430539 30.7869615 97.9590624 31.0881632 97.8572229 31.4922251 97.7908058 31.8363667 97.764239 31.9715874 97.5703011 32.1453029 97.4321536 32.1668173 97.2984339 32.1875316 97.0832426 32.0708915 97.0026566 31.9490062 96.8423701 31.7078137 96.725476 31.4296378 96.6333777 31.1526175 96.1658015 29.7423571 95.483034 28.4458918 94.6080999 27.2508643 94.4956336 27.0982187 94.3264915 26.9878907 94.0785344 26.7619005 93.9864361 27.5838931 93.8872533 28.2721763 93.8456319 28.9637489 93.8350052 29.1403982 93.9944061 29.3349169 94.0971312 29.508988 94.3769685 29.9831051 94.5478817 30.4469094 94.2512188 30.9984606 94.1316681 31.2203613 94.07942 31.5267193 94.1166135 31.7763575 94.2255375 32.4923783 93.8571442 33.0932704 93.6481518 33.7070533 93.3612301 34.5504714 92.8883406 35.3332579 92.4703558 36.1284909 91.3731458 38.2121878 90.3910588 40.354027 89.152159 42.3668687 88.4941873 43.4359213 87.9615224 44.5831193 87.1855053 45.5840726 86.5748225 46.3722822 86.0172734 47.2053876 85.3671831 47.9584808 84.735424 48.6900595 84.0174112 49.3472268 83.3344666 50.0339987 82.7783343 50.5925731 82.2987145 51.216402 81.6223231 51.6679379 80.866674 52.1728152 80.2301328 52.8581646 79.4722697 53.3585968 78.7210484 53.8549395 78.0627224 54.4639217 77.30114 54.9547524 75.6492147 56.0200712 74.0493603 57.1650466 72.2523801 57.9822384 70.8657688 58.612735 69.4311602 59.0842739 67.8894871 59.1097889 67.189894 59.1213462 66.4877328 59.0524468 65.7892909 59.0846295 64.8365159 59.1290807 63.9694632 58.8475265 63.1808712 58.3804327 62.5735535 58.0211777 62.007503 57.8833788 61.2547762 58.2745499 60.8894823 57.5951569 60.4939908 57.0302704 60.2710951 56.4035077M159.693655 100.886288C159.110511 101.333803 158.437171 101.661685 157.82813 102.07907 156.836874 102.75876 156.409116 103.840771 155.871516 104.846572 155.511628 105.522718 155.271405 106.232538 155.057079 106.967171 154.589135 108.564932 154.597173 110.183961 154.833824 111.789697 154.932056 112.458753 155.359814 113.087046 155.678623 113.713567 155.959926 114.263877 156.286772 114.792919 156.61719 115.315759 156.852949 115.689721 157.130679 116.036213 157.387869 116.395997 158.037097 117.304319 158.640781 118.248974 159.345376 119.113874 160.248222 120.221584 161.366287 121.09889 162.596872 121.843271 163.535439 122.411304 164.446323 123.025419 165.352741 123.64485 167.299531 124.975874 169.365093 126.033072 171.725353 126.428303 172.123641 126.494766 172.522822 126.563001 172.920218 126.633008 174.03471 126.832396 175.083119 126.388425 176.150282 126.235118 177.4407 126.049909 178.460532 125.206278 179.316941 124.22529 179.512513 124.001976 179.725946 123.791068 179.894727 123.55003 180.184959 123.133531 180.305518 122.763999 180.109052 122.17647 179.805425 121.267262 179.651825 120.262347 179.676829 119.3044 179.717015 117.798801 179.362485 116.366754 179.057071 114.93382 178.582876 112.708653 177.781835 110.585395 176.427119 108.71115 176.167249 108.352252 175.917203 107.970313 175.590356 107.678764 174.776812 106.955651 174.257073 106.025175 173.651603 105.151414 172.493353 103.480101 170.826972 102.480504 168.978414 101.75296 167.876424 101.319624 166.761931 100.904011 165.623327 100.584105 164.659755 100.312937 163.654211 100.191532 162.703142 100.010754 161.649375 100.276604 160.582212 100.205711 159.693655 100.886288M180.478764 108.082857C180.46269 108.250342 180.429648 108.433779 180.476978 108.588859 180.637722 109.124104 180.866336 109.641626 181.002968 110.182188 181.318206 111.433457 181.606652 112.691816 181.881703 113.952832 182.022801 114.601507 182.067452 115.273222 182.238019 115.913036 182.339824 116.297632 182.667563 116.622856 182.773833 117.007453 183.008698 117.85906 183.166763 118.731049 183.358763 119.593291 183.599879 120.685049 183.392698 121.706801 182.84974 122.665634 182.401442 123.460527 181.932605 124.243899 181.461089 125.026386 181.044941 125.715824 180.544848 126.295378 179.776848 126.663137 179.112439 126.980386 178.502504 127.421697 177.905965 127.86035 177.414802 128.221021 176.895063 128.4594 176.292272 128.53561 175.704663 128.609162 175.087584 128.6003 174.537482 128.785509 173.256887 129.217959 172.030767 129.172765 170.698377 128.921979 167.60941 128.341539 164.998211 126.768591 162.375403 125.231976 160.928705 124.383028 159.626678 123.282407 158.295181 122.250022 155.931349 120.419199 154.052429 118.246316 152.828094 115.481472 152.461062 114.653791 152.130643 113.771168 152.009192 112.882342 151.710029 110.678442 151.835053 108.474543 152.461062 106.3247 153.121899 104.053452 154.319442 102.059574 155.781321 100.215459 156.381432 99.4586715 157.099423 98.7896148 157.947795 98.3385554 159.888334 97.3035114 161.894063 96.4572211 164.159662 96.3420193 164.93302 96.3030279 165.773355 96.2799875 166.471699 95.7899367 166.778006 95.5754841 167.074489 95.6703041 167.385261 95.8501961 167.998768 96.2082079 168.654247 96.4173435 169.377596 96.5236837 170.719809 96.7195268 171.949502 97.2042606 172.888962 98.2641173 173.25778 98.6806162 173.70072 99.0448311 174.153482 99.3744856 176.742356 101.258478 178.798988 103.670627 180.889555 106.047329 181.039582 106.217473 181.057443 106.540925 181.044048 106.788166 181.039582 106.859059 180.71095 106.911343 180.606466 106.947676 180.564494 107.309232 180.515378 107.695601 180.478764 108.082857M265.897605 66.4121448C265.722555 66.9977843 265.531348 67.5789365 265.391308 68.1730928 265.367968 68.273004 265.572641 68.4291441 265.738714 68.6473738 266.220772 67.8510139 266.206409 67.1588695 265.897605 66.4121448M262.23324 61.6702504C261.345426 61.476472 260.60214 61.633253 259.820254 61.9854609 258.771754 62.4578188 258.20621 63.3026233 257.948573 64.3923982 257.594884 65.8840161 257.51499 67.4087851 257.640666 68.9270521 257.741207 70.1374348 257.979095 71.3367367 258.179279 72.5367711 258.421655 73.9863549 259.356149 74.8582663 260.566233 75.5259595 261.813122 76.2139829 263.156962 76.3620641 264.624682 76.4242453 264.54389 76.2398994 264.517857 76.0964887 264.436168 76.0072004 263.191074 74.6536817 262.600395 72.9499698 262.142574 71.2260192 261.880449 70.2400935 262.07794 69.1857592 262.503444 68.2088996 262.814045 67.4934945 263.086942 66.7573928 263.327522 66.014148 263.711733 64.8316049 264.33024 63.8170153 265.423625 62.8809995 264.285356 62.4116636 263.332011 61.9091767 262.23324 61.6702504M272.667971 75.2478379C272.50908 75.666806 272.301714 76.1060128 272.000988 76.4207654 271.523418 76.9202303 271.237056 77.4937815 271.020713 78.134093 270.697545 79.0853107 270.496463 79.2108638 269.498233 79.1463931 269.290867 79.1326564 269.087989 79.0704751 268.880623 79.0536248 268.711858 79.0402545 268.528729 79.0246863 268.370736 79.0738635 267.833919 79.2413592 267.304282 79.4348629 266.773748 79.6225972 264.747666 80.3391929 262.735048 80.2399226 260.737691 79.5046451 260.488134 79.4127011 260.264609 79.2471286 260.013257 79.161595 257.698118 78.3736603 256.317473 76.5836821 255.250122 74.4888418 254.559799 73.1320263 254.215985 71.6484672 253.83716 70.1721428 253.390111 68.4286862 253.603761 66.8242445 254.329093 65.2188871 254.770756 64.243218 255.400036 63.4018935 255.94583 62.4994867 257.010489 60.7366156 258.366896 59.364415 260.280768 58.5803266 261.229625 58.1914876 262.132699 58.3135607 263.050137 58.5905833 263.620169 58.7631157 264.19469 58.9412344 264.735996 59.1893184 265.762054 59.6597532 266.878778 60.0314671 267.751331 60.7183 269.134669 61.8091738 270.373479 63.0984965 271.467761 64.5133723 272.944459 66.4216689 273.600669 68.6065301 273.645554 71.0055001 273.659019 72.5054515 273.184142 73.8848867 272.667971 75.2478379M83.045536 153.863617C81.1555557 152.37004 79.1462816 151.061639 76.8413851 150.309634 75.1948687 149.773233 73.5063819 149.36463 71.8323496 148.915166 70.7997176 148.637837 69.7588135 148.391805 68.7219148 148.131863 67.9864726 147.947557 67.2568644 147.864967 66.4876368 147.977116 65.8748844 148.066661 65.238099 147.995372 64.458074 147.995372 65.591888 149.370715 66.7895286 150.362666 68.2535341 150.948621 69.721458 151.537184 71.2253441 152.059675 72.7502156 152.474365 73.8883834 152.78473 75.0893329 152.858626 76.2553649 153.07423 78.2406932 153.442842 80.2206228 153.839275 82.2026423 154.225275 82.5977923 154.302649 82.9921586 154.38437 83.6249384 154.513036 83.3466442 154.196586 83.2192523 154.000108 83.045536 153.863617M79.435112 156.873375C78.0593143 156.540406 76.6896991 156.177879 75.3062387 155.882294 74.0933598 155.623221 72.8652427 155.435438 71.643308 155.221573 69.9406277 154.925118 68.4054814 154.16355 66.8490014 153.47414 64.7077203 152.525657 63.0551087 150.969486 61.6078218 149.162066 60.4540674 147.720652 60.8059407 146.379214 61.9238198 145.123845 63.1308646 143.767628 64.8666337 143.621574 66.4676964 143.224272 67.6783984 142.92347 68.8971113 143.285997 70.0759435 143.57202 71.5786977 143.937155 73.0582898 144.397921 74.5432805 144.833475 75.9810762 145.25425 77.4174786 145.682849 78.8470021 146.133183 79.5004189 146.339223 80.1502656 146.571345 80.7728576 146.85476 81.6392618 147.248584 82.4631731 147.735431 83.3332345 148.119692 84.2326404 148.516994 84.9394347 149.133377 85.5456565 149.87495 85.9803389 150.407873 86.3747052 150.974702 86.7715967 151.537184 87.4591472 152.511748 88.1505291 153.485442 87.7635642 154.795582 87.7091419 154.980757 87.7537247 155.199838 87.7751453 155.401532 87.8879956 156.461294 87.0709633 157.784474 86.0565302 158.132222 84.844348 158.547781 83.6158825 158.891182 82.327509 158.484317 81.5909347 158.252195 80.8512258 158.019204 80.1419063 157.717533 79.8567331 157.59669 79.6491444 157.29328 79.4061158 157.072461 79.41552 157.006388 79.4253595 156.940316 79.435112 156.873375M227.420477 48.2110005C227.36608 48.5398883 227.281464 48.7938774 227.291826 49.0438322 227.308231 49.4403393 227.618202 49.7366892 228.017106 49.7688764 228.82873 49.8346539 229.483209 49.5371639 229.928739 48.8336948 230.083293 48.5896161 230.17827 48.3074742 230.323326 48.056467 230.740363 47.3376498 231.129769 46.631988 231.774751 46.0414809 232.487944 45.3894936 232.988733 44.4979006 233.575002 43.7045355 234.19408 42.8666169 235.023836 42.2778639 235.899354 41.7772527 237.219537 41.0226525 238.518135 40.2340233 239.946247 39.6664944 241.275929 39.1384321 241.562587 38.5530118 240.993587 36.834814 240.649079 35.7936867 240.103392 34.8176353 239.604329 33.8353569 239.508489 33.6456544 239.212332 33.4541978 239.003382 33.4483217 238.054473 33.4205197 237.190181 33.5240098 236.46231 34.3637701 235.769839 35.1625728 234.824384 35.7289615 234.036936 36.4503222 232.670991 37.7008853 231.279143 38.9326799 230.022853 40.2910305 229.414135 40.949157 229.028182 41.8492572 228.645683 42.6890175 228.164753 43.7468962 227.795205 44.8566953 227.36608 45.9394818 227.27024 46.181017 227.140725 46.4123787 226.999986 46.6312864 226.423216 47.5327899 226.473294 47.7352094 227.420477 48.2110005M274.148401 63.7658452C274.789371 63.8661252 275.33903 63.3188498 275.539557 62.7064867 275.797377 61.9235489 275.989847 61.0677129 275.954038 60.2548797 275.924497 59.6095687 275.53329 58.9714399 275.260251 58.3490218 274.877102 57.4792705 274.448296 56.6301677 274.049033 55.7675985 273.639922 54.8817772 273.241554 53.9900308 272.837815 53.1012469 272.178941 51.6475915 271.206744 50.399344 270.225594 49.1630366 269.584624 48.3561286 268.893523 47.5862982 268.181832 46.840797 268.040388 46.6926664 267.643811 46.6144714 267.46835 46.7057737 266.828275 47.0383046 266.144335 47.2552935 265.733434 48.0120167 265.379826 48.6628937 264.686934 49.1267671 264.151599 49.6807757 264.008366 49.8284574 263.849914 49.9852066 263.773821 50.1692477 263.443489 50.9663701 263.657444 51.3753005 264.472084 51.6905943 264.790779 51.8140365 265.146177 51.9659377 265.362817 52.2128221 266.834542 53.8953169 268.315218 55.5730536 269.707268 57.3207258 270.631124 58.4802745 271.418013 59.750607 272.255034 60.9791038 272.557614 61.4226878 272.772465 61.8888055 272.793055 62.4614876 272.819016 63.1639859 273.485051 63.7475309 274.148401 63.7658452M74.3948181 89.4444444C74.9656354 89.1361953 75.1252077 88.5965358 75.1533424 87.9781611 75.2203867 86.5039259 75.2863193 85.0296906 75.35858 83.5558127 75.3728612 83.2598935 75.4205789 82.9657613 75.43982 82.669842 75.4825778 82.0071509 75.6468535 81.3600957 75.4381097 80.6762292 75.3251434 80.307313 75.4541011 79.8631662 75.4434116 79.4536861 75.4274202 78.8069883 75.3903064 78.1603798 75.3550739 77.514486 75.2784518 76.1206636 75.2203867 74.7253223 75.1127224 73.3340909 74.9916322 71.7686318 74.7821187 70.209963 74.6869397 68.642985 74.5839788 66.9468997 74.1952244 65.3077288 73.9001952 63.648812 73.8542733 63.3893466 73.7740596 63.1269327 73.6600671 62.8912338 73.4163474 62.3882962 73.0126278 62.1458962 72.6534618 62.2434638 72.1207845 62.3879388 71.6621638 62.9232202 71.6885881 63.4422404 71.7067174 63.794806 71.7744459 64.1532685 71.8763806 64.4901983 72.5151829 66.6010351 72.7799395 68.7687864 72.8893141 70.9727234 72.9481489 72.1536305 73.1918687 73.324084 73.2545517 74.5053485 73.3504148 76.3115994 73.4451662 78.1257129 73.3885548 79.9313384 73.3126168 82.3548918 73.4555136 84.769153 73.4886937 87.1874349 73.5054548 88.4252565 73.5517187 88.5176419 74.3948181 89.4444444M159.647628 91C160.187655 90.9311869 160.45503 90.5914765 160.280005 90.1245926 160.189414 89.8833111 160.025823 89.6699034 159.908847 89.4373324 159.030204 87.6842529 158.609792 85.7795231 158.088235 83.912597 157.597462 82.1563817 157.223665 80.3688956 156.746964 78.6085863 156.353817 77.1561068 155.876237 75.726536 155.452307 74.2816347 155.233306 73.5336622 155.098739 72.7584258 154.840159 72.0256096 154.367856 70.6896769 153.832227 69.375085 153.320345 68.0529149 153.279007 67.9469079 153.241188 67.811198 153.157633 67.7564088 153.05209 67.6874214 152.893776 67.6507501 152.772402 67.6733104 152.707318 67.6855922 152.612329 67.858409 152.626402 67.9429881 152.827812 69.1083688 152.99844 70.2821116 153.272851 71.4311165 153.506804 72.4100049 153.906107 73.3496089 154.15853 74.3251873 154.680966 76.3406278 155.220113 78.3559811 155.620296 80.3968563 155.841056 81.5197297 156.162081 82.6314535 156.151527 83.812426 156.145371 84.4668475 156.508613 85.1240564 156.703867 85.7803071 156.949254 86.6099842 157.14011 87.4603054 157.452341 88.2641994 157.743463 89.01313 158.099669 89.7552665 158.553503 90.415524 158.76107 90.716908 159.273831 90.8118527 159.647628 91M128.034518 125.222222C128.245355 125.189512 128.462392 125.180425 128.666142 125.122273 129.78765 124.801528 130.918018 124.50259 132.024467 124.13187 133.361241 123.684825 134.63069 123.089674 135.841671 122.329153 137.626695 121.207908 139.211512 119.82316 140.880487 118.548356 142.642478 117.201771 144.471795 115.946957 146.269221 114.649437 146.485373 114.493153 146.711269 114.341413 146.897301 114.150601 147.450969 113.586343 147.302143 113.031172 146.523465 112.849447 145.688092 112.655909 144.889925 112.874888 144.14491 113.260146 143.162483 113.769886 142.390892 114.558574 141.59804 115.329999 139.572946 117.299902 137.732113 119.507866 135.283574 120.956218 133.680154 121.903916 132.000548 122.725315 130.31297 123.506734 129.454564 123.903804 128.714864 124.432625 127.958333 124.964172 127.984024 125.049583 128.009714 125.135903 128.034518 125.222222M90.1875 49.9576977C91.117114 51.0108879 91.9560756 52.0638101 92.8993729 53.0008429 93.92306 54.0175775 95.0468068 54.9244988 96.1218066 55.8843163 96.5759234 56.2886334 97.0095152 56.7185945 97.4696185 57.1139764 98.0964879 57.652768 98.7447376 58.1650222 99.3767382 58.6977379 99.7265194 58.9922416 100.057486 59.3102448 100.405557 59.6073397 100.777573 59.9248961 101.157287 60.2323558 101.536145 60.5391901 101.646467 60.6281845 101.810668 60.6735752 101.878229 60.7856225 102.459773 61.761434 103.462079 62.2234724 104.261701 62.9315858 104.693583 63.3146371 105.128885 63.6951866 105.572739 64.0633162 105.781411 64.2361227 106.013173 64.3775667 106.266315 64.5555556 106.543403 64.0466074 106.226975 63.841813 106.02429 63.6411288 103.775087 61.4151956 101.496805 59.2204462 99.2672713 56.9732472 97.8989343 55.5935654 96.5545431 54.1802872 95.287121 52.700442 94.373756 51.6349212 93.6194603 50.4230421 92.7633944 49.302838 92.5042656 48.9636584 92.1732991 48.6553945 91.8175315 48.4312107 91.0982993 47.9773927 90.5047831 48.282708 90.3183472 49.1527269 90.2627585 49.412294 90.231971 49.6773116 90.1875 49.9576977M104.430125 21.6211699C105.584285 21.1357576 106.713089 20.6496639 107.852386 20.1866487 108.358643 19.9804762 108.874517 19.7810313 109.403508 19.6490332 110.407278 19.3992587 111.272024 18.8062892 112.355361 18.7006056 113.097696 18.6282195 113.789318 18.1328434 114.522035 17.8762562 115.193547 17.6413847 115.790738 17.2716197 116.43427 16.9905915 116.638871 16.9015993 116.896808 16.8086045 117.097912 16.8539948 117.707344 16.9920392 118.061461 16.5239995 118.520502 16.3292385 118.833525 16.1961333 118.732098 15.7174486 118.387599 15.5965213 118.25557 15.5500239 118.099059 15.5510458 117.956537 15.5613502 116.92916 15.6362059 115.921892 15.7242614 114.918122 16.0588553 113.383613 16.5690492 111.773909 16.8600411 110.219289 17.3177765 108.892005 17.7088315 107.591825 18.1881975 106.290772 18.6583662 105.560677 18.9223624 104.826212 19.1998139 104.143333 19.5589339 103.667679 19.809049 103.255854 20.1876706 102.851023 20.5464499 102.466303 20.8877715 102.510021 21.3799115 102.538875 21.8245322 102.563357 22.2151614 102.967314 22.5143287 103.381762 22.5459231 103.99032 22.5927611 104.170439 22.4809459 104.347934 21.9398389 104.382909 21.8337295 104.404768 21.723362 104.430125 21.6211699M160.169029 128.405183C159.920536 128.97898 160.271977 129.351474 160.610992 129.637943 161.429245 130.330456 161.685726 131.204484 161.587216 132.190348 161.455869 133.49967 161.356472 134.820177 161.085792 136.104552 160.637617 138.232846 160.066082 140.337053 159.543359 142.450724 159.305515 143.412499 159.061459 144.373415 158.791667 145.444444 159.067672 145.412615 159.254042 145.445305 159.362314 145.370462 159.916099 144.986784 160.174354 144.400943 160.419298 143.813383 160.715715 143.098503 160.998819 142.378461 161.306774 141.668743 161.369784 141.524219 161.524205 141.420127 161.62449 141.288506 161.746074 141.130217 161.901382 140.97709 161.960843 140.796435 162.815483 138.227685 163.500614 135.618502 163.408317 132.896625 163.359505 131.48149 163.047114 130.095603 161.948419 129.028875 161.482494 128.575516 160.979295 128.162589 160.169029 128.405183M206.583333 127.236098C206.22056 126.9642 205.998669 126.721949 205.719544 126.603364 204.360023 126.026534 203.007546 125.426834 201.612804 124.93979 199.420312 124.174918 197.19348 123.498138 194.985139 122.774772 193.380833 122.248764 191.773006 121.729532 190.183669 121.165408 189.307553 120.854546 188.469299 120.448817 187.607271 120.099839 187.313178 119.981254 187.003235 119.889775 186.693292 119.814389 186.356934 119.732226 186.030262 119.772037 185.854158 120.103227 185.660444 120.469146 185.825101 120.801183 186.135924 120.990072 186.702097 121.331426 187.285001 121.676169 187.907528 121.896398 188.781883 122.205565 189.694981 122.413088 190.596633 122.64687 192.520566 123.146619 194.356448 123.861516 196.146543 124.698385 196.482021 124.855086 196.863285 124.921155 197.221657 125.032964 198.795144 125.523396 200.371273 126.008746 201.942999 126.508496 202.848172 126.798182 203.735735 127.144619 204.651475 127.400423 205.11903 127.530866 205.628851 127.531713 206.121941 127.55543 206.226723 127.560512 206.33943 127.410587 206.583333 127.236098M54.7291667 56.0198998C53.8327219 55.9145685 53.2500594 56.2384036 52.8456781 56.7306469 52.2391505 57.4686634 51.6617029 58.2542488 51.222673 59.096377 50.229 61.0036673 49.2140252 62.8938816 47.9529744 64.643567 47.2429428 65.6280536 46.4975555 66.5878845 45.7661337 67.5571247 45.678805 67.6732592 45.5241236 67.7665677 45.49469 67.8921986 45.4541193 68.0631334 45.5045896 68.2548033 45.5159918 68.437761 45.6755346 68.4275677 45.8861664 68.4787958 45.9863115 68.3975103 46.6602803 67.8478532 47.357849 67.3138781 47.9566868 66.6898181 48.5945927 66.0255074 49.1473796 65.2795628 49.7086519 64.547732 50.5726578 63.4213225 51.4915534 62.3395198 52.1747146 61.0777216 52.9307971 59.6819287 53.8213197 58.3576635 54.6131115 56.9804277 54.7509104 56.7404918 54.6908057 56.3897357 54.7291667 56.0198998M46.25 47.4288367C47.0768285 47.5051747 47.775672 47.2953303 48.3529812 46.9340025 49.3227608 46.3276433 50.2122918 45.593912 51.1258199 44.9009057 51.777357 44.407094 52.4184867 43.8987985 53.0528215 43.3833463 53.2477236 43.2253879 53.4083071 43.0244042 53.5806741 42.8398638 53.8125611 42.5920207 54.0996675 42.3652217 53.8795641 41.9608687 53.6498274 41.5401574 53.3585064 41.16179 52.8295357 41.2302897 52.420637 41.2831981 51.9880852 41.3992388 51.6382764 41.6069532 51.0337016 41.9654694 50.371069 42.3244116 49.937055 42.8490652 49.0453737 43.9264881 47.9010767 44.7344275 46.982904 45.7699326 46.7255576 46.0602898 46.5248928 46.4089229 46.3489132 46.7561076 46.2592892 46.9336618 46.2840606 47.1675322 46.25 47.4288367M182.061684 133.777778C181.803697 134.449235 181.927598 134.931393 182.140607 135.332909 182.840735 136.652903 183.584992 137.949977 184.339432 139.239412 184.795152 140.018675 185.282271 140.780112 185.789757 141.525421 186.625667 142.756283 187.492128 143.967622 188.341616 145.189995 188.518982 145.444657 188.644581 145.74261 188.851649 145.966712 188.978945 146.105078 189.218261 146.140731 189.406659 146.222222 189.483885 146.000667 189.595057 145.783356 189.623911 145.55501 189.638338 145.441261 189.50595 145.306291 189.434664 145.184902 189.034106 144.503259 188.616576 143.831802 188.233839 143.140822 187.689861 142.157829 187.198499 141.145127 186.635002 140.174018 185.50122 138.220767 184.39714 136.244596 182.899291 134.532424 182.684585 134.286251 182.41302 134.091011 182.061684 133.777778M113.400412 36.2277336C113.000099 36.1824006 112.602419 36.1244464 112.201228 36.0954693 111.830763 36.0688748 111.456786 36.0715793 111.084565 36.0646248 110.85456 36.0600529 110.608754 36.0984314 110.395429 36.053034 108.976774 35.7512214 107.532661 35.7353806 106.078014 35.8268839 105.530217 35.8612056 104.973641 35.8875426 104.443401 35.9843905 104.120341 36.0433749 103.804304 36.1998512 103.549719 36.3659222 103.141505 36.6328978 103.225781 37.0004561 103.744609 37.1117926 104.32401 37.2362653 104.938526 37.3253859 105.540751 37.3323404 106.411609 37.3425146 107.284221 37.2722613 108.155079 37.2239661 110.100461 37.1161069 112.04321 36.9991039 113.987714 36.8891197 114.337111 36.8695441 114.690018 36.8764986 115.038537 36.8507411 115.283465 36.8321958 115.620571 36.8652297 115.624961 36.5824133 115.62935 36.3023014 115.26503 36.3213619 115.042048 36.2928999 114.50303 36.2242564 113.952599 36.2046808 113.407435 36.1649499 113.404802 36.1858778 113.403046 36.2068057 113.400412 36.2277336M135.666667 96.3526098C135.818898 96.4437343 135.916695 96.5148983 136.025563 96.5669695 137.785907 97.4209369 139.434615 98.4944711 141.369333 99.009108 142.45617 99.298103 143.524555 99.6634692 144.696273 99.5254805 145.271983 99.4569201 145.741592 99.2373533 146.186291 98.914512 146.543342 98.6567596 146.535039 98.3660289 146.242571 98.1143515 146.024834 97.9277631 145.741592 97.7663424 145.459273 97.6969142 144.662136 97.4999115 143.844701 97.3801478 143.046642 97.1857487 141.211566 96.7388044 139.382026 96.2718994 137.553409 95.7997874 136.614189 95.5567885 136.398298 95.5949741 135.666667 96.3526098M91.7693535 158.383186C92.6687952 158.486344 93.5691311 158.6614 94.4694669 158.66661 95.0094896 158.670778 95.5602412 158.443622 96.0877469 158.256062 96.3818983 158.151862 96.4587889 157.569383 96.1843072 157.399537 95.6693187 157.080685 95.3832139 156.482576 94.9513746 156.132464 94.5240056 155.78652 93.8945752 155.756302 93.3456118 155.64064 92.4175595 155.443702 91.4725198 155.40619 90.5748662 154.963339 89.6968823 154.531951 89.0370532 154.875811 88.7348551 155.75526 88.5050772 156.425266 88.7330669 157.169255 89.2695133 157.505821 90.0527251 157.997646 90.8538183 158.427992 91.7693535 158.383186M79.4956838 135.333333C79.4314473 135.421458 79.3465536 135.503173 79.3065077 135.598508 79.0045326 136.314719 78.6855245 137.027725 78.4261322 137.755953 78.2548046 138.237433 78.2030711 138.750958 78.0460586 139.237244 77.8070516 139.976688 77.5133213 140.701712 77.2627174 141.438752 77.1690354 141.714341 77.0735413 142.005953 77.0841417 142.28715 77.0973695 142.632437 77.1958534 143.004963 77.6741391 143.092287 78.0988793 143.169195 78.4733356 143.004963 78.692682 142.699732 79.0154954 142.2519 79.3521709 141.788847 79.5349143 141.290543 80.0574135 139.86453 80.369989 138.408875 80.0151026 136.899544 79.9607416 136.668819 80.0241627 136.417264 79.9871973 136.181731 79.944524 135.910949 79.8501171 135.646576 79.7783607 135.379799 79.6840444 135.364577 79.59 135.348555 79.4956838 135.333333M60.8958333 130.666667C60.92021 131.210537 60.8830533 131.639041 60.9668334 132.032752 61.3241213 133.709227 61.7031826 135.379294 62.1038594 137.04112 62.2645561 137.709513 62.5453218 138.330294 62.5459529 139.060032 62.5459529 139.31274 62.7490919 139.609396 62.9255664 139.808083 63.1649154 140.076356 63.4683222 140.080018 63.6586023 139.71286 63.8019435 139.436347 63.9659536 139.119547 63.9725013 138.815565 63.9863069 138.214012 63.9941958 137.57034 63.8308168 137.012736 63.5468167 136.04494 63.138251 135.125671 62.768183 134.193583 62.4949907 133.505047 62.2008139 132.829329 61.9142104 132.149034 61.742627 131.742504 61.5851647 131.325903 61.3846291 130.939517 61.3251469 130.825067 61.141099 130.796683 60.8958333 130.666667M175.26575 97.2222222C175.357603 97.1982678 175.57471 97.2115758 175.668233 97.1033376 176.082407 96.6304605 176.649391 96.1815378 176.808046 95.6128433 177.066904 94.6839459 177.55623 93.8579637 177.750792 92.9148711 177.815089 92.6016899 177.891911 92.2911703 177.937838 91.9753274 177.99629 91.5752007 178.050567 91.1724123 178.062257 90.7687368 178.068102 90.5886354 177.967064 90.4049852 177.914457 90.2222222 177.754132 90.3038445 177.527839 90.3402197 177.445172 90.4750739 177.038513 91.1431348 176.647721 91.8245036 176.293669 92.5253908 175.938782 93.226278 175.642348 93.9608787 175.303326 94.6715251 175.105425 95.0876215 174.917544 95.5196874 174.440743 95.6891424 174.34054 95.7237431 174.239502 95.8931981 174.217791 96.0165188 174.127608 96.5337558 174.697932 97.2222222 175.26575 97.2222222M97.8958333 143.90558C95.9599072 143.671193 91.1175037 145.956699 90.1875 147.537132 90.4420001 147.623233 90.6594036 147.738034 90.8854342 147.764821 91.7231277 147.860489 92.4348652 147.406067 93.1707587 147.069316 94.1991116 146.599587 95.2188374 146.109767 96.2515039 145.655345 96.9882601 145.330074 97.4394586 144.711103 97.8958333 143.90558M85.5625 16.4416499C85.8765116 16.7226597 86.0681716 17.0393534 86.2926334 17.065206 86.7783347 17.1205522 87.3415676 17.1611517 87.765551 16.9688051 88.8815345 16.4616765 89.6704039 15.5149636 90.3174033 14.5083529 90.6607828 13.9747345 90.7475313 13.2703437 90.9300647 12.6373205 91.0502475 12.2254093 90.7619894 11.9747125 90.5396964 11.6666667 89.6080534 11.9997458 89.2682884 12.8394983 88.7423754 13.5119376 88.1920645 14.2163284 87.5942226 14.8906792 86.9552656 15.5135071 86.5960725 15.8639729 86.1119073 16.0839016 85.5625 16.4416499M72.3919264 160.097667C72.3651063 159.665109 72.3622362 159.22995 72.305726 158.799992 72.2372408 158.279881 71.7333991 157.895 71.1692864 157.888932 70.7560986 157.883731 70.2146494 158.352697 70.1811985 158.817329 70.1416117 159.363445 70.1276573 159.916495 70.1796151 160.460877 70.2814522 161.524503 70.4286164 162.584661 70.5734053 163.643952 70.6394164 164.127655 70.9078152 164.229943 71.3807792 163.97769 71.7634851 163.773113 72.0550423 163.501789 72.1061093 163.094369 72.2298182 162.099225 72.3416511 161.102347 72.4583333 160.105469 72.4360657 160.103735 72.414194 160.100267 72.3919264 160.097667M51.6458333 144.047085C51.8798424 144.195952 52.1087852 144.415011 52.3916226 144.506028 53.3666168 144.820733 54.354364 145.106126 55.3494485 145.36838 55.6453883 145.446285 55.9899817 145.466339 56.2939577 145.419288 56.9916175 145.312844 57.2635362 144.772139 56.8394548 144.269229 56.6123463 144.000805 56.2437318 143.750121 55.8841142 143.658332 55.0575267 143.446987 54.1982706 143.335915 53.35168 143.187047 53.2665144 143.172392 53.1769812 143.17702 53.0907673 143.166993 52.0174177 143.043579 52.0177671 143.042808 51.6458333 144.047085M59.8007084 157.882413C60.711224 157.884439 62.068476 156.78528 62.3648661 155.794517 62.4116068 155.638507 62.4278057 155.464262 62.4341334 155.298122 62.486105 153.97204 61.9313756 153.868709 61.1140883 154.092593 60.8834221 154.156415 60.6746076 154.380299 60.4767611 154.563661 59.9912147 155.012442 59.5166363 155.479458 59.040708 155.942422 58.7282034 156.246337 58.5101926 156.930146 58.6062051 157.258374 58.7661696 157.807447 59.1222089 157.916857 59.5479374 157.883426 59.6323069 157.876335 59.7166764 157.882413 59.8007084 157.882413M82.4947449 161.84601C82.7816964 163.376975 83.3340208 164.932553 84.5436561 166.219023 84.6841373 166.368345 85.0372338 166.490593 85.2071324 166.427418 85.3795851 166.364243 85.4944362 166.064778 85.5465772 165.849819 85.5887655 165.677524 85.5425257 165.460104 85.4618481 165.292732 84.8419694 164.008724 84.2059729 162.732099 83.5714736 161.453834 83.5230318 161.35538 83.4716835 161.234773 83.3828149 161.183905 83.2225166 161.093655 83.0111343 160.969767 82.8621098 161.006687 82.7134375 161.041967 82.5931258 161.24626 82.5035525 161.398864 82.4544061 161.48255 82.4947449 161.612181 82.4947449 161.84601M63.9791667 29.0037799C63.9206123 28.8534061 63.8659277 28.5788268 63.7051324 28.3436115 63.5998364 28.1914484 63.301973 27.9774063 63.1577766 28.0019343 62.9073677 28.0448024 62.6302783 28.2205987 62.5047175 28.3946059 62.2675469 28.7253983 62.6964702 29.3547762 63.1903633 29.4995585 63.6914866 29.6464282 63.9698998 29.5122325 63.9791667 29.0037799"/>
    </g>
  </g>
</svg>
