<svg xmlns="http://www.w3.org/2000/svg" width="60" height="43" viewBox="0 0 60 43">
  <path fill="#FFFEE7" fill-rule="evenodd" d="M6.07133979,10.8689719 C10.1189199,5.88733489 14.6334607,2.26438047 19.6150978,0 L21.2284608,3.39655373 C17.265795,5.6609342 13.8834274,8.47721517 11.0812565,11.8454811 C8.2790857,15.2137471 6.8780213,18.624419 6.8780213,22.0775992 C6.8780213,22.7569134 7.09030378,23.2663913 7.51487512,23.6060484 C7.93944646,23.9457055 8.49138092,24.1155315 9.17069506,24.1155315 C12.8503133,23.7192649 14.8316165,23.5211346 15.1146641,23.5211346 C16.982778,23.5211346 19.0065377,24.2004385 21.1860039,25.5590668 C23.3654701,26.9176951 24.4551868,29.2386502 24.4551868,32.5220019 C24.4551868,35.295868 23.5494482,37.6451275 21.7379439,39.5698509 C19.9264395,41.4945743 17.3507453,42.4569216 14.0107841,42.4569216 C10.1047278,42.4569216 6.79312104,40.9426399 4.07586447,37.914031 C1.3586079,34.8854221 0,31.0501852 0,26.4082052 C0,21.0303016 2.02375969,15.850609 6.07133979,10.8689719 Z M41.5682543,10.6566873 C45.6724439,5.75996455 50.1586804,2.20777096 55.0270984,0 L56.6404615,3.39655373 C52.6777956,5.6609342 49.295428,8.44891084 46.4932572,11.7605673 C43.6910864,15.0722237 42.290022,18.4545913 42.290022,21.9077715 C42.290022,22.5304762 42.459848,23.0541063 42.799505,23.4786776 C43.1391621,23.903249 43.7335531,24.1155315 44.5826957,24.1155315 C48.2057045,23.7192649 50.1870077,23.5211346 50.5266648,23.5211346 C52.6212167,23.5211346 54.701585,24.2711993 56.7678322,25.7713514 C58.8340794,27.2715035 59.8671875,29.4933935 59.8671875,32.4370881 C59.8671875,34.7580781 59.0605141,37.0082724 57.447143,39.1877386 C55.8337719,41.3672048 53.1307082,42.4569216 49.3378709,42.4569216 C45.2619861,42.4569216 41.922075,40.8860312 39.3180375,37.7442033 C36.7139999,34.6023754 35.4120007,31.0501818 35.4120007,27.087516 C35.4120007,21.0302982 37.4640647,15.5534101 41.5682543,10.6566873 Z"/>
</svg>
